G75*
%MOIN*%
%OFA0B0*%
%FSLAX25Y25*%
%IPPOS*%
%LPD*%
%AMOC8*
5,1,8,0,0,1.08239X$1,22.5*
%
%ADD10C,0.00000*%
%ADD11R,0.05118X0.04724*%
%ADD12R,0.04724X0.05118*%
%ADD13R,0.05512X0.05512*%
%ADD14R,0.03150X0.03150*%
%ADD15C,0.05906*%
%ADD16OC8,0.07000*%
%ADD17C,0.06600*%
%ADD18R,0.04331X0.05512*%
%ADD19R,0.05512X0.04331*%
%ADD20R,0.12598X0.04724*%
%ADD21R,0.00984X0.02953*%
%ADD22R,0.02953X0.00984*%
%ADD23R,0.18504X0.18504*%
%ADD24R,0.02165X0.04724*%
%ADD25R,0.04724X0.02165*%
%ADD26R,0.05906X0.03937*%
%ADD27R,0.05709X0.01969*%
%ADD28R,0.07874X0.03937*%
%ADD29C,0.04724*%
%ADD30R,0.09843X0.09843*%
%ADD31C,0.02756*%
%ADD32R,0.08661X0.04134*%
%ADD33R,0.03150X0.03937*%
%ADD34R,0.18110X0.03937*%
%ADD35R,0.13386X0.06299*%
%ADD36R,0.03937X0.07087*%
%ADD37R,0.02362X0.04724*%
D10*
X0001300Y0001300D02*
X0001300Y0131300D01*
X0283221Y0131300D01*
X0283221Y0001300D01*
X0001300Y0001300D01*
X0264922Y0058623D02*
X0264924Y0058697D01*
X0264930Y0058771D01*
X0264940Y0058844D01*
X0264954Y0058917D01*
X0264971Y0058989D01*
X0264993Y0059059D01*
X0265018Y0059129D01*
X0265047Y0059197D01*
X0265080Y0059263D01*
X0265116Y0059328D01*
X0265156Y0059390D01*
X0265198Y0059451D01*
X0265244Y0059509D01*
X0265293Y0059564D01*
X0265345Y0059617D01*
X0265400Y0059667D01*
X0265457Y0059713D01*
X0265517Y0059757D01*
X0265579Y0059797D01*
X0265643Y0059834D01*
X0265709Y0059868D01*
X0265777Y0059898D01*
X0265846Y0059924D01*
X0265917Y0059947D01*
X0265988Y0059965D01*
X0266061Y0059980D01*
X0266134Y0059991D01*
X0266208Y0059998D01*
X0266282Y0060001D01*
X0266355Y0060000D01*
X0266429Y0059995D01*
X0266503Y0059986D01*
X0266576Y0059973D01*
X0266648Y0059956D01*
X0266719Y0059936D01*
X0266789Y0059911D01*
X0266857Y0059883D01*
X0266924Y0059852D01*
X0266989Y0059816D01*
X0267052Y0059778D01*
X0267113Y0059736D01*
X0267172Y0059690D01*
X0267228Y0059642D01*
X0267281Y0059591D01*
X0267331Y0059537D01*
X0267379Y0059480D01*
X0267423Y0059421D01*
X0267465Y0059359D01*
X0267503Y0059296D01*
X0267537Y0059230D01*
X0267568Y0059163D01*
X0267595Y0059094D01*
X0267618Y0059024D01*
X0267638Y0058953D01*
X0267654Y0058880D01*
X0267666Y0058807D01*
X0267674Y0058734D01*
X0267678Y0058660D01*
X0267678Y0058586D01*
X0267674Y0058512D01*
X0267666Y0058439D01*
X0267654Y0058366D01*
X0267638Y0058293D01*
X0267618Y0058222D01*
X0267595Y0058152D01*
X0267568Y0058083D01*
X0267537Y0058016D01*
X0267503Y0057950D01*
X0267465Y0057887D01*
X0267423Y0057825D01*
X0267379Y0057766D01*
X0267331Y0057709D01*
X0267281Y0057655D01*
X0267228Y0057604D01*
X0267172Y0057556D01*
X0267113Y0057510D01*
X0267052Y0057468D01*
X0266989Y0057430D01*
X0266924Y0057394D01*
X0266857Y0057363D01*
X0266789Y0057335D01*
X0266719Y0057310D01*
X0266648Y0057290D01*
X0266576Y0057273D01*
X0266503Y0057260D01*
X0266429Y0057251D01*
X0266355Y0057246D01*
X0266282Y0057245D01*
X0266208Y0057248D01*
X0266134Y0057255D01*
X0266061Y0057266D01*
X0265988Y0057281D01*
X0265917Y0057299D01*
X0265846Y0057322D01*
X0265777Y0057348D01*
X0265709Y0057378D01*
X0265643Y0057412D01*
X0265579Y0057449D01*
X0265517Y0057489D01*
X0265457Y0057533D01*
X0265400Y0057579D01*
X0265345Y0057629D01*
X0265293Y0057682D01*
X0265244Y0057737D01*
X0265198Y0057795D01*
X0265156Y0057856D01*
X0265116Y0057918D01*
X0265080Y0057983D01*
X0265047Y0058049D01*
X0265018Y0058117D01*
X0264993Y0058187D01*
X0264971Y0058257D01*
X0264954Y0058329D01*
X0264940Y0058402D01*
X0264930Y0058475D01*
X0264924Y0058549D01*
X0264922Y0058623D01*
X0272599Y0053898D02*
X0274765Y0053898D01*
X0274765Y0053899D02*
X0274839Y0053902D01*
X0274914Y0053901D01*
X0274989Y0053897D01*
X0275064Y0053888D01*
X0275138Y0053876D01*
X0275211Y0053860D01*
X0275284Y0053841D01*
X0275355Y0053818D01*
X0275425Y0053791D01*
X0275494Y0053761D01*
X0275561Y0053727D01*
X0275626Y0053690D01*
X0275689Y0053650D01*
X0275750Y0053607D01*
X0275809Y0053560D01*
X0275865Y0053511D01*
X0275919Y0053459D01*
X0275970Y0053404D01*
X0276019Y0053346D01*
X0276064Y0053287D01*
X0276106Y0053225D01*
X0276145Y0053161D01*
X0276181Y0053095D01*
X0276214Y0053027D01*
X0276243Y0052958D01*
X0276268Y0052887D01*
X0276290Y0052816D01*
X0276308Y0052743D01*
X0276322Y0052669D01*
X0276333Y0052595D01*
X0276340Y0052520D01*
X0276339Y0052520D02*
X0276339Y0051733D01*
X0276340Y0051733D02*
X0276333Y0051658D01*
X0276322Y0051584D01*
X0276308Y0051510D01*
X0276290Y0051437D01*
X0276268Y0051366D01*
X0276243Y0051295D01*
X0276214Y0051226D01*
X0276181Y0051158D01*
X0276145Y0051092D01*
X0276106Y0051028D01*
X0276064Y0050966D01*
X0276019Y0050907D01*
X0275970Y0050849D01*
X0275919Y0050794D01*
X0275865Y0050742D01*
X0275809Y0050693D01*
X0275750Y0050646D01*
X0275689Y0050603D01*
X0275626Y0050563D01*
X0275561Y0050526D01*
X0275494Y0050492D01*
X0275425Y0050462D01*
X0275355Y0050435D01*
X0275284Y0050412D01*
X0275211Y0050393D01*
X0275138Y0050377D01*
X0275064Y0050365D01*
X0274989Y0050356D01*
X0274914Y0050352D01*
X0274839Y0050351D01*
X0274765Y0050354D01*
X0274765Y0050355D02*
X0272599Y0050355D01*
X0272527Y0050357D01*
X0272455Y0050363D01*
X0272383Y0050372D01*
X0272312Y0050385D01*
X0272242Y0050402D01*
X0272173Y0050422D01*
X0272105Y0050447D01*
X0272039Y0050474D01*
X0271973Y0050505D01*
X0271910Y0050540D01*
X0271848Y0050577D01*
X0271789Y0050618D01*
X0271732Y0050662D01*
X0271677Y0050709D01*
X0271625Y0050759D01*
X0271575Y0050811D01*
X0271528Y0050866D01*
X0271484Y0050923D01*
X0271443Y0050982D01*
X0271406Y0051044D01*
X0271371Y0051107D01*
X0271340Y0051173D01*
X0271313Y0051239D01*
X0271288Y0051307D01*
X0271268Y0051376D01*
X0271251Y0051446D01*
X0271238Y0051517D01*
X0271229Y0051589D01*
X0271223Y0051661D01*
X0271221Y0051733D01*
X0271221Y0052520D01*
X0271223Y0052592D01*
X0271229Y0052664D01*
X0271238Y0052736D01*
X0271251Y0052807D01*
X0271268Y0052877D01*
X0271288Y0052946D01*
X0271313Y0053014D01*
X0271340Y0053080D01*
X0271371Y0053146D01*
X0271406Y0053209D01*
X0271443Y0053271D01*
X0271484Y0053330D01*
X0271528Y0053387D01*
X0271575Y0053442D01*
X0271625Y0053494D01*
X0271677Y0053544D01*
X0271732Y0053591D01*
X0271789Y0053635D01*
X0271848Y0053676D01*
X0271910Y0053713D01*
X0271973Y0053748D01*
X0272039Y0053779D01*
X0272105Y0053806D01*
X0272173Y0053831D01*
X0272242Y0053851D01*
X0272312Y0053868D01*
X0272383Y0053881D01*
X0272455Y0053890D01*
X0272527Y0053896D01*
X0272599Y0053898D01*
X0264922Y0073977D02*
X0264924Y0074051D01*
X0264930Y0074125D01*
X0264940Y0074198D01*
X0264954Y0074271D01*
X0264971Y0074343D01*
X0264993Y0074413D01*
X0265018Y0074483D01*
X0265047Y0074551D01*
X0265080Y0074617D01*
X0265116Y0074682D01*
X0265156Y0074744D01*
X0265198Y0074805D01*
X0265244Y0074863D01*
X0265293Y0074918D01*
X0265345Y0074971D01*
X0265400Y0075021D01*
X0265457Y0075067D01*
X0265517Y0075111D01*
X0265579Y0075151D01*
X0265643Y0075188D01*
X0265709Y0075222D01*
X0265777Y0075252D01*
X0265846Y0075278D01*
X0265917Y0075301D01*
X0265988Y0075319D01*
X0266061Y0075334D01*
X0266134Y0075345D01*
X0266208Y0075352D01*
X0266282Y0075355D01*
X0266355Y0075354D01*
X0266429Y0075349D01*
X0266503Y0075340D01*
X0266576Y0075327D01*
X0266648Y0075310D01*
X0266719Y0075290D01*
X0266789Y0075265D01*
X0266857Y0075237D01*
X0266924Y0075206D01*
X0266989Y0075170D01*
X0267052Y0075132D01*
X0267113Y0075090D01*
X0267172Y0075044D01*
X0267228Y0074996D01*
X0267281Y0074945D01*
X0267331Y0074891D01*
X0267379Y0074834D01*
X0267423Y0074775D01*
X0267465Y0074713D01*
X0267503Y0074650D01*
X0267537Y0074584D01*
X0267568Y0074517D01*
X0267595Y0074448D01*
X0267618Y0074378D01*
X0267638Y0074307D01*
X0267654Y0074234D01*
X0267666Y0074161D01*
X0267674Y0074088D01*
X0267678Y0074014D01*
X0267678Y0073940D01*
X0267674Y0073866D01*
X0267666Y0073793D01*
X0267654Y0073720D01*
X0267638Y0073647D01*
X0267618Y0073576D01*
X0267595Y0073506D01*
X0267568Y0073437D01*
X0267537Y0073370D01*
X0267503Y0073304D01*
X0267465Y0073241D01*
X0267423Y0073179D01*
X0267379Y0073120D01*
X0267331Y0073063D01*
X0267281Y0073009D01*
X0267228Y0072958D01*
X0267172Y0072910D01*
X0267113Y0072864D01*
X0267052Y0072822D01*
X0266989Y0072784D01*
X0266924Y0072748D01*
X0266857Y0072717D01*
X0266789Y0072689D01*
X0266719Y0072664D01*
X0266648Y0072644D01*
X0266576Y0072627D01*
X0266503Y0072614D01*
X0266429Y0072605D01*
X0266355Y0072600D01*
X0266282Y0072599D01*
X0266208Y0072602D01*
X0266134Y0072609D01*
X0266061Y0072620D01*
X0265988Y0072635D01*
X0265917Y0072653D01*
X0265846Y0072676D01*
X0265777Y0072702D01*
X0265709Y0072732D01*
X0265643Y0072766D01*
X0265579Y0072803D01*
X0265517Y0072843D01*
X0265457Y0072887D01*
X0265400Y0072933D01*
X0265345Y0072983D01*
X0265293Y0073036D01*
X0265244Y0073091D01*
X0265198Y0073149D01*
X0265156Y0073210D01*
X0265116Y0073272D01*
X0265080Y0073337D01*
X0265047Y0073403D01*
X0265018Y0073471D01*
X0264993Y0073541D01*
X0264971Y0073611D01*
X0264954Y0073683D01*
X0264940Y0073756D01*
X0264930Y0073829D01*
X0264924Y0073903D01*
X0264922Y0073977D01*
X0272599Y0078702D02*
X0274961Y0078702D01*
X0274962Y0078701D02*
X0275039Y0078713D01*
X0275115Y0078728D01*
X0275191Y0078747D01*
X0275265Y0078770D01*
X0275339Y0078796D01*
X0275410Y0078826D01*
X0275481Y0078860D01*
X0275549Y0078896D01*
X0275616Y0078937D01*
X0275681Y0078980D01*
X0275743Y0079026D01*
X0275804Y0079076D01*
X0275861Y0079128D01*
X0275916Y0079184D01*
X0275968Y0079241D01*
X0276018Y0079302D01*
X0276064Y0079364D01*
X0276107Y0079429D01*
X0276147Y0079496D01*
X0276184Y0079565D01*
X0276217Y0079635D01*
X0276247Y0079707D01*
X0276273Y0079781D01*
X0276295Y0079855D01*
X0276314Y0079931D01*
X0276329Y0080007D01*
X0276340Y0080084D01*
X0276348Y0080162D01*
X0276352Y0080240D01*
X0276351Y0080318D01*
X0276348Y0080395D01*
X0276340Y0080473D01*
X0276348Y0080551D01*
X0276351Y0080628D01*
X0276352Y0080706D01*
X0276348Y0080784D01*
X0276340Y0080862D01*
X0276329Y0080939D01*
X0276314Y0081015D01*
X0276295Y0081091D01*
X0276273Y0081165D01*
X0276247Y0081239D01*
X0276217Y0081311D01*
X0276184Y0081381D01*
X0276147Y0081450D01*
X0276107Y0081517D01*
X0276064Y0081582D01*
X0276018Y0081644D01*
X0275968Y0081705D01*
X0275916Y0081762D01*
X0275861Y0081818D01*
X0275804Y0081870D01*
X0275743Y0081920D01*
X0275681Y0081966D01*
X0275616Y0082009D01*
X0275549Y0082050D01*
X0275481Y0082086D01*
X0275410Y0082120D01*
X0275339Y0082150D01*
X0275265Y0082176D01*
X0275191Y0082199D01*
X0275115Y0082218D01*
X0275039Y0082233D01*
X0274962Y0082245D01*
X0274961Y0082245D02*
X0272599Y0082245D01*
X0272522Y0082233D01*
X0272446Y0082218D01*
X0272370Y0082199D01*
X0272296Y0082176D01*
X0272222Y0082150D01*
X0272151Y0082120D01*
X0272080Y0082086D01*
X0272012Y0082050D01*
X0271945Y0082009D01*
X0271880Y0081966D01*
X0271818Y0081920D01*
X0271757Y0081870D01*
X0271700Y0081818D01*
X0271645Y0081762D01*
X0271593Y0081705D01*
X0271543Y0081644D01*
X0271497Y0081582D01*
X0271454Y0081517D01*
X0271414Y0081450D01*
X0271377Y0081381D01*
X0271344Y0081311D01*
X0271314Y0081239D01*
X0271288Y0081165D01*
X0271266Y0081091D01*
X0271247Y0081015D01*
X0271232Y0080939D01*
X0271221Y0080862D01*
X0271213Y0080784D01*
X0271209Y0080706D01*
X0271210Y0080628D01*
X0271213Y0080551D01*
X0271221Y0080473D01*
X0271213Y0080395D01*
X0271210Y0080318D01*
X0271209Y0080240D01*
X0271213Y0080162D01*
X0271221Y0080084D01*
X0271232Y0080007D01*
X0271247Y0079931D01*
X0271266Y0079855D01*
X0271288Y0079781D01*
X0271314Y0079707D01*
X0271344Y0079635D01*
X0271377Y0079565D01*
X0271414Y0079496D01*
X0271454Y0079429D01*
X0271497Y0079364D01*
X0271543Y0079302D01*
X0271593Y0079241D01*
X0271645Y0079184D01*
X0271700Y0079128D01*
X0271757Y0079076D01*
X0271818Y0079026D01*
X0271880Y0078980D01*
X0271945Y0078937D01*
X0272012Y0078896D01*
X0272080Y0078860D01*
X0272151Y0078826D01*
X0272222Y0078796D01*
X0272296Y0078770D01*
X0272370Y0078747D01*
X0272446Y0078728D01*
X0272522Y0078713D01*
X0272599Y0078701D01*
D11*
X0229300Y0059800D03*
X0214800Y0060300D03*
X0214800Y0052300D03*
X0229300Y0051800D03*
X0212300Y0025800D03*
X0212300Y0017800D03*
X0152300Y0025300D03*
X0152300Y0033300D03*
X0112300Y0046300D03*
X0112300Y0054300D03*
X0132800Y0083800D03*
X0141300Y0083800D03*
X0151300Y0083800D03*
X0161300Y0083800D03*
X0161300Y0091800D03*
X0151300Y0091800D03*
X0141300Y0091800D03*
X0132800Y0091800D03*
X0029800Y0070300D03*
X0029800Y0062300D03*
D12*
X0162800Y0042800D03*
X0170800Y0042800D03*
X0214800Y0106300D03*
X0222800Y0106300D03*
X0222800Y0113300D03*
X0214800Y0113300D03*
X0214800Y0120300D03*
X0222800Y0120300D03*
D13*
X0229083Y0071300D03*
X0214517Y0071300D03*
D14*
X0249847Y0054300D03*
X0255753Y0054300D03*
X0188300Y0014253D03*
X0188300Y0008347D03*
D15*
X0161300Y0008347D02*
X0161300Y0014253D01*
X0151300Y0014253D02*
X0151300Y0008347D01*
X0141300Y0008347D02*
X0141300Y0014253D01*
X0131300Y0014253D02*
X0131300Y0008347D01*
X0121300Y0008347D02*
X0121300Y0014253D01*
X0111300Y0014253D02*
X0111300Y0008347D01*
X0101300Y0008347D02*
X0101300Y0014253D01*
X0091300Y0014253D02*
X0091300Y0008347D01*
X0081300Y0008347D02*
X0081300Y0014253D01*
X0071300Y0014253D02*
X0071300Y0008347D01*
X0061300Y0008347D02*
X0061300Y0014253D01*
X0051300Y0014253D02*
X0051300Y0008347D01*
X0041300Y0008347D02*
X0041300Y0014253D01*
X0031300Y0014253D02*
X0031300Y0008347D01*
X0021300Y0008347D02*
X0021300Y0014253D01*
X0011300Y0014253D02*
X0011300Y0008347D01*
X0011300Y0118347D02*
X0011300Y0124253D01*
X0021300Y0124253D02*
X0021300Y0118347D01*
X0031300Y0118347D02*
X0031300Y0124253D01*
X0041300Y0124253D02*
X0041300Y0118347D01*
X0051300Y0118347D02*
X0051300Y0124253D01*
X0061300Y0124253D02*
X0061300Y0118347D01*
X0071300Y0118347D02*
X0071300Y0124253D01*
X0081300Y0124253D02*
X0081300Y0118347D01*
X0091300Y0118347D02*
X0091300Y0124253D01*
X0101300Y0124253D02*
X0101300Y0118347D01*
X0111300Y0118347D02*
X0111300Y0124253D01*
X0121300Y0124253D02*
X0121300Y0118347D01*
X0131300Y0118347D02*
X0131300Y0124253D01*
X0141300Y0124253D02*
X0141300Y0118347D01*
X0151300Y0118347D02*
X0151300Y0124253D01*
X0161300Y0124253D02*
X0161300Y0118347D01*
D16*
X0011300Y0101300D03*
X0011300Y0091300D03*
X0011300Y0081300D03*
X0011300Y0071300D03*
X0011300Y0061300D03*
X0011300Y0051300D03*
X0011300Y0041300D03*
X0011300Y0031300D03*
D17*
X0171300Y0051300D03*
X0171300Y0061300D03*
X0171300Y0071300D03*
D18*
X0214863Y0079800D03*
X0222737Y0079800D03*
X0231363Y0089800D03*
X0239237Y0089800D03*
X0241863Y0047800D03*
X0249737Y0047800D03*
D19*
X0247800Y0073363D03*
X0247800Y0081237D03*
X0201800Y0089863D03*
X0201800Y0097737D03*
X0061300Y0030737D03*
X0051300Y0030737D03*
X0051300Y0022863D03*
X0061300Y0022863D03*
X0176300Y0015737D03*
X0176300Y0007863D03*
X0197800Y0007363D03*
X0197800Y0015237D03*
D20*
X0245914Y0013426D03*
X0272686Y0013426D03*
X0272686Y0029174D03*
X0245914Y0029174D03*
D21*
X0147127Y0037619D03*
X0145158Y0037619D03*
X0143190Y0037619D03*
X0141221Y0037619D03*
X0139253Y0037619D03*
X0137284Y0037619D03*
X0135316Y0037619D03*
X0133347Y0037619D03*
X0131379Y0037619D03*
X0129410Y0037619D03*
X0127442Y0037619D03*
X0125473Y0037619D03*
X0125473Y0064981D03*
X0127442Y0064981D03*
X0129410Y0064981D03*
X0131379Y0064981D03*
X0133347Y0064981D03*
X0135316Y0064981D03*
X0137284Y0064981D03*
X0139253Y0064981D03*
X0141221Y0064981D03*
X0143190Y0064981D03*
X0145158Y0064981D03*
X0147127Y0064981D03*
D22*
X0149981Y0062127D03*
X0149981Y0060158D03*
X0149981Y0058190D03*
X0149981Y0056221D03*
X0149981Y0054253D03*
X0149981Y0052284D03*
X0149981Y0050316D03*
X0149981Y0048347D03*
X0149981Y0046379D03*
X0149981Y0044410D03*
X0149981Y0042442D03*
X0149981Y0040473D03*
X0122619Y0040473D03*
X0122619Y0042442D03*
X0122619Y0044410D03*
X0122619Y0046379D03*
X0122619Y0048347D03*
X0122619Y0050316D03*
X0122619Y0052284D03*
X0122619Y0054253D03*
X0122619Y0056221D03*
X0122619Y0058190D03*
X0122619Y0060158D03*
X0122619Y0062127D03*
D23*
X0136300Y0051300D03*
D24*
X0214560Y0090181D03*
X0218300Y0090181D03*
X0222040Y0090181D03*
X0222040Y0100419D03*
X0214560Y0100419D03*
D25*
X0237181Y0067040D03*
X0237181Y0063300D03*
X0237181Y0059560D03*
X0247419Y0059560D03*
X0247419Y0067040D03*
D26*
X0103690Y0070237D03*
X0103690Y0062363D03*
X0103690Y0054489D03*
X0103690Y0046615D03*
X0103690Y0038741D03*
X0039910Y0038741D03*
X0039910Y0046615D03*
X0039910Y0054489D03*
X0039910Y0062363D03*
X0039910Y0070237D03*
X0039910Y0078111D03*
X0039910Y0085985D03*
X0039910Y0093859D03*
X0103690Y0093859D03*
X0103690Y0085985D03*
X0103690Y0078111D03*
D27*
X0263249Y0071418D03*
X0263249Y0068859D03*
X0263249Y0066300D03*
X0263249Y0063741D03*
X0263249Y0061182D03*
D28*
X0274174Y0063347D03*
X0274174Y0069253D03*
D29*
X0262757Y0079292D02*
X0262757Y0084017D01*
X0262757Y0053308D02*
X0262757Y0048583D01*
D30*
X0273780Y0052127D03*
X0273780Y0080473D03*
D31*
X0266300Y0073977D03*
X0266300Y0058623D03*
D32*
X0024800Y0092887D03*
X0024800Y0103713D03*
D33*
X0030804Y0098300D03*
D34*
X0251733Y0106363D03*
X0251733Y0114237D03*
D35*
X0272206Y0123686D03*
X0272206Y0096914D03*
D36*
X0161221Y0075800D03*
X0151379Y0075800D03*
D37*
X0187800Y0047824D03*
X0192800Y0047824D03*
X0197800Y0047824D03*
X0202800Y0047824D03*
X0202800Y0025776D03*
X0197800Y0025776D03*
X0192800Y0025776D03*
X0187800Y0025776D03*
M02*
