G75*
%MOIN*%
%OFA0B0*%
%FSLAX25Y25*%
%IPPOS*%
%LPD*%
%AMOC8*
5,1,8,0,0,1.08239X$1,22.5*
%
%ADD10C,0.00000*%
%ADD11C,0.05906*%
%ADD12OC8,0.07000*%
%ADD13C,0.06600*%
%ADD14C,0.04724*%
%ADD15R,0.09843X0.09843*%
%ADD16C,0.02578*%
%ADD17C,0.00600*%
%ADD18C,0.01600*%
D10*
X0001300Y0001300D02*
X0001300Y0131300D01*
X0283221Y0131300D01*
X0283221Y0001300D01*
X0001300Y0001300D01*
X0264922Y0058623D02*
X0264924Y0058697D01*
X0264930Y0058771D01*
X0264940Y0058844D01*
X0264954Y0058917D01*
X0264971Y0058989D01*
X0264993Y0059059D01*
X0265018Y0059129D01*
X0265047Y0059197D01*
X0265080Y0059263D01*
X0265116Y0059328D01*
X0265156Y0059390D01*
X0265198Y0059451D01*
X0265244Y0059509D01*
X0265293Y0059564D01*
X0265345Y0059617D01*
X0265400Y0059667D01*
X0265457Y0059713D01*
X0265517Y0059757D01*
X0265579Y0059797D01*
X0265643Y0059834D01*
X0265709Y0059868D01*
X0265777Y0059898D01*
X0265846Y0059924D01*
X0265917Y0059947D01*
X0265988Y0059965D01*
X0266061Y0059980D01*
X0266134Y0059991D01*
X0266208Y0059998D01*
X0266282Y0060001D01*
X0266355Y0060000D01*
X0266429Y0059995D01*
X0266503Y0059986D01*
X0266576Y0059973D01*
X0266648Y0059956D01*
X0266719Y0059936D01*
X0266789Y0059911D01*
X0266857Y0059883D01*
X0266924Y0059852D01*
X0266989Y0059816D01*
X0267052Y0059778D01*
X0267113Y0059736D01*
X0267172Y0059690D01*
X0267228Y0059642D01*
X0267281Y0059591D01*
X0267331Y0059537D01*
X0267379Y0059480D01*
X0267423Y0059421D01*
X0267465Y0059359D01*
X0267503Y0059296D01*
X0267537Y0059230D01*
X0267568Y0059163D01*
X0267595Y0059094D01*
X0267618Y0059024D01*
X0267638Y0058953D01*
X0267654Y0058880D01*
X0267666Y0058807D01*
X0267674Y0058734D01*
X0267678Y0058660D01*
X0267678Y0058586D01*
X0267674Y0058512D01*
X0267666Y0058439D01*
X0267654Y0058366D01*
X0267638Y0058293D01*
X0267618Y0058222D01*
X0267595Y0058152D01*
X0267568Y0058083D01*
X0267537Y0058016D01*
X0267503Y0057950D01*
X0267465Y0057887D01*
X0267423Y0057825D01*
X0267379Y0057766D01*
X0267331Y0057709D01*
X0267281Y0057655D01*
X0267228Y0057604D01*
X0267172Y0057556D01*
X0267113Y0057510D01*
X0267052Y0057468D01*
X0266989Y0057430D01*
X0266924Y0057394D01*
X0266857Y0057363D01*
X0266789Y0057335D01*
X0266719Y0057310D01*
X0266648Y0057290D01*
X0266576Y0057273D01*
X0266503Y0057260D01*
X0266429Y0057251D01*
X0266355Y0057246D01*
X0266282Y0057245D01*
X0266208Y0057248D01*
X0266134Y0057255D01*
X0266061Y0057266D01*
X0265988Y0057281D01*
X0265917Y0057299D01*
X0265846Y0057322D01*
X0265777Y0057348D01*
X0265709Y0057378D01*
X0265643Y0057412D01*
X0265579Y0057449D01*
X0265517Y0057489D01*
X0265457Y0057533D01*
X0265400Y0057579D01*
X0265345Y0057629D01*
X0265293Y0057682D01*
X0265244Y0057737D01*
X0265198Y0057795D01*
X0265156Y0057856D01*
X0265116Y0057918D01*
X0265080Y0057983D01*
X0265047Y0058049D01*
X0265018Y0058117D01*
X0264993Y0058187D01*
X0264971Y0058257D01*
X0264954Y0058329D01*
X0264940Y0058402D01*
X0264930Y0058475D01*
X0264924Y0058549D01*
X0264922Y0058623D01*
X0272599Y0053898D02*
X0274765Y0053898D01*
X0274765Y0053899D02*
X0274839Y0053902D01*
X0274914Y0053901D01*
X0274989Y0053897D01*
X0275064Y0053888D01*
X0275138Y0053876D01*
X0275211Y0053860D01*
X0275284Y0053841D01*
X0275355Y0053818D01*
X0275425Y0053791D01*
X0275494Y0053761D01*
X0275561Y0053727D01*
X0275626Y0053690D01*
X0275689Y0053650D01*
X0275750Y0053607D01*
X0275809Y0053560D01*
X0275865Y0053511D01*
X0275919Y0053459D01*
X0275970Y0053404D01*
X0276019Y0053346D01*
X0276064Y0053287D01*
X0276106Y0053225D01*
X0276145Y0053161D01*
X0276181Y0053095D01*
X0276214Y0053027D01*
X0276243Y0052958D01*
X0276268Y0052887D01*
X0276290Y0052816D01*
X0276308Y0052743D01*
X0276322Y0052669D01*
X0276333Y0052595D01*
X0276340Y0052520D01*
X0276339Y0052520D02*
X0276339Y0051733D01*
X0276340Y0051733D02*
X0276333Y0051658D01*
X0276322Y0051584D01*
X0276308Y0051510D01*
X0276290Y0051437D01*
X0276268Y0051366D01*
X0276243Y0051295D01*
X0276214Y0051226D01*
X0276181Y0051158D01*
X0276145Y0051092D01*
X0276106Y0051028D01*
X0276064Y0050966D01*
X0276019Y0050907D01*
X0275970Y0050849D01*
X0275919Y0050794D01*
X0275865Y0050742D01*
X0275809Y0050693D01*
X0275750Y0050646D01*
X0275689Y0050603D01*
X0275626Y0050563D01*
X0275561Y0050526D01*
X0275494Y0050492D01*
X0275425Y0050462D01*
X0275355Y0050435D01*
X0275284Y0050412D01*
X0275211Y0050393D01*
X0275138Y0050377D01*
X0275064Y0050365D01*
X0274989Y0050356D01*
X0274914Y0050352D01*
X0274839Y0050351D01*
X0274765Y0050354D01*
X0274765Y0050355D02*
X0272599Y0050355D01*
X0272527Y0050357D01*
X0272455Y0050363D01*
X0272383Y0050372D01*
X0272312Y0050385D01*
X0272242Y0050402D01*
X0272173Y0050422D01*
X0272105Y0050447D01*
X0272039Y0050474D01*
X0271973Y0050505D01*
X0271910Y0050540D01*
X0271848Y0050577D01*
X0271789Y0050618D01*
X0271732Y0050662D01*
X0271677Y0050709D01*
X0271625Y0050759D01*
X0271575Y0050811D01*
X0271528Y0050866D01*
X0271484Y0050923D01*
X0271443Y0050982D01*
X0271406Y0051044D01*
X0271371Y0051107D01*
X0271340Y0051173D01*
X0271313Y0051239D01*
X0271288Y0051307D01*
X0271268Y0051376D01*
X0271251Y0051446D01*
X0271238Y0051517D01*
X0271229Y0051589D01*
X0271223Y0051661D01*
X0271221Y0051733D01*
X0271221Y0052520D01*
X0271223Y0052592D01*
X0271229Y0052664D01*
X0271238Y0052736D01*
X0271251Y0052807D01*
X0271268Y0052877D01*
X0271288Y0052946D01*
X0271313Y0053014D01*
X0271340Y0053080D01*
X0271371Y0053146D01*
X0271406Y0053209D01*
X0271443Y0053271D01*
X0271484Y0053330D01*
X0271528Y0053387D01*
X0271575Y0053442D01*
X0271625Y0053494D01*
X0271677Y0053544D01*
X0271732Y0053591D01*
X0271789Y0053635D01*
X0271848Y0053676D01*
X0271910Y0053713D01*
X0271973Y0053748D01*
X0272039Y0053779D01*
X0272105Y0053806D01*
X0272173Y0053831D01*
X0272242Y0053851D01*
X0272312Y0053868D01*
X0272383Y0053881D01*
X0272455Y0053890D01*
X0272527Y0053896D01*
X0272599Y0053898D01*
X0264922Y0073977D02*
X0264924Y0074051D01*
X0264930Y0074125D01*
X0264940Y0074198D01*
X0264954Y0074271D01*
X0264971Y0074343D01*
X0264993Y0074413D01*
X0265018Y0074483D01*
X0265047Y0074551D01*
X0265080Y0074617D01*
X0265116Y0074682D01*
X0265156Y0074744D01*
X0265198Y0074805D01*
X0265244Y0074863D01*
X0265293Y0074918D01*
X0265345Y0074971D01*
X0265400Y0075021D01*
X0265457Y0075067D01*
X0265517Y0075111D01*
X0265579Y0075151D01*
X0265643Y0075188D01*
X0265709Y0075222D01*
X0265777Y0075252D01*
X0265846Y0075278D01*
X0265917Y0075301D01*
X0265988Y0075319D01*
X0266061Y0075334D01*
X0266134Y0075345D01*
X0266208Y0075352D01*
X0266282Y0075355D01*
X0266355Y0075354D01*
X0266429Y0075349D01*
X0266503Y0075340D01*
X0266576Y0075327D01*
X0266648Y0075310D01*
X0266719Y0075290D01*
X0266789Y0075265D01*
X0266857Y0075237D01*
X0266924Y0075206D01*
X0266989Y0075170D01*
X0267052Y0075132D01*
X0267113Y0075090D01*
X0267172Y0075044D01*
X0267228Y0074996D01*
X0267281Y0074945D01*
X0267331Y0074891D01*
X0267379Y0074834D01*
X0267423Y0074775D01*
X0267465Y0074713D01*
X0267503Y0074650D01*
X0267537Y0074584D01*
X0267568Y0074517D01*
X0267595Y0074448D01*
X0267618Y0074378D01*
X0267638Y0074307D01*
X0267654Y0074234D01*
X0267666Y0074161D01*
X0267674Y0074088D01*
X0267678Y0074014D01*
X0267678Y0073940D01*
X0267674Y0073866D01*
X0267666Y0073793D01*
X0267654Y0073720D01*
X0267638Y0073647D01*
X0267618Y0073576D01*
X0267595Y0073506D01*
X0267568Y0073437D01*
X0267537Y0073370D01*
X0267503Y0073304D01*
X0267465Y0073241D01*
X0267423Y0073179D01*
X0267379Y0073120D01*
X0267331Y0073063D01*
X0267281Y0073009D01*
X0267228Y0072958D01*
X0267172Y0072910D01*
X0267113Y0072864D01*
X0267052Y0072822D01*
X0266989Y0072784D01*
X0266924Y0072748D01*
X0266857Y0072717D01*
X0266789Y0072689D01*
X0266719Y0072664D01*
X0266648Y0072644D01*
X0266576Y0072627D01*
X0266503Y0072614D01*
X0266429Y0072605D01*
X0266355Y0072600D01*
X0266282Y0072599D01*
X0266208Y0072602D01*
X0266134Y0072609D01*
X0266061Y0072620D01*
X0265988Y0072635D01*
X0265917Y0072653D01*
X0265846Y0072676D01*
X0265777Y0072702D01*
X0265709Y0072732D01*
X0265643Y0072766D01*
X0265579Y0072803D01*
X0265517Y0072843D01*
X0265457Y0072887D01*
X0265400Y0072933D01*
X0265345Y0072983D01*
X0265293Y0073036D01*
X0265244Y0073091D01*
X0265198Y0073149D01*
X0265156Y0073210D01*
X0265116Y0073272D01*
X0265080Y0073337D01*
X0265047Y0073403D01*
X0265018Y0073471D01*
X0264993Y0073541D01*
X0264971Y0073611D01*
X0264954Y0073683D01*
X0264940Y0073756D01*
X0264930Y0073829D01*
X0264924Y0073903D01*
X0264922Y0073977D01*
X0272599Y0078702D02*
X0274961Y0078702D01*
X0274962Y0078701D02*
X0275039Y0078713D01*
X0275115Y0078728D01*
X0275191Y0078747D01*
X0275265Y0078770D01*
X0275339Y0078796D01*
X0275410Y0078826D01*
X0275481Y0078860D01*
X0275549Y0078896D01*
X0275616Y0078937D01*
X0275681Y0078980D01*
X0275743Y0079026D01*
X0275804Y0079076D01*
X0275861Y0079128D01*
X0275916Y0079184D01*
X0275968Y0079241D01*
X0276018Y0079302D01*
X0276064Y0079364D01*
X0276107Y0079429D01*
X0276147Y0079496D01*
X0276184Y0079565D01*
X0276217Y0079635D01*
X0276247Y0079707D01*
X0276273Y0079781D01*
X0276295Y0079855D01*
X0276314Y0079931D01*
X0276329Y0080007D01*
X0276340Y0080084D01*
X0276348Y0080162D01*
X0276352Y0080240D01*
X0276351Y0080318D01*
X0276348Y0080395D01*
X0276340Y0080473D01*
X0276348Y0080551D01*
X0276351Y0080628D01*
X0276352Y0080706D01*
X0276348Y0080784D01*
X0276340Y0080862D01*
X0276329Y0080939D01*
X0276314Y0081015D01*
X0276295Y0081091D01*
X0276273Y0081165D01*
X0276247Y0081239D01*
X0276217Y0081311D01*
X0276184Y0081381D01*
X0276147Y0081450D01*
X0276107Y0081517D01*
X0276064Y0081582D01*
X0276018Y0081644D01*
X0275968Y0081705D01*
X0275916Y0081762D01*
X0275861Y0081818D01*
X0275804Y0081870D01*
X0275743Y0081920D01*
X0275681Y0081966D01*
X0275616Y0082009D01*
X0275549Y0082050D01*
X0275481Y0082086D01*
X0275410Y0082120D01*
X0275339Y0082150D01*
X0275265Y0082176D01*
X0275191Y0082199D01*
X0275115Y0082218D01*
X0275039Y0082233D01*
X0274962Y0082245D01*
X0274961Y0082245D02*
X0272599Y0082245D01*
X0272522Y0082233D01*
X0272446Y0082218D01*
X0272370Y0082199D01*
X0272296Y0082176D01*
X0272222Y0082150D01*
X0272151Y0082120D01*
X0272080Y0082086D01*
X0272012Y0082050D01*
X0271945Y0082009D01*
X0271880Y0081966D01*
X0271818Y0081920D01*
X0271757Y0081870D01*
X0271700Y0081818D01*
X0271645Y0081762D01*
X0271593Y0081705D01*
X0271543Y0081644D01*
X0271497Y0081582D01*
X0271454Y0081517D01*
X0271414Y0081450D01*
X0271377Y0081381D01*
X0271344Y0081311D01*
X0271314Y0081239D01*
X0271288Y0081165D01*
X0271266Y0081091D01*
X0271247Y0081015D01*
X0271232Y0080939D01*
X0271221Y0080862D01*
X0271213Y0080784D01*
X0271209Y0080706D01*
X0271210Y0080628D01*
X0271213Y0080551D01*
X0271221Y0080473D01*
X0271213Y0080395D01*
X0271210Y0080318D01*
X0271209Y0080240D01*
X0271213Y0080162D01*
X0271221Y0080084D01*
X0271232Y0080007D01*
X0271247Y0079931D01*
X0271266Y0079855D01*
X0271288Y0079781D01*
X0271314Y0079707D01*
X0271344Y0079635D01*
X0271377Y0079565D01*
X0271414Y0079496D01*
X0271454Y0079429D01*
X0271497Y0079364D01*
X0271543Y0079302D01*
X0271593Y0079241D01*
X0271645Y0079184D01*
X0271700Y0079128D01*
X0271757Y0079076D01*
X0271818Y0079026D01*
X0271880Y0078980D01*
X0271945Y0078937D01*
X0272012Y0078896D01*
X0272080Y0078860D01*
X0272151Y0078826D01*
X0272222Y0078796D01*
X0272296Y0078770D01*
X0272370Y0078747D01*
X0272446Y0078728D01*
X0272522Y0078713D01*
X0272599Y0078701D01*
D11*
X0161300Y0118347D02*
X0161300Y0124253D01*
X0151300Y0124253D02*
X0151300Y0118347D01*
X0141300Y0118347D02*
X0141300Y0124253D01*
X0131300Y0124253D02*
X0131300Y0118347D01*
X0121300Y0118347D02*
X0121300Y0124253D01*
X0111300Y0124253D02*
X0111300Y0118347D01*
X0101300Y0118347D02*
X0101300Y0124253D01*
X0091300Y0124253D02*
X0091300Y0118347D01*
X0081300Y0118347D02*
X0081300Y0124253D01*
X0071300Y0124253D02*
X0071300Y0118347D01*
X0061300Y0118347D02*
X0061300Y0124253D01*
X0051300Y0124253D02*
X0051300Y0118347D01*
X0041300Y0118347D02*
X0041300Y0124253D01*
X0031300Y0124253D02*
X0031300Y0118347D01*
X0021300Y0118347D02*
X0021300Y0124253D01*
X0011300Y0124253D02*
X0011300Y0118347D01*
X0011300Y0014253D02*
X0011300Y0008347D01*
X0021300Y0008347D02*
X0021300Y0014253D01*
X0031300Y0014253D02*
X0031300Y0008347D01*
X0041300Y0008347D02*
X0041300Y0014253D01*
X0051300Y0014253D02*
X0051300Y0008347D01*
X0061300Y0008347D02*
X0061300Y0014253D01*
X0071300Y0014253D02*
X0071300Y0008347D01*
X0081300Y0008347D02*
X0081300Y0014253D01*
X0091300Y0014253D02*
X0091300Y0008347D01*
X0101300Y0008347D02*
X0101300Y0014253D01*
X0111300Y0014253D02*
X0111300Y0008347D01*
X0121300Y0008347D02*
X0121300Y0014253D01*
X0131300Y0014253D02*
X0131300Y0008347D01*
X0141300Y0008347D02*
X0141300Y0014253D01*
X0151300Y0014253D02*
X0151300Y0008347D01*
X0161300Y0008347D02*
X0161300Y0014253D01*
D12*
X0011300Y0031300D03*
X0011300Y0041300D03*
X0011300Y0051300D03*
X0011300Y0061300D03*
X0011300Y0071300D03*
X0011300Y0081300D03*
X0011300Y0091300D03*
X0011300Y0101300D03*
D13*
X0171300Y0071300D03*
X0171300Y0061300D03*
X0171300Y0051300D03*
D14*
X0262757Y0053308D02*
X0262757Y0048583D01*
X0262757Y0079292D02*
X0262757Y0084017D01*
D15*
X0273780Y0080473D03*
X0273780Y0052127D03*
D16*
X0256300Y0063231D03*
X0256300Y0066809D03*
X0244752Y0063800D03*
X0232300Y0064800D03*
X0221800Y0063800D03*
X0221800Y0071800D03*
X0230800Y0078300D03*
X0230800Y0084800D03*
X0254300Y0095300D03*
X0233800Y0113800D03*
X0254300Y0122800D03*
X0207800Y0101300D03*
X0176300Y0107800D03*
X0166800Y0104300D03*
X0161800Y0107800D03*
X0151300Y0101300D03*
X0136800Y0101300D03*
X0112300Y0101300D03*
X0112300Y0089800D03*
X0115300Y0084800D03*
X0117189Y0080800D03*
X0119800Y0077800D03*
X0125300Y0073300D03*
X0125008Y0068800D03*
X0120230Y0064800D03*
X0129800Y0058300D03*
X0118804Y0051864D03*
X0117800Y0048300D03*
X0117800Y0044722D03*
X0115300Y0041300D03*
X0129800Y0047300D03*
X0142800Y0046800D03*
X0154800Y0047222D03*
X0154800Y0050800D03*
X0162800Y0047800D03*
X0154911Y0043644D03*
X0154911Y0040066D03*
X0157300Y0037300D03*
X0150300Y0037751D03*
X0143994Y0033300D03*
X0140417Y0033300D03*
X0134439Y0033300D03*
X0132800Y0029300D03*
X0137800Y0027800D03*
X0140800Y0024800D03*
X0129800Y0025800D03*
X0121300Y0028800D03*
X0115800Y0033522D03*
X0101300Y0025800D03*
X0106300Y0018800D03*
X0125800Y0018800D03*
X0085800Y0018800D03*
X0066300Y0020800D03*
X0081300Y0028422D03*
X0071300Y0029622D03*
X0069300Y0036800D03*
X0060800Y0039800D03*
X0054800Y0038800D03*
X0063189Y0043800D03*
X0081300Y0051800D03*
X0077800Y0055300D03*
X0088300Y0054300D03*
X0094800Y0050300D03*
X0098300Y0046800D03*
X0097800Y0054300D03*
X0084800Y0048300D03*
X0054300Y0058800D03*
X0050300Y0056300D03*
X0034800Y0054300D03*
X0034800Y0058300D03*
X0028300Y0056300D03*
X0024800Y0046800D03*
X0034800Y0046800D03*
X0034800Y0038800D03*
X0021300Y0038800D03*
X0021300Y0027300D03*
X0025300Y0022800D03*
X0031300Y0027211D03*
X0036300Y0022300D03*
X0041300Y0026011D03*
X0046300Y0023300D03*
X0007800Y0022300D03*
X0050300Y0066300D03*
X0057300Y0073800D03*
X0057300Y0081800D03*
X0065578Y0083300D03*
X0072800Y0073800D03*
X0091300Y0068689D03*
X0097800Y0073300D03*
X0098300Y0078300D03*
X0098300Y0085800D03*
X0077300Y0097800D03*
X0071300Y0104300D03*
X0065800Y0109300D03*
X0068300Y0113800D03*
X0077300Y0109300D03*
X0058800Y0104300D03*
X0054300Y0106800D03*
X0050300Y0101300D03*
X0041300Y0104800D03*
X0031300Y0110300D03*
X0017300Y0106800D03*
X0008300Y0111300D03*
X0045800Y0088800D03*
X0028300Y0084800D03*
X0034800Y0078300D03*
X0034800Y0070300D03*
X0121300Y0113300D03*
X0146239Y0113239D03*
X0188800Y0117800D03*
X0188300Y0084300D03*
X0201800Y0084800D03*
X0190300Y0071800D03*
X0201800Y0066300D03*
X0196300Y0061300D03*
X0183300Y0055300D03*
X0164800Y0056800D03*
X0158050Y0056550D03*
X0154300Y0058300D03*
X0142800Y0058300D03*
X0150800Y0065300D03*
X0157800Y0065300D03*
X0176300Y0044300D03*
X0175800Y0040300D03*
X0165800Y0033300D03*
X0184300Y0026211D03*
X0179800Y0022300D03*
X0190300Y0018800D03*
X0193800Y0021300D03*
X0223800Y0011300D03*
X0230800Y0020800D03*
X0258800Y0021300D03*
X0215300Y0038800D03*
X0206800Y0037300D03*
X0228300Y0045300D03*
X0219800Y0055800D03*
X0274300Y0066300D03*
D17*
X0280921Y0066538D02*
X0258489Y0066538D01*
X0258489Y0067136D02*
X0280921Y0067136D01*
X0280921Y0067735D02*
X0258470Y0067735D01*
X0258489Y0067716D02*
X0257207Y0068998D01*
X0255393Y0068998D01*
X0254111Y0067716D01*
X0254111Y0066820D01*
X0252265Y0066820D01*
X0251562Y0066118D01*
X0230489Y0045044D01*
X0230489Y0046207D01*
X0229207Y0047489D01*
X0227393Y0047489D01*
X0226111Y0046207D01*
X0226111Y0045500D01*
X0178196Y0045500D01*
X0177207Y0046489D01*
X0175393Y0046489D01*
X0174904Y0046000D01*
X0164096Y0046000D01*
X0164989Y0046893D01*
X0164989Y0048707D01*
X0163707Y0049989D01*
X0162308Y0049989D01*
X0160297Y0052000D01*
X0156696Y0052000D01*
X0155707Y0052989D01*
X0153893Y0052989D01*
X0152611Y0051707D01*
X0152611Y0049893D01*
X0153493Y0049011D01*
X0152611Y0048129D01*
X0152611Y0046315D01*
X0153549Y0045378D01*
X0152722Y0044551D01*
X0152722Y0044344D01*
X0120026Y0044344D01*
X0119989Y0044307D01*
X0119989Y0045629D01*
X0119107Y0046511D01*
X0119989Y0047393D01*
X0119989Y0049207D01*
X0119521Y0049675D01*
X0119710Y0049675D01*
X0120993Y0050957D01*
X0120993Y0052770D01*
X0119710Y0054053D01*
X0117897Y0054053D01*
X0116908Y0053064D01*
X0109733Y0053064D01*
X0108000Y0054797D01*
X0107297Y0055500D01*
X0099696Y0055500D01*
X0098707Y0056489D01*
X0097308Y0056489D01*
X0094500Y0059297D01*
X0093797Y0060000D01*
X0056196Y0060000D01*
X0055207Y0060989D01*
X0053393Y0060989D01*
X0052111Y0059707D01*
X0052111Y0057893D01*
X0053300Y0056704D01*
X0052489Y0055893D01*
X0052489Y0057207D01*
X0051207Y0058489D01*
X0049393Y0058489D01*
X0048904Y0058000D01*
X0041181Y0058000D01*
X0040292Y0057111D01*
X0036707Y0057111D01*
X0036989Y0057393D01*
X0036989Y0058792D01*
X0039297Y0061100D01*
X0148297Y0061100D01*
X0149000Y0061803D01*
X0150308Y0063111D01*
X0151707Y0063111D01*
X0152989Y0064393D01*
X0152989Y0066207D01*
X0151707Y0067489D01*
X0149893Y0067489D01*
X0148611Y0066207D01*
X0148611Y0064808D01*
X0147303Y0063500D01*
X0122026Y0063500D01*
X0122419Y0063893D01*
X0122419Y0065707D01*
X0121137Y0066989D01*
X0119738Y0066989D01*
X0119227Y0067500D01*
X0093207Y0067500D01*
X0093307Y0067600D01*
X0123112Y0067600D01*
X0124101Y0066611D01*
X0125915Y0066611D01*
X0126904Y0067600D01*
X0160803Y0067600D01*
X0162600Y0065803D01*
X0163303Y0065100D01*
X0169499Y0065100D01*
X0168921Y0064861D01*
X0167739Y0063679D01*
X0167251Y0062500D01*
X0156803Y0062500D01*
X0154792Y0060489D01*
X0153393Y0060489D01*
X0152111Y0059207D01*
X0152111Y0057393D01*
X0153393Y0056111D01*
X0155207Y0056111D01*
X0155861Y0056765D01*
X0155861Y0055643D01*
X0157143Y0054361D01*
X0158957Y0054361D01*
X0158999Y0054404D01*
X0163303Y0050100D01*
X0167251Y0050100D01*
X0167739Y0048921D01*
X0168921Y0047739D01*
X0170465Y0047100D01*
X0172135Y0047100D01*
X0173679Y0047739D01*
X0174861Y0048921D01*
X0175500Y0050465D01*
X0175500Y0052135D01*
X0174861Y0053679D01*
X0173679Y0054861D01*
X0172135Y0055500D01*
X0170465Y0055500D01*
X0168921Y0054861D01*
X0167739Y0053679D01*
X0167251Y0052500D01*
X0164297Y0052500D01*
X0160239Y0056558D01*
X0160239Y0057457D01*
X0158957Y0058739D01*
X0157143Y0058739D01*
X0156489Y0058085D01*
X0156489Y0058792D01*
X0157797Y0060100D01*
X0167251Y0060100D01*
X0167739Y0058921D01*
X0168921Y0057739D01*
X0170465Y0057100D01*
X0172135Y0057100D01*
X0173679Y0057739D01*
X0174861Y0058921D01*
X0175500Y0060465D01*
X0175500Y0062135D01*
X0174861Y0063679D01*
X0173679Y0064861D01*
X0173101Y0065100D01*
X0199904Y0065100D01*
X0200893Y0064111D01*
X0202707Y0064111D01*
X0203989Y0065393D01*
X0203989Y0067207D01*
X0202707Y0068489D01*
X0200893Y0068489D01*
X0199904Y0067500D01*
X0173896Y0067500D01*
X0174297Y0067791D01*
X0174809Y0068303D01*
X0175234Y0068889D01*
X0175563Y0069534D01*
X0175787Y0070223D01*
X0175900Y0070938D01*
X0175900Y0071000D01*
X0171600Y0071000D01*
X0171600Y0071600D01*
X0171000Y0071600D01*
X0171000Y0075900D01*
X0170938Y0075900D01*
X0170223Y0075787D01*
X0169534Y0075563D01*
X0168889Y0075234D01*
X0168303Y0074809D01*
X0167791Y0074297D01*
X0167366Y0073711D01*
X0167037Y0073066D01*
X0166813Y0072377D01*
X0166700Y0071662D01*
X0166700Y0071600D01*
X0171000Y0071600D01*
X0171000Y0071000D01*
X0166700Y0071000D01*
X0166700Y0070938D01*
X0166813Y0070223D01*
X0167037Y0069534D01*
X0167366Y0068889D01*
X0167791Y0068303D01*
X0168303Y0067791D01*
X0168704Y0067500D01*
X0164297Y0067500D01*
X0161797Y0070000D01*
X0126904Y0070000D01*
X0125915Y0070989D01*
X0124101Y0070989D01*
X0123112Y0070000D01*
X0093085Y0070000D01*
X0092207Y0070878D01*
X0090393Y0070878D01*
X0089111Y0069596D01*
X0089111Y0067782D01*
X0089393Y0067500D01*
X0052196Y0067500D01*
X0051207Y0068489D01*
X0049393Y0068489D01*
X0048111Y0067207D01*
X0048111Y0065393D01*
X0049393Y0064111D01*
X0051207Y0064111D01*
X0052196Y0065100D01*
X0118041Y0065100D01*
X0118041Y0063893D01*
X0118434Y0063500D01*
X0038303Y0063500D01*
X0037600Y0062797D01*
X0035292Y0060489D01*
X0033893Y0060489D01*
X0032611Y0059207D01*
X0032611Y0057393D01*
X0033704Y0056300D01*
X0032611Y0055207D01*
X0032611Y0053393D01*
X0033504Y0052500D01*
X0029504Y0052500D01*
X0029004Y0053000D01*
X0015700Y0053000D01*
X0015700Y0053123D01*
X0013123Y0055700D01*
X0009477Y0055700D01*
X0006900Y0053123D01*
X0006900Y0049477D01*
X0009477Y0046900D01*
X0013123Y0046900D01*
X0015700Y0049477D01*
X0015700Y0049600D01*
X0027596Y0049600D01*
X0028096Y0049100D01*
X0050504Y0049100D01*
X0051500Y0050096D01*
X0055004Y0053600D01*
X0076404Y0053600D01*
X0076504Y0053500D01*
X0055596Y0053500D01*
X0050596Y0048500D01*
X0047096Y0048500D01*
X0046100Y0047504D01*
X0043096Y0044500D01*
X0014323Y0044500D01*
X0013123Y0045700D01*
X0009477Y0045700D01*
X0006900Y0043123D01*
X0006900Y0039477D01*
X0009477Y0036900D01*
X0013123Y0036900D01*
X0015700Y0039477D01*
X0015700Y0041100D01*
X0044504Y0041100D01*
X0048504Y0045100D01*
X0052004Y0045100D01*
X0053000Y0046096D01*
X0057004Y0050100D01*
X0079904Y0050100D01*
X0080004Y0050000D01*
X0057596Y0050000D01*
X0040596Y0033000D01*
X0015700Y0033000D01*
X0015700Y0033123D01*
X0013123Y0035700D01*
X0009477Y0035700D01*
X0006900Y0033123D01*
X0006900Y0029477D01*
X0009477Y0026900D01*
X0013123Y0026900D01*
X0015700Y0029477D01*
X0015700Y0029600D01*
X0021903Y0029600D01*
X0021792Y0029489D01*
X0020393Y0029489D01*
X0019111Y0028207D01*
X0019111Y0026393D01*
X0020393Y0025111D01*
X0022207Y0025111D01*
X0023489Y0026393D01*
X0023489Y0027792D01*
X0024097Y0028400D01*
X0029393Y0028400D01*
X0029111Y0028118D01*
X0029111Y0026304D01*
X0030393Y0025022D01*
X0032207Y0025022D01*
X0033489Y0026304D01*
X0033489Y0027200D01*
X0039393Y0027200D01*
X0039111Y0026918D01*
X0039111Y0025104D01*
X0040393Y0023822D01*
X0042207Y0023822D01*
X0043489Y0025104D01*
X0043489Y0026000D01*
X0044394Y0026000D01*
X0045097Y0026703D01*
X0049205Y0030811D01*
X0069393Y0030811D01*
X0069111Y0030529D01*
X0069111Y0028715D01*
X0070393Y0027433D01*
X0072207Y0027433D01*
X0073489Y0028715D01*
X0073489Y0029611D01*
X0079393Y0029611D01*
X0079111Y0029329D01*
X0079111Y0027515D01*
X0080393Y0026233D01*
X0082207Y0026233D01*
X0083196Y0027222D01*
X0099626Y0027222D01*
X0099111Y0026707D01*
X0099111Y0024893D01*
X0099504Y0024500D01*
X0048196Y0024500D01*
X0047207Y0025489D01*
X0045393Y0025489D01*
X0044111Y0024207D01*
X0044111Y0022393D01*
X0045393Y0021111D01*
X0047207Y0021111D01*
X0048196Y0022100D01*
X0064504Y0022100D01*
X0064111Y0021707D01*
X0064111Y0019893D01*
X0065393Y0018611D01*
X0067207Y0018611D01*
X0068489Y0019893D01*
X0068489Y0020900D01*
X0124804Y0020900D01*
X0123904Y0020000D01*
X0116303Y0020000D01*
X0113652Y0017349D01*
X0113482Y0017519D01*
X0112066Y0018105D01*
X0110534Y0018105D01*
X0109118Y0017519D01*
X0108034Y0016435D01*
X0107447Y0015019D01*
X0107447Y0007581D01*
X0108034Y0006165D01*
X0109118Y0005081D01*
X0110534Y0004494D01*
X0112066Y0004494D01*
X0113482Y0005081D01*
X0114566Y0006165D01*
X0115153Y0007581D01*
X0115153Y0015019D01*
X0115025Y0015328D01*
X0117297Y0017600D01*
X0119313Y0017600D01*
X0119118Y0017519D01*
X0118034Y0016435D01*
X0117447Y0015019D01*
X0117447Y0007581D01*
X0118034Y0006165D01*
X0119118Y0005081D01*
X0120534Y0004494D01*
X0122066Y0004494D01*
X0123482Y0005081D01*
X0124566Y0006165D01*
X0125153Y0007581D01*
X0125153Y0015019D01*
X0124566Y0016435D01*
X0123482Y0017519D01*
X0123287Y0017600D01*
X0123904Y0017600D01*
X0124893Y0016611D01*
X0126707Y0016611D01*
X0127989Y0017893D01*
X0127989Y0019707D01*
X0126796Y0020900D01*
X0134294Y0020900D01*
X0136994Y0023600D01*
X0138904Y0023600D01*
X0139893Y0022611D01*
X0141707Y0022611D01*
X0142989Y0023893D01*
X0142989Y0024900D01*
X0179503Y0024900D01*
X0179914Y0024489D01*
X0178893Y0024489D01*
X0178404Y0024000D01*
X0144596Y0024000D01*
X0139600Y0019004D01*
X0139600Y0017719D01*
X0139118Y0017519D01*
X0138034Y0016435D01*
X0137447Y0015019D01*
X0137447Y0007581D01*
X0138034Y0006165D01*
X0139118Y0005081D01*
X0140534Y0004494D01*
X0142066Y0004494D01*
X0143482Y0005081D01*
X0144566Y0006165D01*
X0145153Y0007581D01*
X0145153Y0015019D01*
X0144566Y0016435D01*
X0143482Y0017519D01*
X0143087Y0017683D01*
X0146004Y0020600D01*
X0178404Y0020600D01*
X0178893Y0020111D01*
X0180707Y0020111D01*
X0181989Y0021393D01*
X0181989Y0022414D01*
X0184303Y0020100D01*
X0188504Y0020100D01*
X0188404Y0020000D01*
X0155303Y0020000D01*
X0153015Y0017712D01*
X0152066Y0018105D01*
X0150534Y0018105D01*
X0149118Y0017519D01*
X0148034Y0016435D01*
X0147447Y0015019D01*
X0147447Y0007581D01*
X0148034Y0006165D01*
X0149118Y0005081D01*
X0150534Y0004494D01*
X0152066Y0004494D01*
X0153482Y0005081D01*
X0154566Y0006165D01*
X0155153Y0007581D01*
X0155153Y0015019D01*
X0154732Y0016035D01*
X0156297Y0017600D01*
X0159313Y0017600D01*
X0159118Y0017519D01*
X0158034Y0016435D01*
X0157447Y0015019D01*
X0157447Y0007581D01*
X0158034Y0006165D01*
X0159118Y0005081D01*
X0160534Y0004494D01*
X0162066Y0004494D01*
X0163482Y0005081D01*
X0164566Y0006165D01*
X0165153Y0007581D01*
X0165153Y0009600D01*
X0222404Y0009600D01*
X0222893Y0009111D01*
X0224707Y0009111D01*
X0225989Y0010393D01*
X0225989Y0012207D01*
X0224707Y0013489D01*
X0222893Y0013489D01*
X0222404Y0013000D01*
X0165153Y0013000D01*
X0165153Y0015019D01*
X0164566Y0016435D01*
X0163482Y0017519D01*
X0163287Y0017600D01*
X0188404Y0017600D01*
X0189393Y0016611D01*
X0191207Y0016611D01*
X0192489Y0017893D01*
X0192489Y0019515D01*
X0192893Y0019111D01*
X0194707Y0019111D01*
X0195989Y0020393D01*
X0195989Y0022207D01*
X0194707Y0023489D01*
X0192893Y0023489D01*
X0191904Y0022500D01*
X0185297Y0022500D01*
X0183775Y0024022D01*
X0185207Y0024022D01*
X0186489Y0025304D01*
X0186489Y0027118D01*
X0186207Y0027400D01*
X0217936Y0027400D01*
X0253757Y0063220D01*
X0254111Y0063220D01*
X0254111Y0062325D01*
X0255393Y0061043D01*
X0257207Y0061043D01*
X0258489Y0062325D01*
X0258489Y0064138D01*
X0257607Y0065020D01*
X0258489Y0065903D01*
X0258489Y0067716D01*
X0257872Y0068333D02*
X0280921Y0068333D01*
X0280921Y0068932D02*
X0257273Y0068932D01*
X0255327Y0068932D02*
X0175256Y0068932D01*
X0175561Y0069530D02*
X0280921Y0069530D01*
X0280921Y0070129D02*
X0223224Y0070129D01*
X0222707Y0069611D02*
X0223989Y0070893D01*
X0223989Y0072707D01*
X0222707Y0073989D01*
X0220893Y0073989D01*
X0219904Y0073000D01*
X0192196Y0073000D01*
X0191207Y0073989D01*
X0189393Y0073989D01*
X0188111Y0072707D01*
X0188111Y0070893D01*
X0189393Y0069611D01*
X0191207Y0069611D01*
X0192196Y0070600D01*
X0219904Y0070600D01*
X0220893Y0069611D01*
X0222707Y0069611D01*
X0223823Y0070727D02*
X0264535Y0070727D01*
X0264217Y0070859D02*
X0265568Y0070299D01*
X0267032Y0070299D01*
X0268383Y0070859D01*
X0269418Y0071894D01*
X0269978Y0073246D01*
X0269978Y0074252D01*
X0273480Y0074252D01*
X0273480Y0076402D01*
X0274080Y0076402D01*
X0274080Y0074252D01*
X0278873Y0074252D01*
X0279203Y0074341D01*
X0279500Y0074512D01*
X0279742Y0074754D01*
X0279913Y0075050D01*
X0280002Y0075381D01*
X0280002Y0080173D01*
X0278695Y0080173D01*
X0278657Y0080473D01*
X0278695Y0080773D01*
X0280002Y0080773D01*
X0280002Y0085566D01*
X0279913Y0085896D01*
X0279742Y0086193D01*
X0279500Y0086435D01*
X0279203Y0086606D01*
X0278873Y0086694D01*
X0274080Y0086694D01*
X0274080Y0084545D01*
X0273480Y0084545D01*
X0273480Y0086694D01*
X0268688Y0086694D01*
X0268357Y0086606D01*
X0268061Y0086435D01*
X0267819Y0086193D01*
X0267648Y0085896D01*
X0267559Y0085566D01*
X0267559Y0080773D01*
X0268866Y0080773D01*
X0268903Y0080473D01*
X0268866Y0080173D01*
X0267559Y0080173D01*
X0267559Y0077437D01*
X0267032Y0077655D01*
X0266043Y0077655D01*
X0266278Y0078224D01*
X0266419Y0078931D01*
X0266419Y0078992D01*
X0263057Y0078992D01*
X0263057Y0079592D01*
X0266419Y0079592D01*
X0266419Y0084377D01*
X0266278Y0085085D01*
X0266002Y0085751D01*
X0265601Y0086351D01*
X0265091Y0086861D01*
X0264491Y0087262D01*
X0263825Y0087538D01*
X0263117Y0087679D01*
X0263057Y0087679D01*
X0263057Y0079592D01*
X0262457Y0079592D01*
X0262457Y0087679D01*
X0262396Y0087679D01*
X0261688Y0087538D01*
X0261022Y0087262D01*
X0260422Y0086861D01*
X0259912Y0086351D01*
X0259511Y0085751D01*
X0259235Y0085085D01*
X0259094Y0084377D01*
X0259094Y0079592D01*
X0262457Y0079592D01*
X0262457Y0078992D01*
X0263057Y0078992D01*
X0263057Y0075758D01*
X0262622Y0074709D01*
X0262622Y0073246D01*
X0263182Y0071894D01*
X0264217Y0070859D01*
X0263750Y0071326D02*
X0223989Y0071326D01*
X0223989Y0071924D02*
X0263169Y0071924D01*
X0262921Y0072523D02*
X0223989Y0072523D01*
X0223574Y0073121D02*
X0262673Y0073121D01*
X0262622Y0073720D02*
X0222976Y0073720D01*
X0221800Y0071800D02*
X0190300Y0071800D01*
X0188111Y0071924D02*
X0175858Y0071924D01*
X0175900Y0071662D02*
X0175787Y0072377D01*
X0175563Y0073066D01*
X0175234Y0073711D01*
X0174809Y0074297D01*
X0174297Y0074809D01*
X0173711Y0075234D01*
X0173066Y0075563D01*
X0172377Y0075787D01*
X0171662Y0075900D01*
X0171600Y0075900D01*
X0171600Y0071600D01*
X0175900Y0071600D01*
X0175900Y0071662D01*
X0175739Y0072523D02*
X0188111Y0072523D01*
X0188526Y0073121D02*
X0175535Y0073121D01*
X0175228Y0073720D02*
X0189124Y0073720D01*
X0191476Y0073720D02*
X0220624Y0073720D01*
X0220026Y0073121D02*
X0192074Y0073121D01*
X0188111Y0071326D02*
X0171600Y0071326D01*
X0171600Y0071924D02*
X0171000Y0071924D01*
X0171000Y0071326D02*
X0126421Y0071326D01*
X0126207Y0071111D02*
X0127489Y0072393D01*
X0127489Y0074207D01*
X0126207Y0075489D01*
X0124393Y0075489D01*
X0123404Y0074500D01*
X0099696Y0074500D01*
X0098707Y0075489D01*
X0096893Y0075489D01*
X0095611Y0074207D01*
X0095611Y0072393D01*
X0096893Y0071111D01*
X0098707Y0071111D01*
X0099696Y0072100D01*
X0123404Y0072100D01*
X0124393Y0071111D01*
X0126207Y0071111D01*
X0126176Y0070727D02*
X0166733Y0070727D01*
X0166844Y0070129D02*
X0126775Y0070129D01*
X0125008Y0068800D02*
X0091411Y0068800D01*
X0091300Y0068689D01*
X0092956Y0070129D02*
X0123241Y0070129D01*
X0123840Y0070727D02*
X0092357Y0070727D01*
X0090243Y0070727D02*
X0036989Y0070727D01*
X0036989Y0071207D02*
X0035707Y0072489D01*
X0033893Y0072489D01*
X0032611Y0071207D01*
X0032611Y0070515D01*
X0025096Y0063000D01*
X0015700Y0063000D01*
X0015700Y0063123D01*
X0013123Y0065700D01*
X0009477Y0065700D01*
X0006900Y0063123D01*
X0006900Y0059477D01*
X0009477Y0056900D01*
X0013123Y0056900D01*
X0015700Y0059477D01*
X0015700Y0059600D01*
X0026504Y0059600D01*
X0027500Y0060596D01*
X0035015Y0068111D01*
X0035707Y0068111D01*
X0036989Y0069393D01*
X0036989Y0071207D01*
X0036870Y0071326D02*
X0096678Y0071326D01*
X0096080Y0071924D02*
X0036271Y0071924D01*
X0033329Y0071924D02*
X0030828Y0071924D01*
X0030230Y0071326D02*
X0032730Y0071326D01*
X0032611Y0070727D02*
X0029631Y0070727D01*
X0029500Y0070596D02*
X0035015Y0076111D01*
X0035707Y0076111D01*
X0036989Y0077393D01*
X0036989Y0079207D01*
X0035707Y0080489D01*
X0033893Y0080489D01*
X0032611Y0079207D01*
X0032611Y0078515D01*
X0027096Y0073000D01*
X0015700Y0073000D01*
X0015700Y0073123D01*
X0013123Y0075700D01*
X0009477Y0075700D01*
X0006900Y0073123D01*
X0006900Y0069477D01*
X0009477Y0066900D01*
X0013123Y0066900D01*
X0015700Y0069477D01*
X0015700Y0069600D01*
X0028504Y0069600D01*
X0029500Y0070596D01*
X0029033Y0070129D02*
X0032225Y0070129D01*
X0031626Y0069530D02*
X0015700Y0069530D01*
X0015154Y0068932D02*
X0031028Y0068932D01*
X0030429Y0068333D02*
X0014556Y0068333D01*
X0013957Y0067735D02*
X0029831Y0067735D01*
X0029232Y0067136D02*
X0013359Y0067136D01*
X0013482Y0065341D02*
X0027437Y0065341D01*
X0028035Y0065939D02*
X0003600Y0065939D01*
X0003600Y0065341D02*
X0009118Y0065341D01*
X0008520Y0064742D02*
X0003600Y0064742D01*
X0003600Y0064144D02*
X0007921Y0064144D01*
X0007323Y0063545D02*
X0003600Y0063545D01*
X0003600Y0062947D02*
X0006900Y0062947D01*
X0006900Y0062348D02*
X0003600Y0062348D01*
X0003600Y0061750D02*
X0006900Y0061750D01*
X0006900Y0061151D02*
X0003600Y0061151D01*
X0003600Y0060553D02*
X0006900Y0060553D01*
X0006900Y0059954D02*
X0003600Y0059954D01*
X0003600Y0059356D02*
X0007022Y0059356D01*
X0007620Y0058757D02*
X0003600Y0058757D01*
X0003600Y0058159D02*
X0008219Y0058159D01*
X0008817Y0057560D02*
X0003600Y0057560D01*
X0003600Y0056962D02*
X0009416Y0056962D01*
X0008943Y0055166D02*
X0003600Y0055166D01*
X0003600Y0054568D02*
X0008345Y0054568D01*
X0007746Y0053969D02*
X0003600Y0053969D01*
X0003600Y0053370D02*
X0007148Y0053370D01*
X0006900Y0052772D02*
X0003600Y0052772D01*
X0003600Y0052173D02*
X0006900Y0052173D01*
X0006900Y0051575D02*
X0003600Y0051575D01*
X0003600Y0050976D02*
X0006900Y0050976D01*
X0006900Y0050378D02*
X0003600Y0050378D01*
X0003600Y0049779D02*
X0006900Y0049779D01*
X0007197Y0049181D02*
X0003600Y0049181D01*
X0003600Y0048582D02*
X0007795Y0048582D01*
X0008394Y0047984D02*
X0003600Y0047984D01*
X0003600Y0047385D02*
X0008992Y0047385D01*
X0009367Y0045590D02*
X0003600Y0045590D01*
X0003600Y0046188D02*
X0022611Y0046188D01*
X0022611Y0045893D02*
X0023893Y0044611D01*
X0025707Y0044611D01*
X0026196Y0045100D01*
X0033404Y0045100D01*
X0033893Y0044611D01*
X0035707Y0044611D01*
X0036989Y0045893D01*
X0036989Y0047707D01*
X0035707Y0048989D01*
X0033893Y0048989D01*
X0033404Y0048500D01*
X0026196Y0048500D01*
X0025707Y0048989D01*
X0023893Y0048989D01*
X0022611Y0047707D01*
X0022611Y0045893D01*
X0022914Y0045590D02*
X0013233Y0045590D01*
X0013831Y0044991D02*
X0023513Y0044991D01*
X0026087Y0044991D02*
X0033513Y0044991D01*
X0036087Y0044991D02*
X0043587Y0044991D01*
X0044186Y0045590D02*
X0036686Y0045590D01*
X0036989Y0046188D02*
X0044784Y0046188D01*
X0045383Y0046787D02*
X0036989Y0046787D01*
X0036989Y0047385D02*
X0045981Y0047385D01*
X0046100Y0047504D02*
X0046100Y0047504D01*
X0046580Y0047984D02*
X0036712Y0047984D01*
X0036113Y0048582D02*
X0050678Y0048582D01*
X0050585Y0049181D02*
X0051277Y0049181D01*
X0051184Y0049779D02*
X0051875Y0049779D01*
X0051782Y0050378D02*
X0052474Y0050378D01*
X0052381Y0050976D02*
X0053072Y0050976D01*
X0052979Y0051575D02*
X0053671Y0051575D01*
X0053578Y0052173D02*
X0054269Y0052173D01*
X0054176Y0052772D02*
X0054868Y0052772D01*
X0054775Y0053370D02*
X0055466Y0053370D01*
X0055596Y0057000D02*
X0056196Y0057600D01*
X0092803Y0057600D01*
X0095611Y0054792D01*
X0095611Y0053393D01*
X0096893Y0052111D01*
X0098707Y0052111D01*
X0099696Y0053100D01*
X0106303Y0053100D01*
X0107903Y0051500D01*
X0096696Y0051500D01*
X0095707Y0052489D01*
X0093893Y0052489D01*
X0092611Y0051207D01*
X0092611Y0049393D01*
X0093600Y0048404D01*
X0093600Y0046797D01*
X0091803Y0045000D01*
X0065085Y0045000D01*
X0064096Y0045989D01*
X0062282Y0045989D01*
X0061000Y0044707D01*
X0061000Y0042893D01*
X0062282Y0041611D01*
X0064096Y0041611D01*
X0065085Y0042600D01*
X0092797Y0042600D01*
X0093500Y0043303D01*
X0096000Y0045803D01*
X0096000Y0048404D01*
X0096696Y0049100D01*
X0107303Y0049100D01*
X0108403Y0048000D01*
X0100196Y0048000D01*
X0099207Y0048989D01*
X0097393Y0048989D01*
X0096111Y0047707D01*
X0096111Y0045893D01*
X0097100Y0044904D01*
X0097100Y0043297D01*
X0094803Y0041000D01*
X0062696Y0041000D01*
X0061707Y0041989D01*
X0059893Y0041989D01*
X0058611Y0040707D01*
X0058611Y0038893D01*
X0059893Y0037611D01*
X0061707Y0037611D01*
X0062696Y0038600D01*
X0068004Y0038600D01*
X0067111Y0037707D01*
X0067111Y0035893D01*
X0067393Y0035611D01*
X0048015Y0035611D01*
X0059004Y0046600D01*
X0083404Y0046600D01*
X0083893Y0046111D01*
X0085707Y0046111D01*
X0086989Y0047393D01*
X0086989Y0049207D01*
X0085707Y0050489D01*
X0083893Y0050489D01*
X0083404Y0050000D01*
X0082596Y0050000D01*
X0083489Y0050893D01*
X0083489Y0052707D01*
X0082207Y0053989D01*
X0080393Y0053989D01*
X0079904Y0053500D01*
X0079096Y0053500D01*
X0079989Y0054393D01*
X0079989Y0056207D01*
X0078707Y0057489D01*
X0076893Y0057489D01*
X0076404Y0057000D01*
X0055596Y0057000D01*
X0056156Y0057560D02*
X0092843Y0057560D01*
X0093441Y0056962D02*
X0079234Y0056962D01*
X0079833Y0056363D02*
X0094040Y0056363D01*
X0094638Y0055765D02*
X0079989Y0055765D01*
X0079989Y0055166D02*
X0095237Y0055166D01*
X0095611Y0054568D02*
X0079989Y0054568D01*
X0080373Y0053969D02*
X0079565Y0053969D01*
X0082227Y0053969D02*
X0095611Y0053969D01*
X0095634Y0053370D02*
X0082825Y0053370D01*
X0083424Y0052772D02*
X0096232Y0052772D01*
X0096022Y0052173D02*
X0096831Y0052173D01*
X0096621Y0051575D02*
X0107828Y0051575D01*
X0107229Y0052173D02*
X0098769Y0052173D01*
X0099368Y0052772D02*
X0106631Y0052772D01*
X0106800Y0054300D02*
X0097800Y0054300D01*
X0093300Y0058800D01*
X0054300Y0058800D01*
X0052111Y0058757D02*
X0036989Y0058757D01*
X0036989Y0058159D02*
X0049063Y0058159D01*
X0051537Y0058159D02*
X0052111Y0058159D01*
X0052136Y0057560D02*
X0052444Y0057560D01*
X0052489Y0056962D02*
X0053043Y0056962D01*
X0052959Y0056363D02*
X0052489Y0056363D01*
X0052111Y0059356D02*
X0037553Y0059356D01*
X0038151Y0059954D02*
X0052358Y0059954D01*
X0052957Y0060553D02*
X0038750Y0060553D01*
X0038800Y0062300D02*
X0147800Y0062300D01*
X0150800Y0065300D01*
X0152989Y0065341D02*
X0163062Y0065341D01*
X0162464Y0065939D02*
X0152989Y0065939D01*
X0152658Y0066538D02*
X0161865Y0066538D01*
X0161267Y0067136D02*
X0152059Y0067136D01*
X0149541Y0067136D02*
X0126440Y0067136D01*
X0125008Y0068800D02*
X0161300Y0068800D01*
X0163800Y0066300D01*
X0201800Y0066300D01*
X0203461Y0067735D02*
X0254130Y0067735D01*
X0254111Y0067136D02*
X0203989Y0067136D01*
X0203989Y0066538D02*
X0251983Y0066538D01*
X0251384Y0065939D02*
X0245708Y0065939D01*
X0245659Y0065989D02*
X0243845Y0065989D01*
X0242563Y0064707D01*
X0242563Y0064015D01*
X0236048Y0057500D01*
X0221196Y0057500D01*
X0220707Y0057989D01*
X0218893Y0057989D01*
X0218404Y0057500D01*
X0183096Y0057500D01*
X0183085Y0057489D01*
X0182393Y0057489D01*
X0181111Y0056207D01*
X0181111Y0054393D01*
X0182393Y0053111D01*
X0184207Y0053111D01*
X0185196Y0054100D01*
X0218404Y0054100D01*
X0218893Y0053611D01*
X0220707Y0053611D01*
X0221196Y0054100D01*
X0237456Y0054100D01*
X0238452Y0055096D01*
X0244967Y0061611D01*
X0245659Y0061611D01*
X0246941Y0062893D01*
X0246941Y0064707D01*
X0245659Y0065989D01*
X0246307Y0065341D02*
X0250786Y0065341D01*
X0250187Y0064742D02*
X0246905Y0064742D01*
X0246941Y0064144D02*
X0249589Y0064144D01*
X0248990Y0063545D02*
X0246941Y0063545D01*
X0246941Y0062947D02*
X0248392Y0062947D01*
X0247793Y0062348D02*
X0246396Y0062348D01*
X0245797Y0061750D02*
X0247195Y0061750D01*
X0246596Y0061151D02*
X0244507Y0061151D01*
X0243909Y0060553D02*
X0245998Y0060553D01*
X0245399Y0059954D02*
X0243310Y0059954D01*
X0242712Y0059356D02*
X0244801Y0059356D01*
X0244202Y0058757D02*
X0242113Y0058757D01*
X0241515Y0058159D02*
X0243604Y0058159D01*
X0243005Y0057560D02*
X0240916Y0057560D01*
X0240318Y0056962D02*
X0242407Y0056962D01*
X0241808Y0056363D02*
X0239719Y0056363D01*
X0239121Y0055765D02*
X0241210Y0055765D01*
X0240611Y0055166D02*
X0238522Y0055166D01*
X0237924Y0054568D02*
X0240012Y0054568D01*
X0239414Y0053969D02*
X0221065Y0053969D01*
X0218535Y0053969D02*
X0185065Y0053969D01*
X0184466Y0053370D02*
X0238815Y0053370D01*
X0238217Y0052772D02*
X0175236Y0052772D01*
X0174988Y0053370D02*
X0182134Y0053370D01*
X0181535Y0053969D02*
X0174571Y0053969D01*
X0173972Y0054568D02*
X0181111Y0054568D01*
X0181111Y0055166D02*
X0172942Y0055166D01*
X0169658Y0055166D02*
X0161631Y0055166D01*
X0162230Y0054568D02*
X0168628Y0054568D01*
X0168029Y0053969D02*
X0162828Y0053969D01*
X0163427Y0053370D02*
X0167612Y0053370D01*
X0167364Y0052772D02*
X0164025Y0052772D01*
X0163800Y0051300D02*
X0158300Y0056800D01*
X0158050Y0056550D01*
X0156563Y0058159D02*
X0156489Y0058159D01*
X0156489Y0058757D02*
X0167903Y0058757D01*
X0167559Y0059356D02*
X0157053Y0059356D01*
X0157651Y0059954D02*
X0167311Y0059954D01*
X0171300Y0061300D02*
X0157300Y0061300D01*
X0154300Y0058300D01*
X0152111Y0058159D02*
X0095638Y0058159D01*
X0095040Y0058757D02*
X0152111Y0058757D01*
X0152260Y0059356D02*
X0094441Y0059356D01*
X0093843Y0059954D02*
X0152858Y0059954D01*
X0154856Y0060553D02*
X0055643Y0060553D01*
X0051838Y0064742D02*
X0118041Y0064742D01*
X0118041Y0064144D02*
X0051239Y0064144D01*
X0049361Y0064144D02*
X0031048Y0064144D01*
X0031646Y0064742D02*
X0048762Y0064742D01*
X0048164Y0065341D02*
X0032245Y0065341D01*
X0032843Y0065939D02*
X0048111Y0065939D01*
X0048111Y0066538D02*
X0033442Y0066538D01*
X0034040Y0067136D02*
X0048111Y0067136D01*
X0048639Y0067735D02*
X0034639Y0067735D01*
X0035929Y0068333D02*
X0049238Y0068333D01*
X0051362Y0068333D02*
X0089111Y0068333D01*
X0089111Y0068932D02*
X0036527Y0068932D01*
X0036989Y0069530D02*
X0089111Y0069530D01*
X0089644Y0070129D02*
X0036989Y0070129D01*
X0031427Y0072523D02*
X0095611Y0072523D01*
X0095611Y0073121D02*
X0032026Y0073121D01*
X0032624Y0073720D02*
X0095611Y0073720D01*
X0095723Y0074318D02*
X0033223Y0074318D01*
X0033821Y0074917D02*
X0096321Y0074917D01*
X0097393Y0076111D02*
X0099207Y0076111D01*
X0100196Y0077100D01*
X0117611Y0077100D01*
X0117611Y0076893D01*
X0118893Y0075611D01*
X0120707Y0075611D01*
X0121989Y0076893D01*
X0121989Y0078707D01*
X0120707Y0079989D01*
X0119378Y0079989D01*
X0119378Y0081707D01*
X0118096Y0082989D01*
X0116585Y0082989D01*
X0117489Y0083893D01*
X0117489Y0085707D01*
X0116207Y0086989D01*
X0114393Y0086989D01*
X0113404Y0086000D01*
X0100489Y0086000D01*
X0100489Y0086707D01*
X0099207Y0087989D01*
X0097393Y0087989D01*
X0096111Y0086707D01*
X0096111Y0084893D01*
X0096393Y0084611D01*
X0067363Y0084611D01*
X0066485Y0085489D01*
X0064671Y0085489D01*
X0063389Y0084207D01*
X0063389Y0082393D01*
X0063782Y0082000D01*
X0059489Y0082000D01*
X0059489Y0082707D01*
X0058207Y0083989D01*
X0056393Y0083989D01*
X0055111Y0082707D01*
X0055111Y0080893D01*
X0056393Y0079611D01*
X0057792Y0079611D01*
X0057803Y0079600D01*
X0096504Y0079600D01*
X0096111Y0079207D01*
X0096111Y0077393D01*
X0097393Y0076111D01*
X0097390Y0076114D02*
X0035710Y0076114D01*
X0036308Y0076712D02*
X0096792Y0076712D01*
X0096193Y0077311D02*
X0036907Y0077311D01*
X0036989Y0077909D02*
X0096111Y0077909D01*
X0096111Y0078508D02*
X0036989Y0078508D01*
X0036989Y0079106D02*
X0096111Y0079106D01*
X0098300Y0078300D02*
X0119300Y0078300D01*
X0119800Y0077800D01*
X0121989Y0077909D02*
X0259365Y0077909D01*
X0259235Y0078224D02*
X0259511Y0077557D01*
X0259912Y0076958D01*
X0260422Y0076448D01*
X0261022Y0076047D01*
X0261688Y0075771D01*
X0262396Y0075630D01*
X0262457Y0075630D01*
X0262457Y0078992D01*
X0259094Y0078992D01*
X0259094Y0078931D01*
X0259235Y0078224D01*
X0259179Y0078508D02*
X0121989Y0078508D01*
X0121589Y0079106D02*
X0262457Y0079106D01*
X0262457Y0078508D02*
X0263057Y0078508D01*
X0263057Y0079106D02*
X0267559Y0079106D01*
X0267559Y0078508D02*
X0266335Y0078508D01*
X0266148Y0077909D02*
X0267559Y0077909D01*
X0267559Y0079705D02*
X0266419Y0079705D01*
X0266419Y0080303D02*
X0268882Y0080303D01*
X0267559Y0080902D02*
X0266419Y0080902D01*
X0266419Y0081501D02*
X0267559Y0081501D01*
X0267559Y0082099D02*
X0266419Y0082099D01*
X0266419Y0082698D02*
X0267559Y0082698D01*
X0267559Y0083296D02*
X0266419Y0083296D01*
X0266419Y0083895D02*
X0267559Y0083895D01*
X0267559Y0084493D02*
X0266396Y0084493D01*
X0266275Y0085092D02*
X0267559Y0085092D01*
X0267592Y0085690D02*
X0266027Y0085690D01*
X0265643Y0086289D02*
X0267915Y0086289D01*
X0265052Y0086887D02*
X0280921Y0086887D01*
X0280921Y0086289D02*
X0279646Y0086289D01*
X0279968Y0085690D02*
X0280921Y0085690D01*
X0280921Y0085092D02*
X0280002Y0085092D01*
X0280002Y0084493D02*
X0280921Y0084493D01*
X0280921Y0083895D02*
X0280002Y0083895D01*
X0280002Y0083296D02*
X0280921Y0083296D01*
X0280921Y0082698D02*
X0280002Y0082698D01*
X0280002Y0082099D02*
X0280921Y0082099D01*
X0280921Y0081501D02*
X0280002Y0081501D01*
X0280002Y0080902D02*
X0280921Y0080902D01*
X0280921Y0080303D02*
X0278678Y0080303D01*
X0280002Y0079705D02*
X0280921Y0079705D01*
X0280921Y0079106D02*
X0280002Y0079106D01*
X0280002Y0078508D02*
X0280921Y0078508D01*
X0280921Y0077909D02*
X0280002Y0077909D01*
X0280002Y0077311D02*
X0280921Y0077311D01*
X0280921Y0076712D02*
X0280002Y0076712D01*
X0280002Y0076114D02*
X0280921Y0076114D01*
X0280921Y0075515D02*
X0280002Y0075515D01*
X0279836Y0074917D02*
X0280921Y0074917D01*
X0280921Y0074318D02*
X0279121Y0074318D01*
X0280921Y0073720D02*
X0269978Y0073720D01*
X0269926Y0073121D02*
X0280921Y0073121D01*
X0280921Y0072523D02*
X0269679Y0072523D01*
X0269431Y0071924D02*
X0280921Y0071924D01*
X0280921Y0071326D02*
X0268850Y0071326D01*
X0268065Y0070727D02*
X0280921Y0070727D01*
X0274080Y0074318D02*
X0273480Y0074318D01*
X0273480Y0074917D02*
X0274080Y0074917D01*
X0274080Y0075515D02*
X0273480Y0075515D01*
X0273480Y0076114D02*
X0274080Y0076114D01*
X0263057Y0076114D02*
X0262457Y0076114D01*
X0262457Y0076712D02*
X0263057Y0076712D01*
X0263057Y0077311D02*
X0262457Y0077311D01*
X0262457Y0077909D02*
X0263057Y0077909D01*
X0260921Y0076114D02*
X0121210Y0076114D01*
X0121808Y0076712D02*
X0260157Y0076712D01*
X0259676Y0077311D02*
X0121989Y0077311D01*
X0118390Y0076114D02*
X0099210Y0076114D01*
X0099808Y0076712D02*
X0117792Y0076712D01*
X0123821Y0074917D02*
X0099279Y0074917D01*
X0097800Y0073300D02*
X0125300Y0073300D01*
X0126779Y0074917D02*
X0168452Y0074917D01*
X0167813Y0074318D02*
X0127377Y0074318D01*
X0127489Y0073720D02*
X0167372Y0073720D01*
X0167065Y0073121D02*
X0127489Y0073121D01*
X0127489Y0072523D02*
X0166861Y0072523D01*
X0166742Y0071924D02*
X0127020Y0071924D01*
X0124178Y0071326D02*
X0098921Y0071326D01*
X0099520Y0071924D02*
X0123580Y0071924D01*
X0123576Y0067136D02*
X0119591Y0067136D01*
X0118730Y0066300D02*
X0050300Y0066300D01*
X0051961Y0067735D02*
X0089159Y0067735D01*
X0096237Y0057560D02*
X0152111Y0057560D01*
X0152543Y0056962D02*
X0096835Y0056962D01*
X0098833Y0056363D02*
X0153141Y0056363D01*
X0155459Y0056363D02*
X0155861Y0056363D01*
X0155861Y0055765D02*
X0099431Y0055765D01*
X0093578Y0052173D02*
X0083489Y0052173D01*
X0083489Y0051575D02*
X0092979Y0051575D01*
X0092611Y0050976D02*
X0083489Y0050976D01*
X0083782Y0050378D02*
X0082974Y0050378D01*
X0085818Y0050378D02*
X0092611Y0050378D01*
X0092611Y0049779D02*
X0086416Y0049779D01*
X0086989Y0049181D02*
X0092823Y0049181D01*
X0093422Y0048582D02*
X0086989Y0048582D01*
X0086989Y0047984D02*
X0093600Y0047984D01*
X0093600Y0047385D02*
X0086981Y0047385D01*
X0086383Y0046787D02*
X0093590Y0046787D01*
X0092991Y0046188D02*
X0085784Y0046188D01*
X0083816Y0046188D02*
X0058592Y0046188D01*
X0057994Y0045590D02*
X0061883Y0045590D01*
X0061285Y0044991D02*
X0057395Y0044991D01*
X0056797Y0044393D02*
X0061000Y0044393D01*
X0061000Y0043794D02*
X0056198Y0043794D01*
X0055600Y0043196D02*
X0061000Y0043196D01*
X0061296Y0042597D02*
X0055001Y0042597D01*
X0054403Y0041999D02*
X0061895Y0041999D01*
X0062295Y0041400D02*
X0095203Y0041400D01*
X0095802Y0041999D02*
X0064483Y0041999D01*
X0065082Y0042597D02*
X0096400Y0042597D01*
X0096999Y0043196D02*
X0093393Y0043196D01*
X0093991Y0043794D02*
X0097100Y0043794D01*
X0097100Y0044393D02*
X0094590Y0044393D01*
X0095188Y0044991D02*
X0097013Y0044991D01*
X0096414Y0045590D02*
X0095787Y0045590D01*
X0096000Y0046188D02*
X0096111Y0046188D01*
X0096111Y0046787D02*
X0096000Y0046787D01*
X0096000Y0047385D02*
X0096111Y0047385D01*
X0096000Y0047984D02*
X0096388Y0047984D01*
X0096178Y0048582D02*
X0096987Y0048582D01*
X0098300Y0046800D02*
X0098300Y0042800D01*
X0095300Y0039800D01*
X0060800Y0039800D01*
X0059305Y0041400D02*
X0053804Y0041400D01*
X0053206Y0040802D02*
X0058706Y0040802D01*
X0058611Y0040203D02*
X0052607Y0040203D01*
X0052009Y0039605D02*
X0058611Y0039605D01*
X0058611Y0039006D02*
X0051410Y0039006D01*
X0050812Y0038408D02*
X0059097Y0038408D01*
X0059695Y0037809D02*
X0050213Y0037809D01*
X0049615Y0037211D02*
X0067111Y0037211D01*
X0067111Y0036612D02*
X0049016Y0036612D01*
X0048418Y0036014D02*
X0067111Y0036014D01*
X0067214Y0037809D02*
X0061905Y0037809D01*
X0062503Y0038408D02*
X0067812Y0038408D01*
X0069300Y0036800D02*
X0094800Y0036800D01*
X0099300Y0041300D01*
X0115300Y0041300D01*
X0113421Y0039800D02*
X0099497Y0039800D01*
X0095297Y0035600D01*
X0071479Y0035600D01*
X0070290Y0034411D01*
X0047411Y0034411D01*
X0042600Y0029600D01*
X0023600Y0029600D01*
X0021300Y0027300D01*
X0019736Y0028832D02*
X0015054Y0028832D01*
X0015653Y0029430D02*
X0020334Y0029430D01*
X0019137Y0028233D02*
X0014456Y0028233D01*
X0013857Y0027634D02*
X0019111Y0027634D01*
X0019111Y0027036D02*
X0013259Y0027036D01*
X0009341Y0027036D02*
X0003600Y0027036D01*
X0003600Y0027634D02*
X0008743Y0027634D01*
X0008144Y0028233D02*
X0003600Y0028233D01*
X0003600Y0028832D02*
X0007546Y0028832D01*
X0006947Y0029430D02*
X0003600Y0029430D01*
X0003600Y0030029D02*
X0006900Y0030029D01*
X0006900Y0030627D02*
X0003600Y0030627D01*
X0003600Y0031226D02*
X0006900Y0031226D01*
X0006900Y0031824D02*
X0003600Y0031824D01*
X0003600Y0032423D02*
X0006900Y0032423D01*
X0006900Y0033021D02*
X0003600Y0033021D01*
X0003600Y0033620D02*
X0007397Y0033620D01*
X0007996Y0034218D02*
X0003600Y0034218D01*
X0003600Y0034817D02*
X0008594Y0034817D01*
X0009193Y0035415D02*
X0003600Y0035415D01*
X0003600Y0036014D02*
X0043609Y0036014D01*
X0043011Y0035415D02*
X0013407Y0035415D01*
X0014006Y0034817D02*
X0042412Y0034817D01*
X0041814Y0034218D02*
X0014604Y0034218D01*
X0015203Y0033620D02*
X0041215Y0033620D01*
X0040617Y0033021D02*
X0015700Y0033021D01*
X0020392Y0036612D02*
X0003600Y0036612D01*
X0003600Y0037211D02*
X0009167Y0037211D01*
X0008568Y0037809D02*
X0003600Y0037809D01*
X0003600Y0038408D02*
X0007970Y0038408D01*
X0007371Y0039006D02*
X0003600Y0039006D01*
X0003600Y0039605D02*
X0006900Y0039605D01*
X0006900Y0040203D02*
X0003600Y0040203D01*
X0003600Y0040802D02*
X0006900Y0040802D01*
X0006900Y0041400D02*
X0003600Y0041400D01*
X0003600Y0041999D02*
X0006900Y0041999D01*
X0006900Y0042597D02*
X0003600Y0042597D01*
X0003600Y0043196D02*
X0006973Y0043196D01*
X0007572Y0043794D02*
X0003600Y0043794D01*
X0003600Y0044393D02*
X0008170Y0044393D01*
X0008769Y0044991D02*
X0003600Y0044991D01*
X0003600Y0046787D02*
X0022611Y0046787D01*
X0022611Y0047385D02*
X0013608Y0047385D01*
X0014206Y0047984D02*
X0022888Y0047984D01*
X0023487Y0048582D02*
X0014805Y0048582D01*
X0015403Y0049181D02*
X0028015Y0049181D01*
X0026113Y0048582D02*
X0033487Y0048582D01*
X0033232Y0052772D02*
X0029232Y0052772D01*
X0032634Y0053370D02*
X0015452Y0053370D01*
X0014854Y0053969D02*
X0032611Y0053969D01*
X0032611Y0054568D02*
X0014255Y0054568D01*
X0013656Y0055166D02*
X0032611Y0055166D01*
X0033169Y0055765D02*
X0003600Y0055765D01*
X0003600Y0056363D02*
X0033641Y0056363D01*
X0033043Y0056962D02*
X0013184Y0056962D01*
X0013783Y0057560D02*
X0032611Y0057560D01*
X0032611Y0058159D02*
X0014381Y0058159D01*
X0014980Y0058757D02*
X0032611Y0058757D01*
X0032760Y0059356D02*
X0015578Y0059356D01*
X0015277Y0063545D02*
X0025641Y0063545D01*
X0026240Y0064144D02*
X0014679Y0064144D01*
X0014080Y0064742D02*
X0026838Y0064742D01*
X0029252Y0062348D02*
X0037151Y0062348D01*
X0037600Y0062797D02*
X0037600Y0062797D01*
X0037750Y0062947D02*
X0029851Y0062947D01*
X0030449Y0063545D02*
X0118389Y0063545D01*
X0120230Y0064800D02*
X0118730Y0066300D01*
X0121588Y0066538D02*
X0148942Y0066538D01*
X0148611Y0065939D02*
X0122186Y0065939D01*
X0122419Y0065341D02*
X0148611Y0065341D01*
X0148545Y0064742D02*
X0122419Y0064742D01*
X0122419Y0064144D02*
X0147947Y0064144D01*
X0147348Y0063545D02*
X0122071Y0063545D01*
X0108230Y0054568D02*
X0156937Y0054568D01*
X0156338Y0055166D02*
X0107631Y0055166D01*
X0106800Y0054300D02*
X0109236Y0051864D01*
X0118804Y0051864D01*
X0120393Y0053370D02*
X0160032Y0053370D01*
X0160631Y0052772D02*
X0155924Y0052772D01*
X0156522Y0052173D02*
X0161229Y0052173D01*
X0160722Y0051575D02*
X0161828Y0051575D01*
X0161321Y0050976D02*
X0162427Y0050976D01*
X0161919Y0050378D02*
X0163025Y0050378D01*
X0163916Y0049779D02*
X0167384Y0049779D01*
X0167632Y0049181D02*
X0164515Y0049181D01*
X0164989Y0048582D02*
X0168078Y0048582D01*
X0168676Y0047984D02*
X0164989Y0047984D01*
X0164989Y0047385D02*
X0169776Y0047385D01*
X0172824Y0047385D02*
X0227290Y0047385D01*
X0226691Y0046787D02*
X0164883Y0046787D01*
X0164284Y0046188D02*
X0175093Y0046188D01*
X0175800Y0044800D02*
X0159800Y0044800D01*
X0157378Y0047222D01*
X0154800Y0047222D01*
X0156263Y0045590D02*
X0157313Y0045590D01*
X0156881Y0046022D02*
X0158600Y0044303D01*
X0159303Y0043600D01*
X0174111Y0043600D01*
X0174111Y0043393D01*
X0175393Y0042111D01*
X0177207Y0042111D01*
X0178196Y0043100D01*
X0227797Y0043100D01*
X0227808Y0043111D01*
X0228556Y0043111D01*
X0216445Y0031000D01*
X0147992Y0031000D01*
X0146183Y0032808D01*
X0146183Y0034207D01*
X0144901Y0035489D01*
X0143088Y0035489D01*
X0142206Y0034607D01*
X0141323Y0035489D01*
X0139510Y0035489D01*
X0138228Y0034207D01*
X0138228Y0032393D01*
X0139510Y0031111D01*
X0140908Y0031111D01*
X0143020Y0029000D01*
X0139696Y0029000D01*
X0138707Y0029989D01*
X0136893Y0029989D01*
X0135611Y0028707D01*
X0135611Y0027308D01*
X0132803Y0024500D01*
X0131596Y0024500D01*
X0131989Y0024893D01*
X0131989Y0026707D01*
X0130707Y0027989D01*
X0128893Y0027989D01*
X0127904Y0027000D01*
X0122596Y0027000D01*
X0123489Y0027893D01*
X0123489Y0028100D01*
X0130904Y0028100D01*
X0131893Y0027111D01*
X0133707Y0027111D01*
X0134989Y0028393D01*
X0134989Y0030207D01*
X0134085Y0031111D01*
X0135345Y0031111D01*
X0136628Y0032393D01*
X0136628Y0034207D01*
X0135345Y0035489D01*
X0133532Y0035489D01*
X0132543Y0034500D01*
X0120157Y0034500D01*
X0116790Y0031133D01*
X0109936Y0031133D01*
X0108425Y0029622D01*
X0096107Y0029622D01*
X0098807Y0032322D01*
X0113904Y0032322D01*
X0114893Y0031333D01*
X0116707Y0031333D01*
X0117989Y0032615D01*
X0117989Y0034429D01*
X0117107Y0035311D01*
X0117781Y0035311D01*
X0118484Y0036014D01*
X0122014Y0039544D01*
X0146810Y0039544D01*
X0148111Y0038243D01*
X0148111Y0036844D01*
X0149393Y0035562D01*
X0151207Y0035562D01*
X0152489Y0036844D01*
X0152489Y0038658D01*
X0151207Y0039940D01*
X0149808Y0039940D01*
X0149004Y0040744D01*
X0152536Y0040744D01*
X0152722Y0040558D01*
X0152722Y0039159D01*
X0154004Y0037877D01*
X0155111Y0037877D01*
X0155111Y0036393D01*
X0156393Y0035111D01*
X0158207Y0035111D01*
X0158696Y0035600D01*
X0205404Y0035600D01*
X0205893Y0035111D01*
X0207707Y0035111D01*
X0208989Y0036393D01*
X0208989Y0038207D01*
X0207707Y0039489D01*
X0205893Y0039489D01*
X0205404Y0039000D01*
X0158696Y0039000D01*
X0158207Y0039489D01*
X0157100Y0039489D01*
X0157100Y0040973D01*
X0156218Y0041855D01*
X0157100Y0042737D01*
X0157100Y0044551D01*
X0156162Y0045489D01*
X0156696Y0046022D01*
X0156881Y0046022D01*
X0156659Y0044991D02*
X0157912Y0044991D01*
X0158510Y0044393D02*
X0157100Y0044393D01*
X0157100Y0043794D02*
X0159109Y0043794D01*
X0157100Y0043196D02*
X0174309Y0043196D01*
X0174907Y0042597D02*
X0156960Y0042597D01*
X0156361Y0041999D02*
X0227444Y0041999D01*
X0228042Y0042597D02*
X0177693Y0042597D01*
X0176300Y0044300D02*
X0227300Y0044300D01*
X0228300Y0045300D01*
X0229909Y0046787D02*
X0232232Y0046787D01*
X0232830Y0047385D02*
X0229310Y0047385D01*
X0230489Y0046188D02*
X0231633Y0046188D01*
X0231035Y0045590D02*
X0230489Y0045590D01*
X0234330Y0043794D02*
X0280921Y0043794D01*
X0280921Y0043196D02*
X0233732Y0043196D01*
X0233133Y0042597D02*
X0280921Y0042597D01*
X0280921Y0041999D02*
X0232535Y0041999D01*
X0231936Y0041400D02*
X0280921Y0041400D01*
X0280921Y0040802D02*
X0231338Y0040802D01*
X0230739Y0040203D02*
X0280921Y0040203D01*
X0280921Y0039605D02*
X0230141Y0039605D01*
X0229542Y0039006D02*
X0280921Y0039006D01*
X0280921Y0038408D02*
X0228944Y0038408D01*
X0228345Y0037809D02*
X0280921Y0037809D01*
X0280921Y0037211D02*
X0227747Y0037211D01*
X0227148Y0036612D02*
X0280921Y0036612D01*
X0280921Y0036014D02*
X0226550Y0036014D01*
X0225951Y0035415D02*
X0280921Y0035415D01*
X0280921Y0034817D02*
X0225353Y0034817D01*
X0224754Y0034218D02*
X0280921Y0034218D01*
X0280921Y0033620D02*
X0224156Y0033620D01*
X0223557Y0033021D02*
X0280921Y0033021D01*
X0280921Y0032423D02*
X0222959Y0032423D01*
X0222360Y0031824D02*
X0280921Y0031824D01*
X0280921Y0031226D02*
X0221762Y0031226D01*
X0221163Y0030627D02*
X0280921Y0030627D01*
X0280921Y0030029D02*
X0220565Y0030029D01*
X0219966Y0029430D02*
X0280921Y0029430D01*
X0280921Y0028832D02*
X0219368Y0028832D01*
X0218769Y0028233D02*
X0280921Y0028233D01*
X0280921Y0027634D02*
X0218171Y0027634D01*
X0217439Y0028600D02*
X0145117Y0028600D01*
X0140417Y0033300D01*
X0141996Y0034817D02*
X0142415Y0034817D01*
X0143014Y0035415D02*
X0141397Y0035415D01*
X0139436Y0035415D02*
X0135419Y0035415D01*
X0136018Y0034817D02*
X0138838Y0034817D01*
X0138239Y0034218D02*
X0136616Y0034218D01*
X0136628Y0033620D02*
X0138228Y0033620D01*
X0138228Y0033021D02*
X0136628Y0033021D01*
X0136628Y0032423D02*
X0138228Y0032423D01*
X0138797Y0031824D02*
X0136058Y0031824D01*
X0135460Y0031226D02*
X0139395Y0031226D01*
X0139266Y0029430D02*
X0142589Y0029430D01*
X0141991Y0030029D02*
X0134989Y0030029D01*
X0134989Y0029430D02*
X0136334Y0029430D01*
X0135736Y0028832D02*
X0134989Y0028832D01*
X0134829Y0028233D02*
X0135611Y0028233D01*
X0135611Y0027634D02*
X0134230Y0027634D01*
X0135339Y0027036D02*
X0131660Y0027036D01*
X0131370Y0027634D02*
X0131061Y0027634D01*
X0131989Y0026437D02*
X0134740Y0026437D01*
X0134142Y0025839D02*
X0131989Y0025839D01*
X0131989Y0025240D02*
X0133543Y0025240D01*
X0132945Y0024642D02*
X0131738Y0024642D01*
X0133300Y0023300D02*
X0046300Y0023300D01*
X0044111Y0023445D02*
X0027489Y0023445D01*
X0027489Y0023707D02*
X0026207Y0024989D01*
X0024393Y0024989D01*
X0023404Y0024000D01*
X0015303Y0024000D01*
X0010803Y0019500D01*
X0010100Y0018797D01*
X0010100Y0017926D01*
X0009118Y0017519D01*
X0008034Y0016435D01*
X0007447Y0015019D01*
X0007447Y0007581D01*
X0008034Y0006165D01*
X0009118Y0005081D01*
X0010534Y0004494D01*
X0012066Y0004494D01*
X0013482Y0005081D01*
X0014566Y0006165D01*
X0015153Y0007581D01*
X0015153Y0015019D01*
X0014566Y0016435D01*
X0013482Y0017519D01*
X0012587Y0017890D01*
X0016297Y0021600D01*
X0023404Y0021600D01*
X0024393Y0020611D01*
X0026207Y0020611D01*
X0027489Y0021893D01*
X0027489Y0023707D01*
X0027152Y0024043D02*
X0040172Y0024043D01*
X0039573Y0024642D02*
X0026554Y0024642D01*
X0027489Y0022846D02*
X0044111Y0022846D01*
X0044256Y0022248D02*
X0027489Y0022248D01*
X0027245Y0021649D02*
X0044855Y0021649D01*
X0047745Y0021649D02*
X0064111Y0021649D01*
X0064111Y0021051D02*
X0026647Y0021051D01*
X0023953Y0021051D02*
X0015748Y0021051D01*
X0015149Y0020452D02*
X0064111Y0020452D01*
X0064150Y0019854D02*
X0014551Y0019854D01*
X0013952Y0019255D02*
X0064749Y0019255D01*
X0065347Y0018657D02*
X0013354Y0018657D01*
X0012755Y0018058D02*
X0020420Y0018058D01*
X0020534Y0018105D02*
X0019118Y0017519D01*
X0018034Y0016435D01*
X0017447Y0015019D01*
X0017447Y0007581D01*
X0018034Y0006165D01*
X0019118Y0005081D01*
X0020534Y0004494D01*
X0022066Y0004494D01*
X0023482Y0005081D01*
X0024566Y0006165D01*
X0025153Y0007581D01*
X0025153Y0015019D01*
X0024566Y0016435D01*
X0023482Y0017519D01*
X0022066Y0018105D01*
X0020534Y0018105D01*
X0019058Y0017460D02*
X0013542Y0017460D01*
X0014140Y0016861D02*
X0018460Y0016861D01*
X0017962Y0016263D02*
X0014638Y0016263D01*
X0014886Y0015664D02*
X0017714Y0015664D01*
X0017467Y0015066D02*
X0015133Y0015066D01*
X0015153Y0014467D02*
X0017447Y0014467D01*
X0017447Y0013869D02*
X0015153Y0013869D01*
X0015153Y0013270D02*
X0017447Y0013270D01*
X0017447Y0012672D02*
X0015153Y0012672D01*
X0015153Y0012073D02*
X0017447Y0012073D01*
X0017447Y0011475D02*
X0015153Y0011475D01*
X0015153Y0010876D02*
X0017447Y0010876D01*
X0017447Y0010278D02*
X0015153Y0010278D01*
X0015153Y0009679D02*
X0017447Y0009679D01*
X0017447Y0009081D02*
X0015153Y0009081D01*
X0015153Y0008482D02*
X0017447Y0008482D01*
X0017447Y0007884D02*
X0015153Y0007884D01*
X0015030Y0007285D02*
X0017570Y0007285D01*
X0017818Y0006687D02*
X0014782Y0006687D01*
X0014489Y0006088D02*
X0018111Y0006088D01*
X0018709Y0005490D02*
X0013891Y0005490D01*
X0013024Y0004891D02*
X0019576Y0004891D01*
X0023024Y0004891D02*
X0029576Y0004891D01*
X0029118Y0005081D02*
X0030534Y0004494D01*
X0032066Y0004494D01*
X0033482Y0005081D01*
X0034566Y0006165D01*
X0035153Y0007581D01*
X0035153Y0015019D01*
X0034566Y0016435D01*
X0033482Y0017519D01*
X0032066Y0018105D01*
X0030534Y0018105D01*
X0029118Y0017519D01*
X0028034Y0016435D01*
X0027447Y0015019D01*
X0027447Y0007581D01*
X0028034Y0006165D01*
X0029118Y0005081D01*
X0028709Y0005490D02*
X0023891Y0005490D01*
X0024489Y0006088D02*
X0028111Y0006088D01*
X0027818Y0006687D02*
X0024782Y0006687D01*
X0025030Y0007285D02*
X0027570Y0007285D01*
X0027447Y0007884D02*
X0025153Y0007884D01*
X0025153Y0008482D02*
X0027447Y0008482D01*
X0027447Y0009081D02*
X0025153Y0009081D01*
X0025153Y0009679D02*
X0027447Y0009679D01*
X0027447Y0010278D02*
X0025153Y0010278D01*
X0025153Y0010876D02*
X0027447Y0010876D01*
X0027447Y0011475D02*
X0025153Y0011475D01*
X0025153Y0012073D02*
X0027447Y0012073D01*
X0027447Y0012672D02*
X0025153Y0012672D01*
X0025153Y0013270D02*
X0027447Y0013270D01*
X0027447Y0013869D02*
X0025153Y0013869D01*
X0025153Y0014467D02*
X0027447Y0014467D01*
X0027467Y0015066D02*
X0025133Y0015066D01*
X0024886Y0015664D02*
X0027714Y0015664D01*
X0027962Y0016263D02*
X0024638Y0016263D01*
X0024140Y0016861D02*
X0028460Y0016861D01*
X0029058Y0017460D02*
X0023542Y0017460D01*
X0022180Y0018058D02*
X0030420Y0018058D01*
X0032180Y0018058D02*
X0040420Y0018058D01*
X0040534Y0018105D02*
X0039118Y0017519D01*
X0038034Y0016435D01*
X0037447Y0015019D01*
X0037447Y0007581D01*
X0038034Y0006165D01*
X0039118Y0005081D01*
X0040534Y0004494D01*
X0042066Y0004494D01*
X0043482Y0005081D01*
X0044566Y0006165D01*
X0045153Y0007581D01*
X0045153Y0015019D01*
X0044566Y0016435D01*
X0043482Y0017519D01*
X0042066Y0018105D01*
X0040534Y0018105D01*
X0039058Y0017460D02*
X0033542Y0017460D01*
X0034140Y0016861D02*
X0038460Y0016861D01*
X0037962Y0016263D02*
X0034638Y0016263D01*
X0034886Y0015664D02*
X0037714Y0015664D01*
X0037467Y0015066D02*
X0035133Y0015066D01*
X0035153Y0014467D02*
X0037447Y0014467D01*
X0037447Y0013869D02*
X0035153Y0013869D01*
X0035153Y0013270D02*
X0037447Y0013270D01*
X0037447Y0012672D02*
X0035153Y0012672D01*
X0035153Y0012073D02*
X0037447Y0012073D01*
X0037447Y0011475D02*
X0035153Y0011475D01*
X0035153Y0010876D02*
X0037447Y0010876D01*
X0037447Y0010278D02*
X0035153Y0010278D01*
X0035153Y0009679D02*
X0037447Y0009679D01*
X0037447Y0009081D02*
X0035153Y0009081D01*
X0035153Y0008482D02*
X0037447Y0008482D01*
X0037447Y0007884D02*
X0035153Y0007884D01*
X0035030Y0007285D02*
X0037570Y0007285D01*
X0037818Y0006687D02*
X0034782Y0006687D01*
X0034489Y0006088D02*
X0038111Y0006088D01*
X0038709Y0005490D02*
X0033891Y0005490D01*
X0033024Y0004891D02*
X0039576Y0004891D01*
X0043024Y0004891D02*
X0049576Y0004891D01*
X0049118Y0005081D02*
X0050534Y0004494D01*
X0052066Y0004494D01*
X0053482Y0005081D01*
X0054566Y0006165D01*
X0055153Y0007581D01*
X0055153Y0015019D01*
X0054566Y0016435D01*
X0053482Y0017519D01*
X0052066Y0018105D01*
X0050534Y0018105D01*
X0049118Y0017519D01*
X0048034Y0016435D01*
X0047447Y0015019D01*
X0047447Y0007581D01*
X0048034Y0006165D01*
X0049118Y0005081D01*
X0048709Y0005490D02*
X0043891Y0005490D01*
X0044489Y0006088D02*
X0048111Y0006088D01*
X0047818Y0006687D02*
X0044782Y0006687D01*
X0045030Y0007285D02*
X0047570Y0007285D01*
X0047447Y0007884D02*
X0045153Y0007884D01*
X0045153Y0008482D02*
X0047447Y0008482D01*
X0047447Y0009081D02*
X0045153Y0009081D01*
X0045153Y0009679D02*
X0047447Y0009679D01*
X0047447Y0010278D02*
X0045153Y0010278D01*
X0045153Y0010876D02*
X0047447Y0010876D01*
X0047447Y0011475D02*
X0045153Y0011475D01*
X0045153Y0012073D02*
X0047447Y0012073D01*
X0047447Y0012672D02*
X0045153Y0012672D01*
X0045153Y0013270D02*
X0047447Y0013270D01*
X0047447Y0013869D02*
X0045153Y0013869D01*
X0045153Y0014467D02*
X0047447Y0014467D01*
X0047467Y0015066D02*
X0045133Y0015066D01*
X0044886Y0015664D02*
X0047714Y0015664D01*
X0047962Y0016263D02*
X0044638Y0016263D01*
X0044140Y0016861D02*
X0048460Y0016861D01*
X0049058Y0017460D02*
X0043542Y0017460D01*
X0042180Y0018058D02*
X0050420Y0018058D01*
X0052180Y0018058D02*
X0060420Y0018058D01*
X0060534Y0018105D02*
X0059118Y0017519D01*
X0058034Y0016435D01*
X0057447Y0015019D01*
X0057447Y0007581D01*
X0058034Y0006165D01*
X0059118Y0005081D01*
X0060534Y0004494D01*
X0062066Y0004494D01*
X0063482Y0005081D01*
X0064566Y0006165D01*
X0065153Y0007581D01*
X0065153Y0015019D01*
X0064566Y0016435D01*
X0063482Y0017519D01*
X0062066Y0018105D01*
X0060534Y0018105D01*
X0059058Y0017460D02*
X0053542Y0017460D01*
X0054140Y0016861D02*
X0058460Y0016861D01*
X0057962Y0016263D02*
X0054638Y0016263D01*
X0054886Y0015664D02*
X0057714Y0015664D01*
X0057467Y0015066D02*
X0055133Y0015066D01*
X0055153Y0014467D02*
X0057447Y0014467D01*
X0057447Y0013869D02*
X0055153Y0013869D01*
X0055153Y0013270D02*
X0057447Y0013270D01*
X0057447Y0012672D02*
X0055153Y0012672D01*
X0055153Y0012073D02*
X0057447Y0012073D01*
X0057447Y0011475D02*
X0055153Y0011475D01*
X0055153Y0010876D02*
X0057447Y0010876D01*
X0057447Y0010278D02*
X0055153Y0010278D01*
X0055153Y0009679D02*
X0057447Y0009679D01*
X0057447Y0009081D02*
X0055153Y0009081D01*
X0055153Y0008482D02*
X0057447Y0008482D01*
X0057447Y0007884D02*
X0055153Y0007884D01*
X0055030Y0007285D02*
X0057570Y0007285D01*
X0057818Y0006687D02*
X0054782Y0006687D01*
X0054489Y0006088D02*
X0058111Y0006088D01*
X0058709Y0005490D02*
X0053891Y0005490D01*
X0053024Y0004891D02*
X0059576Y0004891D01*
X0063024Y0004891D02*
X0069576Y0004891D01*
X0069118Y0005081D02*
X0070534Y0004494D01*
X0072066Y0004494D01*
X0073482Y0005081D01*
X0074566Y0006165D01*
X0075153Y0007581D01*
X0075153Y0015019D01*
X0074566Y0016435D01*
X0073482Y0017519D01*
X0072066Y0018105D01*
X0070534Y0018105D01*
X0069118Y0017519D01*
X0068034Y0016435D01*
X0067447Y0015019D01*
X0067447Y0007581D01*
X0068034Y0006165D01*
X0069118Y0005081D01*
X0068709Y0005490D02*
X0063891Y0005490D01*
X0064489Y0006088D02*
X0068111Y0006088D01*
X0067818Y0006687D02*
X0064782Y0006687D01*
X0065030Y0007285D02*
X0067570Y0007285D01*
X0067447Y0007884D02*
X0065153Y0007884D01*
X0065153Y0008482D02*
X0067447Y0008482D01*
X0067447Y0009081D02*
X0065153Y0009081D01*
X0065153Y0009679D02*
X0067447Y0009679D01*
X0067447Y0010278D02*
X0065153Y0010278D01*
X0065153Y0010876D02*
X0067447Y0010876D01*
X0067447Y0011475D02*
X0065153Y0011475D01*
X0065153Y0012073D02*
X0067447Y0012073D01*
X0067447Y0012672D02*
X0065153Y0012672D01*
X0065153Y0013270D02*
X0067447Y0013270D01*
X0067447Y0013869D02*
X0065153Y0013869D01*
X0065153Y0014467D02*
X0067447Y0014467D01*
X0067467Y0015066D02*
X0065133Y0015066D01*
X0064886Y0015664D02*
X0067714Y0015664D01*
X0067962Y0016263D02*
X0064638Y0016263D01*
X0064140Y0016861D02*
X0068460Y0016861D01*
X0069058Y0017460D02*
X0063542Y0017460D01*
X0062180Y0018058D02*
X0070420Y0018058D01*
X0072180Y0018058D02*
X0080420Y0018058D01*
X0080534Y0018105D02*
X0079118Y0017519D01*
X0078034Y0016435D01*
X0077447Y0015019D01*
X0077447Y0007581D01*
X0078034Y0006165D01*
X0079118Y0005081D01*
X0080534Y0004494D01*
X0082066Y0004494D01*
X0083482Y0005081D01*
X0084566Y0006165D01*
X0085153Y0007581D01*
X0085153Y0015019D01*
X0084566Y0016435D01*
X0083482Y0017519D01*
X0082066Y0018105D01*
X0080534Y0018105D01*
X0079058Y0017460D02*
X0073542Y0017460D01*
X0074140Y0016861D02*
X0078460Y0016861D01*
X0077962Y0016263D02*
X0074638Y0016263D01*
X0074886Y0015664D02*
X0077714Y0015664D01*
X0077467Y0015066D02*
X0075133Y0015066D01*
X0075153Y0014467D02*
X0077447Y0014467D01*
X0077447Y0013869D02*
X0075153Y0013869D01*
X0075153Y0013270D02*
X0077447Y0013270D01*
X0077447Y0012672D02*
X0075153Y0012672D01*
X0075153Y0012073D02*
X0077447Y0012073D01*
X0077447Y0011475D02*
X0075153Y0011475D01*
X0075153Y0010876D02*
X0077447Y0010876D01*
X0077447Y0010278D02*
X0075153Y0010278D01*
X0075153Y0009679D02*
X0077447Y0009679D01*
X0077447Y0009081D02*
X0075153Y0009081D01*
X0075153Y0008482D02*
X0077447Y0008482D01*
X0077447Y0007884D02*
X0075153Y0007884D01*
X0075030Y0007285D02*
X0077570Y0007285D01*
X0077818Y0006687D02*
X0074782Y0006687D01*
X0074489Y0006088D02*
X0078111Y0006088D01*
X0078709Y0005490D02*
X0073891Y0005490D01*
X0073024Y0004891D02*
X0079576Y0004891D01*
X0083024Y0004891D02*
X0089576Y0004891D01*
X0089118Y0005081D02*
X0090534Y0004494D01*
X0092066Y0004494D01*
X0093482Y0005081D01*
X0094566Y0006165D01*
X0095153Y0007581D01*
X0095153Y0015019D01*
X0094566Y0016435D01*
X0093482Y0017519D01*
X0092066Y0018105D01*
X0090534Y0018105D01*
X0089118Y0017519D01*
X0088034Y0016435D01*
X0087447Y0015019D01*
X0087447Y0007581D01*
X0088034Y0006165D01*
X0089118Y0005081D01*
X0088709Y0005490D02*
X0083891Y0005490D01*
X0084489Y0006088D02*
X0088111Y0006088D01*
X0087818Y0006687D02*
X0084782Y0006687D01*
X0085030Y0007285D02*
X0087570Y0007285D01*
X0087447Y0007884D02*
X0085153Y0007884D01*
X0085153Y0008482D02*
X0087447Y0008482D01*
X0087447Y0009081D02*
X0085153Y0009081D01*
X0085153Y0009679D02*
X0087447Y0009679D01*
X0087447Y0010278D02*
X0085153Y0010278D01*
X0085153Y0010876D02*
X0087447Y0010876D01*
X0087447Y0011475D02*
X0085153Y0011475D01*
X0085153Y0012073D02*
X0087447Y0012073D01*
X0087447Y0012672D02*
X0085153Y0012672D01*
X0085153Y0013270D02*
X0087447Y0013270D01*
X0087447Y0013869D02*
X0085153Y0013869D01*
X0085153Y0014467D02*
X0087447Y0014467D01*
X0087467Y0015066D02*
X0085133Y0015066D01*
X0084886Y0015664D02*
X0087714Y0015664D01*
X0087962Y0016263D02*
X0084638Y0016263D01*
X0084140Y0016861D02*
X0088460Y0016861D01*
X0089058Y0017460D02*
X0083542Y0017460D01*
X0082180Y0018058D02*
X0090420Y0018058D01*
X0092180Y0018058D02*
X0100420Y0018058D01*
X0100534Y0018105D02*
X0099118Y0017519D01*
X0098034Y0016435D01*
X0097447Y0015019D01*
X0097447Y0007581D01*
X0098034Y0006165D01*
X0099118Y0005081D01*
X0100534Y0004494D01*
X0102066Y0004494D01*
X0103482Y0005081D01*
X0104566Y0006165D01*
X0105153Y0007581D01*
X0105153Y0015019D01*
X0104566Y0016435D01*
X0103482Y0017519D01*
X0102066Y0018105D01*
X0100534Y0018105D01*
X0099058Y0017460D02*
X0093542Y0017460D01*
X0094140Y0016861D02*
X0098460Y0016861D01*
X0097962Y0016263D02*
X0094638Y0016263D01*
X0094886Y0015664D02*
X0097714Y0015664D01*
X0097467Y0015066D02*
X0095133Y0015066D01*
X0095153Y0014467D02*
X0097447Y0014467D01*
X0097447Y0013869D02*
X0095153Y0013869D01*
X0095153Y0013270D02*
X0097447Y0013270D01*
X0097447Y0012672D02*
X0095153Y0012672D01*
X0095153Y0012073D02*
X0097447Y0012073D01*
X0097447Y0011475D02*
X0095153Y0011475D01*
X0095153Y0010876D02*
X0097447Y0010876D01*
X0097447Y0010278D02*
X0095153Y0010278D01*
X0095153Y0009679D02*
X0097447Y0009679D01*
X0097447Y0009081D02*
X0095153Y0009081D01*
X0095153Y0008482D02*
X0097447Y0008482D01*
X0097447Y0007884D02*
X0095153Y0007884D01*
X0095030Y0007285D02*
X0097570Y0007285D01*
X0097818Y0006687D02*
X0094782Y0006687D01*
X0094489Y0006088D02*
X0098111Y0006088D01*
X0098709Y0005490D02*
X0093891Y0005490D01*
X0093024Y0004891D02*
X0099576Y0004891D01*
X0103024Y0004891D02*
X0109576Y0004891D01*
X0108709Y0005490D02*
X0103891Y0005490D01*
X0104489Y0006088D02*
X0108111Y0006088D01*
X0107818Y0006687D02*
X0104782Y0006687D01*
X0105030Y0007285D02*
X0107570Y0007285D01*
X0107447Y0007884D02*
X0105153Y0007884D01*
X0105153Y0008482D02*
X0107447Y0008482D01*
X0107447Y0009081D02*
X0105153Y0009081D01*
X0105153Y0009679D02*
X0107447Y0009679D01*
X0107447Y0010278D02*
X0105153Y0010278D01*
X0105153Y0010876D02*
X0107447Y0010876D01*
X0107447Y0011475D02*
X0105153Y0011475D01*
X0105153Y0012073D02*
X0107447Y0012073D01*
X0107447Y0012672D02*
X0105153Y0012672D01*
X0105153Y0013270D02*
X0107447Y0013270D01*
X0107447Y0013869D02*
X0105153Y0013869D01*
X0105153Y0014467D02*
X0107447Y0014467D01*
X0107467Y0015066D02*
X0105133Y0015066D01*
X0104886Y0015664D02*
X0107714Y0015664D01*
X0107962Y0016263D02*
X0104638Y0016263D01*
X0104140Y0016861D02*
X0108460Y0016861D01*
X0109058Y0017460D02*
X0103542Y0017460D01*
X0102180Y0018058D02*
X0110420Y0018058D01*
X0112180Y0018058D02*
X0114361Y0018058D01*
X0113763Y0017460D02*
X0113542Y0017460D01*
X0114960Y0018657D02*
X0067252Y0018657D01*
X0067851Y0019255D02*
X0115558Y0019255D01*
X0116157Y0019854D02*
X0068450Y0019854D01*
X0068489Y0020452D02*
X0124357Y0020452D01*
X0125800Y0018800D02*
X0116800Y0018800D01*
X0111300Y0013300D01*
X0111300Y0011300D01*
X0115153Y0011475D02*
X0117447Y0011475D01*
X0117447Y0012073D02*
X0115153Y0012073D01*
X0115153Y0012672D02*
X0117447Y0012672D01*
X0117447Y0013270D02*
X0115153Y0013270D01*
X0115153Y0013869D02*
X0117447Y0013869D01*
X0117447Y0014467D02*
X0115153Y0014467D01*
X0115133Y0015066D02*
X0117467Y0015066D01*
X0117714Y0015664D02*
X0115361Y0015664D01*
X0115960Y0016263D02*
X0117962Y0016263D01*
X0118460Y0016861D02*
X0116558Y0016861D01*
X0117157Y0017460D02*
X0119058Y0017460D01*
X0123542Y0017460D02*
X0124045Y0017460D01*
X0124140Y0016861D02*
X0124643Y0016861D01*
X0124638Y0016263D02*
X0127962Y0016263D01*
X0128034Y0016435D02*
X0127447Y0015019D01*
X0127447Y0007581D01*
X0128034Y0006165D01*
X0129118Y0005081D01*
X0130534Y0004494D01*
X0132066Y0004494D01*
X0133482Y0005081D01*
X0134566Y0006165D01*
X0135153Y0007581D01*
X0135153Y0015019D01*
X0134566Y0016435D01*
X0133482Y0017519D01*
X0132066Y0018105D01*
X0130534Y0018105D01*
X0129118Y0017519D01*
X0128034Y0016435D01*
X0128460Y0016861D02*
X0126957Y0016861D01*
X0127555Y0017460D02*
X0129058Y0017460D01*
X0127989Y0018058D02*
X0130420Y0018058D01*
X0132180Y0018058D02*
X0139600Y0018058D01*
X0139600Y0018657D02*
X0127989Y0018657D01*
X0127989Y0019255D02*
X0139851Y0019255D01*
X0140450Y0019854D02*
X0127842Y0019854D01*
X0127243Y0020452D02*
X0141048Y0020452D01*
X0141647Y0021051D02*
X0134445Y0021051D01*
X0135044Y0021649D02*
X0142245Y0021649D01*
X0142844Y0022248D02*
X0135642Y0022248D01*
X0136241Y0022846D02*
X0139658Y0022846D01*
X0139059Y0023445D02*
X0136839Y0023445D01*
X0136497Y0024800D02*
X0133797Y0022100D01*
X0067600Y0022100D01*
X0066300Y0020800D01*
X0080189Y0026437D02*
X0044832Y0026437D01*
X0045430Y0027036D02*
X0079590Y0027036D01*
X0079111Y0027634D02*
X0072408Y0027634D01*
X0073007Y0028233D02*
X0079111Y0028233D01*
X0079111Y0028832D02*
X0073489Y0028832D01*
X0073489Y0029430D02*
X0079212Y0029430D01*
X0081300Y0028422D02*
X0108922Y0028422D01*
X0110433Y0029933D01*
X0117287Y0029933D01*
X0120654Y0033300D01*
X0134439Y0033300D01*
X0132860Y0034817D02*
X0117601Y0034817D01*
X0117885Y0035415D02*
X0133458Y0035415D01*
X0134569Y0030627D02*
X0141392Y0030627D01*
X0146183Y0033021D02*
X0218466Y0033021D01*
X0217868Y0032423D02*
X0146569Y0032423D01*
X0147167Y0031824D02*
X0217269Y0031824D01*
X0216671Y0031226D02*
X0147766Y0031226D01*
X0147494Y0029800D02*
X0216942Y0029800D01*
X0252762Y0065620D01*
X0255111Y0065620D01*
X0256300Y0066809D01*
X0254728Y0068333D02*
X0202862Y0068333D01*
X0200738Y0068333D02*
X0174830Y0068333D01*
X0174219Y0067735D02*
X0200139Y0067735D01*
X0203989Y0065939D02*
X0243796Y0065939D01*
X0243197Y0065341D02*
X0203936Y0065341D01*
X0203338Y0064742D02*
X0242598Y0064742D01*
X0242563Y0064144D02*
X0202739Y0064144D01*
X0200861Y0064144D02*
X0174396Y0064144D01*
X0174916Y0063545D02*
X0242093Y0063545D01*
X0241494Y0062947D02*
X0175164Y0062947D01*
X0175412Y0062348D02*
X0240896Y0062348D01*
X0240297Y0061750D02*
X0175500Y0061750D01*
X0175500Y0061151D02*
X0239699Y0061151D01*
X0239100Y0060553D02*
X0175500Y0060553D01*
X0175289Y0059954D02*
X0238502Y0059954D01*
X0237903Y0059356D02*
X0175041Y0059356D01*
X0174697Y0058757D02*
X0237305Y0058757D01*
X0236706Y0058159D02*
X0174098Y0058159D01*
X0173246Y0057560D02*
X0218464Y0057560D01*
X0221136Y0057560D02*
X0236108Y0057560D01*
X0243907Y0053370D02*
X0262457Y0053370D01*
X0262457Y0053608D02*
X0262457Y0053008D01*
X0263057Y0053008D01*
X0263057Y0053608D01*
X0266419Y0053608D01*
X0266419Y0053669D01*
X0266278Y0054376D01*
X0266043Y0054945D01*
X0267032Y0054945D01*
X0267559Y0055163D01*
X0267559Y0052427D01*
X0268921Y0052427D01*
X0268921Y0051827D01*
X0267559Y0051827D01*
X0267559Y0047034D01*
X0267648Y0046704D01*
X0267819Y0046407D01*
X0268061Y0046165D01*
X0268357Y0045994D01*
X0268688Y0045906D01*
X0273480Y0045905D01*
X0273480Y0048055D01*
X0274080Y0048055D01*
X0274080Y0045906D01*
X0278873Y0045906D01*
X0279203Y0045994D01*
X0279500Y0046165D01*
X0279742Y0046407D01*
X0279913Y0046704D01*
X0280002Y0047034D01*
X0280002Y0051827D01*
X0278691Y0051827D01*
X0278671Y0052127D01*
X0278691Y0052427D01*
X0280002Y0052427D01*
X0280002Y0057219D01*
X0279913Y0057550D01*
X0279742Y0057846D01*
X0279500Y0058088D01*
X0279203Y0058259D01*
X0278873Y0058348D01*
X0274080Y0058348D01*
X0274080Y0056198D01*
X0273480Y0056198D01*
X0273480Y0058348D01*
X0269978Y0058348D01*
X0269978Y0059354D01*
X0269418Y0060706D01*
X0268383Y0061741D01*
X0267032Y0062301D01*
X0265568Y0062301D01*
X0264217Y0061741D01*
X0263182Y0060706D01*
X0262622Y0059354D01*
X0262622Y0057891D01*
X0263057Y0056842D01*
X0263057Y0053608D01*
X0262457Y0053608D01*
X0262457Y0056970D01*
X0262396Y0056970D01*
X0261688Y0056829D01*
X0261022Y0056553D01*
X0260422Y0056152D01*
X0259912Y0055642D01*
X0259511Y0055043D01*
X0259235Y0054376D01*
X0259094Y0053669D01*
X0259094Y0053608D01*
X0262457Y0053608D01*
X0262457Y0053969D02*
X0263057Y0053969D01*
X0263057Y0053370D02*
X0267559Y0053370D01*
X0267559Y0052772D02*
X0266419Y0052772D01*
X0266419Y0053008D02*
X0263057Y0053008D01*
X0263057Y0044921D01*
X0263117Y0044921D01*
X0263825Y0045062D01*
X0264491Y0045338D01*
X0265091Y0045739D01*
X0265601Y0046249D01*
X0266002Y0046849D01*
X0266278Y0047515D01*
X0266419Y0048223D01*
X0266419Y0053008D01*
X0266419Y0052173D02*
X0268921Y0052173D01*
X0267559Y0051575D02*
X0266419Y0051575D01*
X0266419Y0050976D02*
X0267559Y0050976D01*
X0267559Y0050378D02*
X0266419Y0050378D01*
X0266419Y0049779D02*
X0267559Y0049779D01*
X0267559Y0049181D02*
X0266419Y0049181D01*
X0266419Y0048582D02*
X0267559Y0048582D01*
X0267559Y0047984D02*
X0266371Y0047984D01*
X0266224Y0047385D02*
X0267559Y0047385D01*
X0267625Y0046787D02*
X0265961Y0046787D01*
X0265541Y0046188D02*
X0268038Y0046188D01*
X0264868Y0045590D02*
X0280921Y0045590D01*
X0280921Y0046188D02*
X0279523Y0046188D01*
X0279935Y0046787D02*
X0280921Y0046787D01*
X0280921Y0047385D02*
X0280002Y0047385D01*
X0280002Y0047984D02*
X0280921Y0047984D01*
X0280921Y0048582D02*
X0280002Y0048582D01*
X0280002Y0049181D02*
X0280921Y0049181D01*
X0280921Y0049779D02*
X0280002Y0049779D01*
X0280002Y0050378D02*
X0280921Y0050378D01*
X0280921Y0050976D02*
X0280002Y0050976D01*
X0280002Y0051575D02*
X0280921Y0051575D01*
X0280921Y0052173D02*
X0278674Y0052173D01*
X0280002Y0052772D02*
X0280921Y0052772D01*
X0280921Y0053370D02*
X0280002Y0053370D01*
X0280002Y0053969D02*
X0280921Y0053969D01*
X0280921Y0054568D02*
X0280002Y0054568D01*
X0280002Y0055166D02*
X0280921Y0055166D01*
X0280921Y0055765D02*
X0280002Y0055765D01*
X0280002Y0056363D02*
X0280921Y0056363D01*
X0280921Y0056962D02*
X0280002Y0056962D01*
X0279907Y0057560D02*
X0280921Y0057560D01*
X0280921Y0058159D02*
X0279378Y0058159D01*
X0280921Y0058757D02*
X0269978Y0058757D01*
X0269977Y0059356D02*
X0280921Y0059356D01*
X0280921Y0059954D02*
X0269730Y0059954D01*
X0269482Y0060553D02*
X0280921Y0060553D01*
X0280921Y0061151D02*
X0268973Y0061151D01*
X0268362Y0061750D02*
X0280921Y0061750D01*
X0280921Y0062348D02*
X0258489Y0062348D01*
X0258489Y0062947D02*
X0280921Y0062947D01*
X0280921Y0063545D02*
X0258489Y0063545D01*
X0258483Y0064144D02*
X0280921Y0064144D01*
X0280921Y0064742D02*
X0257885Y0064742D01*
X0257927Y0065341D02*
X0280921Y0065341D01*
X0280921Y0065939D02*
X0258489Y0065939D01*
X0256300Y0063499D02*
X0255379Y0064420D01*
X0253260Y0064420D01*
X0217439Y0028600D01*
X0219065Y0033620D02*
X0146183Y0033620D01*
X0146172Y0034218D02*
X0219663Y0034218D01*
X0220262Y0034817D02*
X0145574Y0034817D01*
X0144975Y0035415D02*
X0156089Y0035415D01*
X0155491Y0036014D02*
X0151658Y0036014D01*
X0152257Y0036612D02*
X0155111Y0036612D01*
X0155111Y0037211D02*
X0152489Y0037211D01*
X0152489Y0037809D02*
X0155111Y0037809D01*
X0153474Y0038408D02*
X0152489Y0038408D01*
X0152141Y0039006D02*
X0152875Y0039006D01*
X0152722Y0039605D02*
X0151542Y0039605D01*
X0152722Y0040203D02*
X0149545Y0040203D01*
X0147307Y0040744D02*
X0121517Y0040744D01*
X0117284Y0036511D01*
X0099602Y0036511D01*
X0095102Y0032011D01*
X0048708Y0032011D01*
X0043897Y0027200D01*
X0042489Y0027200D01*
X0041300Y0026011D01*
X0043489Y0025839D02*
X0099111Y0025839D01*
X0099111Y0026437D02*
X0082411Y0026437D01*
X0083010Y0027036D02*
X0099440Y0027036D01*
X0099111Y0025240D02*
X0047455Y0025240D01*
X0048054Y0024642D02*
X0099362Y0024642D01*
X0101300Y0025800D02*
X0129800Y0025800D01*
X0128539Y0027634D02*
X0123230Y0027634D01*
X0122632Y0027036D02*
X0127940Y0027036D01*
X0132800Y0029300D02*
X0121800Y0029300D01*
X0121300Y0028800D01*
X0116882Y0031226D02*
X0097711Y0031226D01*
X0098309Y0031824D02*
X0114402Y0031824D01*
X0115800Y0033522D02*
X0098310Y0033522D01*
X0095599Y0030811D01*
X0072489Y0030811D01*
X0071300Y0029622D01*
X0069111Y0029430D02*
X0047824Y0029430D01*
X0047226Y0028832D02*
X0069111Y0028832D01*
X0069593Y0028233D02*
X0046627Y0028233D01*
X0046029Y0027634D02*
X0070192Y0027634D01*
X0069111Y0030029D02*
X0048423Y0030029D01*
X0049021Y0030627D02*
X0069209Y0030627D01*
X0048211Y0033211D02*
X0043400Y0028400D01*
X0032489Y0028400D01*
X0031300Y0027211D01*
X0033489Y0027036D02*
X0039229Y0027036D01*
X0039111Y0026437D02*
X0033489Y0026437D01*
X0033024Y0025839D02*
X0039111Y0025839D01*
X0039111Y0025240D02*
X0032425Y0025240D01*
X0030175Y0025240D02*
X0022336Y0025240D01*
X0022935Y0025839D02*
X0029576Y0025839D01*
X0029111Y0026437D02*
X0023489Y0026437D01*
X0023489Y0027036D02*
X0029111Y0027036D01*
X0029111Y0027634D02*
X0023489Y0027634D01*
X0023930Y0028233D02*
X0029226Y0028233D01*
X0024046Y0024642D02*
X0003600Y0024642D01*
X0003600Y0025240D02*
X0020264Y0025240D01*
X0019665Y0025839D02*
X0003600Y0025839D01*
X0003600Y0026437D02*
X0019111Y0026437D01*
X0015800Y0022800D02*
X0011300Y0018300D01*
X0011300Y0011300D01*
X0007447Y0011475D02*
X0003600Y0011475D01*
X0003600Y0012073D02*
X0007447Y0012073D01*
X0007447Y0012672D02*
X0003600Y0012672D01*
X0003600Y0013270D02*
X0007447Y0013270D01*
X0007447Y0013869D02*
X0003600Y0013869D01*
X0003600Y0014467D02*
X0007447Y0014467D01*
X0007467Y0015066D02*
X0003600Y0015066D01*
X0003600Y0015664D02*
X0007714Y0015664D01*
X0007962Y0016263D02*
X0003600Y0016263D01*
X0003600Y0016861D02*
X0008460Y0016861D01*
X0009058Y0017460D02*
X0003600Y0017460D01*
X0003600Y0018058D02*
X0010100Y0018058D01*
X0010100Y0018657D02*
X0003600Y0018657D01*
X0003600Y0019255D02*
X0010558Y0019255D01*
X0011157Y0019854D02*
X0003600Y0019854D01*
X0003600Y0020452D02*
X0011755Y0020452D01*
X0012354Y0021051D02*
X0003600Y0021051D01*
X0003600Y0021649D02*
X0012952Y0021649D01*
X0013551Y0022248D02*
X0003600Y0022248D01*
X0003600Y0022846D02*
X0014149Y0022846D01*
X0014748Y0023445D02*
X0003600Y0023445D01*
X0003600Y0024043D02*
X0023448Y0024043D01*
X0025300Y0022800D02*
X0015800Y0022800D01*
X0007447Y0010876D02*
X0003600Y0010876D01*
X0003600Y0010278D02*
X0007447Y0010278D01*
X0007447Y0009679D02*
X0003600Y0009679D01*
X0003600Y0009081D02*
X0007447Y0009081D01*
X0007447Y0008482D02*
X0003600Y0008482D01*
X0003600Y0007884D02*
X0007447Y0007884D01*
X0007570Y0007285D02*
X0003600Y0007285D01*
X0003600Y0006687D02*
X0007818Y0006687D01*
X0008111Y0006088D02*
X0003600Y0006088D01*
X0003600Y0005490D02*
X0008709Y0005490D01*
X0009576Y0004891D02*
X0003600Y0004891D01*
X0003600Y0004293D02*
X0280921Y0004293D01*
X0280921Y0004891D02*
X0163024Y0004891D01*
X0163891Y0005490D02*
X0280921Y0005490D01*
X0280921Y0006088D02*
X0164489Y0006088D01*
X0164782Y0006687D02*
X0280921Y0006687D01*
X0280921Y0007285D02*
X0165030Y0007285D01*
X0165153Y0007884D02*
X0280921Y0007884D01*
X0280921Y0008482D02*
X0165153Y0008482D01*
X0165153Y0009081D02*
X0280921Y0009081D01*
X0280921Y0009679D02*
X0225275Y0009679D01*
X0225873Y0010278D02*
X0280921Y0010278D01*
X0280921Y0010876D02*
X0225989Y0010876D01*
X0225989Y0011475D02*
X0280921Y0011475D01*
X0280921Y0012073D02*
X0225989Y0012073D01*
X0225524Y0012672D02*
X0280921Y0012672D01*
X0280921Y0013270D02*
X0224925Y0013270D01*
X0222675Y0013270D02*
X0165153Y0013270D01*
X0165153Y0013869D02*
X0280921Y0013869D01*
X0280921Y0014467D02*
X0165153Y0014467D01*
X0165133Y0015066D02*
X0280921Y0015066D01*
X0280921Y0015664D02*
X0164886Y0015664D01*
X0164638Y0016263D02*
X0280921Y0016263D01*
X0280921Y0016861D02*
X0191457Y0016861D01*
X0192055Y0017460D02*
X0280921Y0017460D01*
X0280921Y0018058D02*
X0192489Y0018058D01*
X0192489Y0018657D02*
X0280921Y0018657D01*
X0280921Y0019255D02*
X0194851Y0019255D01*
X0195450Y0019854D02*
X0280921Y0019854D01*
X0280921Y0020452D02*
X0195989Y0020452D01*
X0195989Y0021051D02*
X0280921Y0021051D01*
X0280921Y0021649D02*
X0195989Y0021649D01*
X0195948Y0022248D02*
X0280921Y0022248D01*
X0280921Y0022846D02*
X0195349Y0022846D01*
X0194751Y0023445D02*
X0280921Y0023445D01*
X0280921Y0024043D02*
X0185228Y0024043D01*
X0185827Y0024642D02*
X0280921Y0024642D01*
X0280921Y0025240D02*
X0186425Y0025240D01*
X0186489Y0025839D02*
X0280921Y0025839D01*
X0280921Y0026437D02*
X0186489Y0026437D01*
X0186489Y0027036D02*
X0280921Y0027036D01*
X0280921Y0044393D02*
X0234929Y0044393D01*
X0235527Y0044991D02*
X0262044Y0044991D01*
X0262396Y0044921D02*
X0261688Y0045062D01*
X0261022Y0045338D01*
X0260422Y0045739D01*
X0259912Y0046249D01*
X0259511Y0046849D01*
X0259235Y0047515D01*
X0259094Y0048223D01*
X0259094Y0053008D01*
X0262457Y0053008D01*
X0262457Y0044921D01*
X0262396Y0044921D01*
X0262457Y0044991D02*
X0263057Y0044991D01*
X0263470Y0044991D02*
X0280921Y0044991D01*
X0274080Y0046188D02*
X0273480Y0046188D01*
X0273480Y0046787D02*
X0274080Y0046787D01*
X0274080Y0047385D02*
X0273480Y0047385D01*
X0273480Y0047984D02*
X0274080Y0047984D01*
X0267559Y0053969D02*
X0266359Y0053969D01*
X0266199Y0054568D02*
X0267559Y0054568D01*
X0263057Y0054568D02*
X0262457Y0054568D01*
X0262457Y0055166D02*
X0263057Y0055166D01*
X0263057Y0055765D02*
X0262457Y0055765D01*
X0262457Y0056363D02*
X0263057Y0056363D01*
X0263007Y0056962D02*
X0262457Y0056962D01*
X0262353Y0056962D02*
X0247498Y0056962D01*
X0248096Y0057560D02*
X0262759Y0057560D01*
X0262622Y0058159D02*
X0248695Y0058159D01*
X0249293Y0058757D02*
X0262622Y0058757D01*
X0262623Y0059356D02*
X0249892Y0059356D01*
X0250490Y0059954D02*
X0262870Y0059954D01*
X0263118Y0060553D02*
X0251089Y0060553D01*
X0251687Y0061151D02*
X0255285Y0061151D01*
X0254686Y0061750D02*
X0252286Y0061750D01*
X0252884Y0062348D02*
X0254111Y0062348D01*
X0254111Y0062947D02*
X0253483Y0062947D01*
X0256300Y0063231D02*
X0256300Y0063499D01*
X0257914Y0061750D02*
X0264238Y0061750D01*
X0263627Y0061151D02*
X0257315Y0061151D01*
X0260737Y0056363D02*
X0246899Y0056363D01*
X0246301Y0055765D02*
X0260034Y0055765D01*
X0259594Y0055166D02*
X0245702Y0055166D01*
X0245104Y0054568D02*
X0259315Y0054568D01*
X0259154Y0053969D02*
X0244505Y0053969D01*
X0243308Y0052772D02*
X0259094Y0052772D01*
X0259094Y0052173D02*
X0242710Y0052173D01*
X0242111Y0051575D02*
X0259094Y0051575D01*
X0259094Y0050976D02*
X0241513Y0050976D01*
X0240914Y0050378D02*
X0259094Y0050378D01*
X0259094Y0049779D02*
X0240316Y0049779D01*
X0239717Y0049181D02*
X0259094Y0049181D01*
X0259094Y0048582D02*
X0239119Y0048582D01*
X0238520Y0047984D02*
X0259142Y0047984D01*
X0259289Y0047385D02*
X0237922Y0047385D01*
X0237323Y0046787D02*
X0259553Y0046787D01*
X0259973Y0046188D02*
X0236724Y0046188D01*
X0236126Y0045590D02*
X0260645Y0045590D01*
X0262457Y0045590D02*
X0263057Y0045590D01*
X0263057Y0046188D02*
X0262457Y0046188D01*
X0262457Y0046787D02*
X0263057Y0046787D01*
X0263057Y0047385D02*
X0262457Y0047385D01*
X0262457Y0047984D02*
X0263057Y0047984D01*
X0263057Y0048582D02*
X0262457Y0048582D01*
X0262457Y0049181D02*
X0263057Y0049181D01*
X0263057Y0049779D02*
X0262457Y0049779D01*
X0262457Y0050378D02*
X0263057Y0050378D01*
X0263057Y0050976D02*
X0262457Y0050976D01*
X0262457Y0051575D02*
X0263057Y0051575D01*
X0263057Y0052173D02*
X0262457Y0052173D01*
X0262457Y0052772D02*
X0263057Y0052772D01*
X0273480Y0056363D02*
X0274080Y0056363D01*
X0274080Y0056962D02*
X0273480Y0056962D01*
X0273480Y0057560D02*
X0274080Y0057560D01*
X0274080Y0058159D02*
X0273480Y0058159D01*
X0262622Y0074318D02*
X0174787Y0074318D01*
X0174148Y0074917D02*
X0262708Y0074917D01*
X0262956Y0075515D02*
X0173159Y0075515D01*
X0171600Y0075515D02*
X0171000Y0075515D01*
X0171000Y0074917D02*
X0171600Y0074917D01*
X0171600Y0074318D02*
X0171000Y0074318D01*
X0171000Y0073720D02*
X0171600Y0073720D01*
X0171600Y0073121D02*
X0171000Y0073121D01*
X0171000Y0072523D02*
X0171600Y0072523D01*
X0169441Y0075515D02*
X0034420Y0075515D01*
X0030808Y0076712D02*
X0003600Y0076712D01*
X0003600Y0076114D02*
X0030210Y0076114D01*
X0029611Y0075515D02*
X0013307Y0075515D01*
X0013906Y0074917D02*
X0029013Y0074917D01*
X0028414Y0074318D02*
X0014504Y0074318D01*
X0015103Y0073720D02*
X0027816Y0073720D01*
X0027217Y0073121D02*
X0015700Y0073121D01*
X0013123Y0076900D02*
X0009477Y0076900D01*
X0006900Y0079477D01*
X0006900Y0083123D01*
X0009477Y0085700D01*
X0013123Y0085700D01*
X0015700Y0083123D01*
X0015700Y0079477D01*
X0013123Y0076900D01*
X0013533Y0077311D02*
X0031407Y0077311D01*
X0032005Y0077909D02*
X0014132Y0077909D01*
X0014730Y0078508D02*
X0032604Y0078508D01*
X0032611Y0079106D02*
X0015329Y0079106D01*
X0015700Y0079705D02*
X0033109Y0079705D01*
X0033708Y0080303D02*
X0015700Y0080303D01*
X0015700Y0080902D02*
X0055111Y0080902D01*
X0055111Y0081501D02*
X0015700Y0081501D01*
X0015700Y0082099D02*
X0055111Y0082099D01*
X0055111Y0082698D02*
X0015700Y0082698D01*
X0015526Y0083296D02*
X0055700Y0083296D01*
X0056299Y0083895D02*
X0014928Y0083895D01*
X0014329Y0084493D02*
X0063675Y0084493D01*
X0063389Y0083895D02*
X0058301Y0083895D01*
X0058900Y0083296D02*
X0063389Y0083296D01*
X0063389Y0082698D02*
X0059489Y0082698D01*
X0059489Y0082099D02*
X0063683Y0082099D01*
X0065578Y0083300D02*
X0065689Y0083411D01*
X0099290Y0083411D01*
X0100679Y0084800D01*
X0115300Y0084800D01*
X0116892Y0083296D02*
X0200208Y0083296D01*
X0199611Y0083893D02*
X0200893Y0082611D01*
X0202707Y0082611D01*
X0203696Y0083600D01*
X0228904Y0083600D01*
X0229893Y0082611D01*
X0231707Y0082611D01*
X0232989Y0083893D01*
X0232989Y0085707D01*
X0231707Y0086989D01*
X0229893Y0086989D01*
X0228904Y0086000D01*
X0203696Y0086000D01*
X0202707Y0086989D01*
X0200893Y0086989D01*
X0199611Y0085707D01*
X0199611Y0083893D01*
X0199611Y0083895D02*
X0117489Y0083895D01*
X0117489Y0084493D02*
X0199611Y0084493D01*
X0199611Y0085092D02*
X0117489Y0085092D01*
X0117489Y0085690D02*
X0199611Y0085690D01*
X0200193Y0086289D02*
X0116907Y0086289D01*
X0116309Y0086887D02*
X0200791Y0086887D01*
X0202809Y0086887D02*
X0229791Y0086887D01*
X0229193Y0086289D02*
X0203407Y0086289D01*
X0201800Y0084800D02*
X0230800Y0084800D01*
X0232392Y0083296D02*
X0259094Y0083296D01*
X0259094Y0082698D02*
X0231793Y0082698D01*
X0232989Y0083895D02*
X0259094Y0083895D01*
X0259118Y0084493D02*
X0232989Y0084493D01*
X0232989Y0085092D02*
X0259238Y0085092D01*
X0259486Y0085690D02*
X0232989Y0085690D01*
X0232407Y0086289D02*
X0259870Y0086289D01*
X0260461Y0086887D02*
X0231809Y0086887D01*
X0229208Y0083296D02*
X0203392Y0083296D01*
X0202793Y0082698D02*
X0229807Y0082698D01*
X0220376Y0070129D02*
X0191724Y0070129D01*
X0188876Y0070129D02*
X0175756Y0070129D01*
X0175867Y0070727D02*
X0188277Y0070727D01*
X0200262Y0064742D02*
X0173797Y0064742D01*
X0168803Y0064742D02*
X0152989Y0064742D01*
X0152739Y0064144D02*
X0168204Y0064144D01*
X0167684Y0063545D02*
X0152141Y0063545D01*
X0150144Y0062947D02*
X0167436Y0062947D01*
X0168381Y0067735D02*
X0164062Y0067735D01*
X0163464Y0068333D02*
X0167770Y0068333D01*
X0167344Y0068932D02*
X0162865Y0068932D01*
X0162267Y0069530D02*
X0167039Y0069530D01*
X0156651Y0062348D02*
X0149545Y0062348D01*
X0149000Y0061803D02*
X0149000Y0061803D01*
X0148947Y0061750D02*
X0156053Y0061750D01*
X0155454Y0061151D02*
X0148348Y0061151D01*
X0159537Y0058159D02*
X0168502Y0058159D01*
X0169354Y0057560D02*
X0160136Y0057560D01*
X0160239Y0056962D02*
X0181866Y0056962D01*
X0181267Y0056363D02*
X0160434Y0056363D01*
X0161033Y0055765D02*
X0181111Y0055765D01*
X0175484Y0052173D02*
X0237618Y0052173D01*
X0237020Y0051575D02*
X0175500Y0051575D01*
X0175500Y0050976D02*
X0236421Y0050976D01*
X0235823Y0050378D02*
X0175464Y0050378D01*
X0175216Y0049779D02*
X0235224Y0049779D01*
X0234626Y0049181D02*
X0174968Y0049181D01*
X0174522Y0048582D02*
X0234027Y0048582D01*
X0233429Y0047984D02*
X0173924Y0047984D01*
X0177507Y0046188D02*
X0226111Y0046188D01*
X0226111Y0045590D02*
X0178106Y0045590D01*
X0176300Y0044300D02*
X0175800Y0044800D01*
X0171300Y0051300D02*
X0163800Y0051300D01*
X0162800Y0047800D02*
X0159800Y0050800D01*
X0154800Y0050800D01*
X0153323Y0049181D02*
X0119989Y0049181D01*
X0119989Y0048582D02*
X0153065Y0048582D01*
X0152611Y0047984D02*
X0119989Y0047984D01*
X0119981Y0047385D02*
X0152611Y0047385D01*
X0152611Y0046787D02*
X0119383Y0046787D01*
X0119429Y0046188D02*
X0152738Y0046188D01*
X0153337Y0045590D02*
X0119989Y0045590D01*
X0119989Y0044991D02*
X0153163Y0044991D01*
X0152722Y0044393D02*
X0119989Y0044393D01*
X0120523Y0043144D02*
X0154411Y0043144D01*
X0154911Y0043644D01*
X0153033Y0041944D02*
X0121020Y0041944D01*
X0116787Y0037711D01*
X0099105Y0037711D01*
X0094605Y0033211D01*
X0048211Y0033211D01*
X0044208Y0036612D02*
X0035708Y0036612D01*
X0035707Y0036611D02*
X0036989Y0037893D01*
X0036989Y0039707D01*
X0035707Y0040989D01*
X0033893Y0040989D01*
X0033404Y0040500D01*
X0022696Y0040500D01*
X0022207Y0040989D01*
X0020393Y0040989D01*
X0019111Y0039707D01*
X0019111Y0037893D01*
X0020393Y0036611D01*
X0022207Y0036611D01*
X0022696Y0037100D01*
X0033404Y0037100D01*
X0033893Y0036611D01*
X0035707Y0036611D01*
X0036306Y0037211D02*
X0044807Y0037211D01*
X0045405Y0037809D02*
X0036905Y0037809D01*
X0036989Y0038408D02*
X0046004Y0038408D01*
X0046602Y0039006D02*
X0036989Y0039006D01*
X0036989Y0039605D02*
X0047201Y0039605D01*
X0047799Y0040203D02*
X0036492Y0040203D01*
X0035894Y0040802D02*
X0048398Y0040802D01*
X0048996Y0041400D02*
X0044804Y0041400D01*
X0045403Y0041999D02*
X0049595Y0041999D01*
X0050193Y0042597D02*
X0046001Y0042597D01*
X0046600Y0043196D02*
X0050792Y0043196D01*
X0051390Y0043794D02*
X0047198Y0043794D01*
X0047797Y0044393D02*
X0051989Y0044393D01*
X0052587Y0044991D02*
X0048395Y0044991D01*
X0052494Y0045590D02*
X0053186Y0045590D01*
X0053093Y0046188D02*
X0053784Y0046188D01*
X0053691Y0046787D02*
X0054383Y0046787D01*
X0054290Y0047385D02*
X0054981Y0047385D01*
X0054888Y0047984D02*
X0055580Y0047984D01*
X0055487Y0048582D02*
X0056178Y0048582D01*
X0056085Y0049181D02*
X0056777Y0049181D01*
X0056684Y0049779D02*
X0057375Y0049779D01*
X0064495Y0045590D02*
X0092393Y0045590D01*
X0092300Y0043800D02*
X0063189Y0043800D01*
X0040742Y0057560D02*
X0036989Y0057560D01*
X0034800Y0058300D02*
X0038800Y0062300D01*
X0036553Y0061750D02*
X0028654Y0061750D01*
X0028055Y0061151D02*
X0035954Y0061151D01*
X0035356Y0060553D02*
X0027457Y0060553D01*
X0026858Y0059954D02*
X0033358Y0059954D01*
X0028634Y0066538D02*
X0003600Y0066538D01*
X0003600Y0067136D02*
X0009241Y0067136D01*
X0008643Y0067735D02*
X0003600Y0067735D01*
X0003600Y0068333D02*
X0008044Y0068333D01*
X0007446Y0068932D02*
X0003600Y0068932D01*
X0003600Y0069530D02*
X0006900Y0069530D01*
X0006900Y0070129D02*
X0003600Y0070129D01*
X0003600Y0070727D02*
X0006900Y0070727D01*
X0006900Y0071326D02*
X0003600Y0071326D01*
X0003600Y0071924D02*
X0006900Y0071924D01*
X0006900Y0072523D02*
X0003600Y0072523D01*
X0003600Y0073121D02*
X0006900Y0073121D01*
X0007497Y0073720D02*
X0003600Y0073720D01*
X0003600Y0074318D02*
X0008096Y0074318D01*
X0008694Y0074917D02*
X0003600Y0074917D01*
X0003600Y0075515D02*
X0009293Y0075515D01*
X0009067Y0077311D02*
X0003600Y0077311D01*
X0003600Y0077909D02*
X0008468Y0077909D01*
X0007870Y0078508D02*
X0003600Y0078508D01*
X0003600Y0079106D02*
X0007271Y0079106D01*
X0006900Y0079705D02*
X0003600Y0079705D01*
X0003600Y0080303D02*
X0006900Y0080303D01*
X0006900Y0080902D02*
X0003600Y0080902D01*
X0003600Y0081501D02*
X0006900Y0081501D01*
X0006900Y0082099D02*
X0003600Y0082099D01*
X0003600Y0082698D02*
X0006900Y0082698D01*
X0007074Y0083296D02*
X0003600Y0083296D01*
X0003600Y0083895D02*
X0007672Y0083895D01*
X0008271Y0084493D02*
X0003600Y0084493D01*
X0003600Y0085092D02*
X0008869Y0085092D01*
X0009468Y0085690D02*
X0003600Y0085690D01*
X0003600Y0086289D02*
X0096111Y0086289D01*
X0096111Y0085690D02*
X0013132Y0085690D01*
X0013731Y0085092D02*
X0064274Y0085092D01*
X0066882Y0085092D02*
X0096111Y0085092D01*
X0096291Y0086887D02*
X0046983Y0086887D01*
X0046707Y0086611D02*
X0047989Y0087893D01*
X0047989Y0088100D01*
X0110904Y0088100D01*
X0111393Y0087611D01*
X0113207Y0087611D01*
X0114489Y0088893D01*
X0114489Y0090707D01*
X0113207Y0091989D01*
X0111393Y0091989D01*
X0110904Y0091500D01*
X0046096Y0091500D01*
X0045585Y0090989D01*
X0044893Y0090989D01*
X0043611Y0089707D01*
X0043611Y0087893D01*
X0044893Y0086611D01*
X0046707Y0086611D01*
X0047581Y0087486D02*
X0096890Y0087486D01*
X0099710Y0087486D02*
X0261562Y0087486D01*
X0262457Y0087486D02*
X0263057Y0087486D01*
X0263057Y0086887D02*
X0262457Y0086887D01*
X0262457Y0086289D02*
X0263057Y0086289D01*
X0263057Y0085690D02*
X0262457Y0085690D01*
X0262457Y0085092D02*
X0263057Y0085092D01*
X0263057Y0084493D02*
X0262457Y0084493D01*
X0262457Y0083895D02*
X0263057Y0083895D01*
X0263057Y0083296D02*
X0262457Y0083296D01*
X0262457Y0082698D02*
X0263057Y0082698D01*
X0263057Y0082099D02*
X0262457Y0082099D01*
X0262457Y0081501D02*
X0263057Y0081501D01*
X0263057Y0080902D02*
X0262457Y0080902D01*
X0262457Y0080303D02*
X0263057Y0080303D01*
X0263057Y0079705D02*
X0262457Y0079705D01*
X0259094Y0079705D02*
X0120991Y0079705D01*
X0119378Y0080303D02*
X0259094Y0080303D01*
X0259094Y0080902D02*
X0119378Y0080902D01*
X0119378Y0081501D02*
X0259094Y0081501D01*
X0259094Y0082099D02*
X0118986Y0082099D01*
X0118387Y0082698D02*
X0200807Y0082698D01*
X0206893Y0099111D02*
X0208707Y0099111D01*
X0209989Y0100393D01*
X0209989Y0102207D01*
X0208707Y0103489D01*
X0206893Y0103489D01*
X0206404Y0103000D01*
X0168596Y0103000D01*
X0168989Y0103393D01*
X0168989Y0105207D01*
X0167707Y0106489D01*
X0165893Y0106489D01*
X0164904Y0105500D01*
X0073196Y0105500D01*
X0072207Y0106489D01*
X0070393Y0106489D01*
X0069111Y0105207D01*
X0069111Y0103393D01*
X0070393Y0102111D01*
X0072207Y0102111D01*
X0073196Y0103100D01*
X0111004Y0103100D01*
X0110111Y0102207D01*
X0110111Y0100393D01*
X0111393Y0099111D01*
X0113207Y0099111D01*
X0113696Y0099600D01*
X0135404Y0099600D01*
X0135893Y0099111D01*
X0137707Y0099111D01*
X0138196Y0099600D01*
X0149904Y0099600D01*
X0150393Y0099111D01*
X0152207Y0099111D01*
X0152696Y0099600D01*
X0206404Y0099600D01*
X0206893Y0099111D01*
X0206548Y0099456D02*
X0152552Y0099456D01*
X0150048Y0099456D02*
X0138052Y0099456D01*
X0135548Y0099456D02*
X0113552Y0099456D01*
X0111048Y0099456D02*
X0051552Y0099456D01*
X0051207Y0099111D02*
X0052489Y0100393D01*
X0052489Y0102207D01*
X0051596Y0103100D01*
X0056904Y0103100D01*
X0057893Y0102111D01*
X0059707Y0102111D01*
X0060989Y0103393D01*
X0060989Y0105207D01*
X0059707Y0106489D01*
X0057893Y0106489D01*
X0056904Y0105500D01*
X0056096Y0105500D01*
X0056489Y0105893D01*
X0056489Y0107707D01*
X0056096Y0108100D01*
X0063904Y0108100D01*
X0064893Y0107111D01*
X0066707Y0107111D01*
X0067989Y0108393D01*
X0067989Y0110207D01*
X0066707Y0111489D01*
X0064893Y0111489D01*
X0063904Y0110500D01*
X0033489Y0110500D01*
X0033489Y0111207D01*
X0032207Y0112489D01*
X0030393Y0112489D01*
X0029111Y0111207D01*
X0029111Y0109393D01*
X0030393Y0108111D01*
X0031792Y0108111D01*
X0031803Y0108100D01*
X0039524Y0108100D01*
X0039424Y0108000D01*
X0019196Y0108000D01*
X0018207Y0108989D01*
X0016393Y0108989D01*
X0015111Y0107707D01*
X0015111Y0105893D01*
X0016393Y0104611D01*
X0018207Y0104611D01*
X0019196Y0105600D01*
X0039111Y0105600D01*
X0039111Y0103893D01*
X0040004Y0103000D01*
X0015700Y0103000D01*
X0015700Y0103123D01*
X0013123Y0105700D01*
X0009477Y0105700D01*
X0006900Y0103123D01*
X0006900Y0099477D01*
X0009477Y0096900D01*
X0013123Y0096900D01*
X0015700Y0099477D01*
X0015700Y0099600D01*
X0048904Y0099600D01*
X0049393Y0099111D01*
X0051207Y0099111D01*
X0052150Y0100054D02*
X0110450Y0100054D01*
X0110111Y0100653D02*
X0052489Y0100653D01*
X0052489Y0101251D02*
X0110111Y0101251D01*
X0110111Y0101850D02*
X0052489Y0101850D01*
X0052247Y0102448D02*
X0057556Y0102448D01*
X0056957Y0103047D02*
X0051649Y0103047D01*
X0049048Y0099456D02*
X0015678Y0099456D01*
X0015080Y0098857D02*
X0280921Y0098857D01*
X0280921Y0098259D02*
X0014481Y0098259D01*
X0013883Y0097660D02*
X0280921Y0097660D01*
X0280921Y0097062D02*
X0013284Y0097062D01*
X0013123Y0095700D02*
X0009477Y0095700D01*
X0006900Y0093123D01*
X0006900Y0089477D01*
X0009477Y0086900D01*
X0013123Y0086900D01*
X0015700Y0089477D01*
X0015700Y0093123D01*
X0013123Y0095700D01*
X0013556Y0095266D02*
X0280921Y0095266D01*
X0280921Y0094668D02*
X0014155Y0094668D01*
X0014753Y0094069D02*
X0280921Y0094069D01*
X0280921Y0093471D02*
X0015352Y0093471D01*
X0015700Y0092872D02*
X0280921Y0092872D01*
X0280921Y0092274D02*
X0015700Y0092274D01*
X0015700Y0091675D02*
X0111080Y0091675D01*
X0113520Y0091675D02*
X0280921Y0091675D01*
X0280921Y0091077D02*
X0114119Y0091077D01*
X0114489Y0090478D02*
X0280921Y0090478D01*
X0280921Y0089880D02*
X0114489Y0089880D01*
X0114489Y0089281D02*
X0280921Y0089281D01*
X0280921Y0088683D02*
X0114278Y0088683D01*
X0113680Y0088084D02*
X0280921Y0088084D01*
X0280921Y0087486D02*
X0263951Y0087486D01*
X0273480Y0086289D02*
X0274080Y0086289D01*
X0274080Y0085690D02*
X0273480Y0085690D01*
X0273480Y0085092D02*
X0274080Y0085092D01*
X0280921Y0095865D02*
X0003600Y0095865D01*
X0003600Y0096463D02*
X0280921Y0096463D01*
X0280921Y0099456D02*
X0209052Y0099456D01*
X0209650Y0100054D02*
X0280921Y0100054D01*
X0280921Y0100653D02*
X0209989Y0100653D01*
X0209989Y0101251D02*
X0280921Y0101251D01*
X0280921Y0101850D02*
X0209989Y0101850D01*
X0209747Y0102448D02*
X0280921Y0102448D01*
X0280921Y0103047D02*
X0209149Y0103047D01*
X0206451Y0103047D02*
X0168643Y0103047D01*
X0168989Y0103645D02*
X0280921Y0103645D01*
X0280921Y0104244D02*
X0168989Y0104244D01*
X0168989Y0104842D02*
X0280921Y0104842D01*
X0280921Y0105441D02*
X0168755Y0105441D01*
X0168156Y0106039D02*
X0174965Y0106039D01*
X0175393Y0105611D02*
X0174404Y0106600D01*
X0163696Y0106600D01*
X0162707Y0105611D01*
X0160893Y0105611D01*
X0159611Y0106893D01*
X0159611Y0108707D01*
X0160893Y0109989D01*
X0162707Y0109989D01*
X0163696Y0109000D01*
X0174404Y0109000D01*
X0175393Y0109989D01*
X0177207Y0109989D01*
X0178489Y0108707D01*
X0178489Y0106893D01*
X0177207Y0105611D01*
X0175393Y0105611D01*
X0177635Y0106039D02*
X0280921Y0106039D01*
X0280921Y0106638D02*
X0178234Y0106638D01*
X0178489Y0107237D02*
X0280921Y0107237D01*
X0280921Y0107835D02*
X0178489Y0107835D01*
X0178489Y0108434D02*
X0280921Y0108434D01*
X0280921Y0109032D02*
X0178164Y0109032D01*
X0177565Y0109631D02*
X0280921Y0109631D01*
X0280921Y0110229D02*
X0067967Y0110229D01*
X0067989Y0109631D02*
X0160535Y0109631D01*
X0159936Y0109032D02*
X0067989Y0109032D01*
X0067989Y0108434D02*
X0159611Y0108434D01*
X0159611Y0107835D02*
X0067431Y0107835D01*
X0066832Y0107237D02*
X0159611Y0107237D01*
X0159866Y0106638D02*
X0056489Y0106638D01*
X0056489Y0107237D02*
X0064768Y0107237D01*
X0064169Y0107835D02*
X0056361Y0107835D01*
X0054300Y0106800D02*
X0042679Y0106800D01*
X0042290Y0107189D01*
X0040310Y0107189D01*
X0039921Y0106800D01*
X0017300Y0106800D01*
X0015838Y0108434D02*
X0003600Y0108434D01*
X0003600Y0109032D02*
X0029472Y0109032D01*
X0029111Y0109631D02*
X0003600Y0109631D01*
X0003600Y0110229D02*
X0029111Y0110229D01*
X0029111Y0110828D02*
X0003600Y0110828D01*
X0003600Y0111426D02*
X0029330Y0111426D01*
X0029929Y0112025D02*
X0003600Y0112025D01*
X0003600Y0112623D02*
X0011280Y0112623D01*
X0011303Y0112600D02*
X0066404Y0112600D01*
X0067393Y0111611D01*
X0069207Y0111611D01*
X0070489Y0112893D01*
X0070489Y0114513D01*
X0070534Y0114494D01*
X0072066Y0114494D01*
X0073482Y0115081D01*
X0074566Y0116165D01*
X0075153Y0117581D01*
X0075153Y0125019D01*
X0074566Y0126435D01*
X0073482Y0127519D01*
X0072066Y0128105D01*
X0070534Y0128105D01*
X0069118Y0127519D01*
X0068034Y0126435D01*
X0067447Y0125019D01*
X0067447Y0117581D01*
X0068034Y0116165D01*
X0068210Y0115989D01*
X0067393Y0115989D01*
X0066404Y0115000D01*
X0063287Y0115000D01*
X0063482Y0115081D01*
X0064566Y0116165D01*
X0065153Y0117581D01*
X0065153Y0125019D01*
X0064566Y0126435D01*
X0063482Y0127519D01*
X0062066Y0128105D01*
X0060534Y0128105D01*
X0059118Y0127519D01*
X0058034Y0126435D01*
X0057447Y0125019D01*
X0057447Y0117581D01*
X0058034Y0116165D01*
X0059118Y0115081D01*
X0059313Y0115000D01*
X0053287Y0115000D01*
X0053482Y0115081D01*
X0054566Y0116165D01*
X0055153Y0117581D01*
X0055153Y0125019D01*
X0054566Y0126435D01*
X0053482Y0127519D01*
X0052066Y0128105D01*
X0050534Y0128105D01*
X0049118Y0127519D01*
X0048034Y0126435D01*
X0047447Y0125019D01*
X0047447Y0117581D01*
X0048034Y0116165D01*
X0049118Y0115081D01*
X0049313Y0115000D01*
X0043287Y0115000D01*
X0043482Y0115081D01*
X0044566Y0116165D01*
X0045153Y0117581D01*
X0045153Y0125019D01*
X0044566Y0126435D01*
X0043482Y0127519D01*
X0042066Y0128105D01*
X0040534Y0128105D01*
X0039118Y0127519D01*
X0038034Y0126435D01*
X0037447Y0125019D01*
X0037447Y0117581D01*
X0038034Y0116165D01*
X0039118Y0115081D01*
X0039313Y0115000D01*
X0033287Y0115000D01*
X0033482Y0115081D01*
X0034566Y0116165D01*
X0035153Y0117581D01*
X0035153Y0125019D01*
X0034566Y0126435D01*
X0033482Y0127519D01*
X0032066Y0128105D01*
X0030534Y0128105D01*
X0029118Y0127519D01*
X0028034Y0126435D01*
X0027447Y0125019D01*
X0027447Y0117581D01*
X0028034Y0116165D01*
X0029118Y0115081D01*
X0029313Y0115000D01*
X0023287Y0115000D01*
X0023482Y0115081D01*
X0024566Y0116165D01*
X0025153Y0117581D01*
X0025153Y0125019D01*
X0024566Y0126435D01*
X0023482Y0127519D01*
X0022066Y0128105D01*
X0020534Y0128105D01*
X0019118Y0127519D01*
X0018034Y0126435D01*
X0017447Y0125019D01*
X0017447Y0117581D01*
X0018034Y0116165D01*
X0019118Y0115081D01*
X0019313Y0115000D01*
X0013287Y0115000D01*
X0013482Y0115081D01*
X0014566Y0116165D01*
X0015153Y0117581D01*
X0015153Y0125019D01*
X0014566Y0126435D01*
X0013482Y0127519D01*
X0012066Y0128105D01*
X0010534Y0128105D01*
X0009118Y0127519D01*
X0008034Y0126435D01*
X0007447Y0125019D01*
X0007447Y0117581D01*
X0008034Y0116165D01*
X0009118Y0115081D01*
X0010100Y0114674D01*
X0010100Y0113803D01*
X0010803Y0113100D01*
X0011303Y0112600D01*
X0010681Y0113222D02*
X0003600Y0113222D01*
X0003600Y0113820D02*
X0010100Y0113820D01*
X0010100Y0114419D02*
X0003600Y0114419D01*
X0003600Y0115017D02*
X0009272Y0115017D01*
X0008583Y0115616D02*
X0003600Y0115616D01*
X0003600Y0116214D02*
X0008013Y0116214D01*
X0007765Y0116813D02*
X0003600Y0116813D01*
X0003600Y0117411D02*
X0007518Y0117411D01*
X0007447Y0118010D02*
X0003600Y0118010D01*
X0003600Y0118608D02*
X0007447Y0118608D01*
X0007447Y0119207D02*
X0003600Y0119207D01*
X0003600Y0119805D02*
X0007447Y0119805D01*
X0007447Y0120404D02*
X0003600Y0120404D01*
X0003600Y0121002D02*
X0007447Y0121002D01*
X0007447Y0121601D02*
X0003600Y0121601D01*
X0003600Y0122199D02*
X0007447Y0122199D01*
X0007447Y0122798D02*
X0003600Y0122798D01*
X0003600Y0123396D02*
X0007447Y0123396D01*
X0007447Y0123995D02*
X0003600Y0123995D01*
X0003600Y0124593D02*
X0007447Y0124593D01*
X0007519Y0125192D02*
X0003600Y0125192D01*
X0003600Y0125790D02*
X0007767Y0125790D01*
X0008015Y0126389D02*
X0003600Y0126389D01*
X0003600Y0126987D02*
X0008586Y0126987D01*
X0009279Y0127586D02*
X0003600Y0127586D01*
X0003600Y0128184D02*
X0129649Y0128184D01*
X0129667Y0128194D02*
X0129071Y0127890D01*
X0128530Y0127497D01*
X0128056Y0127023D01*
X0127663Y0126482D01*
X0127359Y0125885D01*
X0127152Y0125249D01*
X0127047Y0124587D01*
X0127047Y0121600D01*
X0131000Y0121600D01*
X0131000Y0128505D01*
X0130965Y0128505D01*
X0130304Y0128401D01*
X0129667Y0128194D01*
X0128652Y0127586D02*
X0123321Y0127586D01*
X0123482Y0127519D02*
X0122066Y0128105D01*
X0120534Y0128105D01*
X0119118Y0127519D01*
X0118034Y0126435D01*
X0117447Y0125019D01*
X0117447Y0117581D01*
X0118034Y0116165D01*
X0119118Y0115081D01*
X0119731Y0114827D01*
X0119111Y0114207D01*
X0119111Y0112393D01*
X0120393Y0111111D01*
X0122207Y0111111D01*
X0123135Y0112039D01*
X0144344Y0112039D01*
X0145333Y0111050D01*
X0147146Y0111050D01*
X0148428Y0112333D01*
X0148428Y0114146D01*
X0147146Y0115428D01*
X0145333Y0115428D01*
X0144344Y0114439D01*
X0132998Y0114439D01*
X0133529Y0114710D01*
X0134070Y0115103D01*
X0134544Y0115577D01*
X0134937Y0116118D01*
X0135241Y0116715D01*
X0135448Y0117351D01*
X0135553Y0118013D01*
X0135553Y0121000D01*
X0131600Y0121000D01*
X0131600Y0121600D01*
X0131000Y0121600D01*
X0131000Y0121000D01*
X0127047Y0121000D01*
X0127047Y0118013D01*
X0127152Y0117351D01*
X0127359Y0116715D01*
X0127663Y0116118D01*
X0128056Y0115577D01*
X0128530Y0115103D01*
X0129071Y0114710D01*
X0129602Y0114439D01*
X0123256Y0114439D01*
X0122869Y0114827D01*
X0123482Y0115081D01*
X0124566Y0116165D01*
X0125153Y0117581D01*
X0125153Y0125019D01*
X0124566Y0126435D01*
X0123482Y0127519D01*
X0124014Y0126987D02*
X0128030Y0126987D01*
X0127615Y0126389D02*
X0124585Y0126389D01*
X0124833Y0125790D02*
X0127328Y0125790D01*
X0127143Y0125192D02*
X0125081Y0125192D01*
X0125153Y0124593D02*
X0127048Y0124593D01*
X0127047Y0123995D02*
X0125153Y0123995D01*
X0125153Y0123396D02*
X0127047Y0123396D01*
X0127047Y0122798D02*
X0125153Y0122798D01*
X0125153Y0122199D02*
X0127047Y0122199D01*
X0127047Y0121601D02*
X0125153Y0121601D01*
X0125153Y0121002D02*
X0131000Y0121002D01*
X0131000Y0121601D02*
X0131600Y0121601D01*
X0131600Y0121600D02*
X0131600Y0128505D01*
X0131635Y0128505D01*
X0132296Y0128401D01*
X0132932Y0128194D01*
X0133529Y0127890D01*
X0134070Y0127497D01*
X0134544Y0127023D01*
X0134937Y0126482D01*
X0135241Y0125885D01*
X0135448Y0125249D01*
X0135553Y0124587D01*
X0135553Y0121600D01*
X0131600Y0121600D01*
X0131600Y0121002D02*
X0137447Y0121002D01*
X0137447Y0120404D02*
X0135553Y0120404D01*
X0135553Y0119805D02*
X0137447Y0119805D01*
X0137447Y0119207D02*
X0135553Y0119207D01*
X0135553Y0118608D02*
X0137447Y0118608D01*
X0137447Y0118010D02*
X0135552Y0118010D01*
X0135458Y0117411D02*
X0137518Y0117411D01*
X0137447Y0117581D02*
X0138034Y0116165D01*
X0139118Y0115081D01*
X0140534Y0114494D01*
X0142066Y0114494D01*
X0143482Y0115081D01*
X0144566Y0116165D01*
X0145153Y0117581D01*
X0145153Y0125019D01*
X0144566Y0126435D01*
X0143482Y0127519D01*
X0142066Y0128105D01*
X0140534Y0128105D01*
X0139118Y0127519D01*
X0138034Y0126435D01*
X0137447Y0125019D01*
X0137447Y0117581D01*
X0137765Y0116813D02*
X0135273Y0116813D01*
X0134986Y0116214D02*
X0138013Y0116214D01*
X0138583Y0115616D02*
X0134572Y0115616D01*
X0133952Y0115017D02*
X0139272Y0115017D01*
X0143328Y0115017D02*
X0144921Y0115017D01*
X0144017Y0115616D02*
X0148583Y0115616D01*
X0149118Y0115081D02*
X0148034Y0116165D01*
X0147447Y0117581D01*
X0147447Y0125019D01*
X0148034Y0126435D01*
X0149118Y0127519D01*
X0150534Y0128105D01*
X0152066Y0128105D01*
X0153482Y0127519D01*
X0154566Y0126435D01*
X0155153Y0125019D01*
X0155153Y0117581D01*
X0154566Y0116165D01*
X0153482Y0115081D01*
X0152066Y0114494D01*
X0150534Y0114494D01*
X0149118Y0115081D01*
X0149272Y0115017D02*
X0147557Y0115017D01*
X0148156Y0114419D02*
X0280921Y0114419D01*
X0280921Y0115017D02*
X0163328Y0115017D01*
X0163482Y0115081D02*
X0164566Y0116165D01*
X0165153Y0117581D01*
X0165153Y0125019D01*
X0164566Y0126435D01*
X0163482Y0127519D01*
X0162066Y0128105D01*
X0160534Y0128105D01*
X0159118Y0127519D01*
X0158034Y0126435D01*
X0157447Y0125019D01*
X0157447Y0117581D01*
X0158034Y0116165D01*
X0159118Y0115081D01*
X0160534Y0114494D01*
X0162066Y0114494D01*
X0163482Y0115081D01*
X0164017Y0115616D02*
X0280921Y0115616D01*
X0280921Y0116214D02*
X0164587Y0116214D01*
X0164835Y0116813D02*
X0280921Y0116813D01*
X0280921Y0117411D02*
X0165082Y0117411D01*
X0165153Y0118010D02*
X0280921Y0118010D01*
X0280921Y0118608D02*
X0165153Y0118608D01*
X0165153Y0119207D02*
X0280921Y0119207D01*
X0280921Y0119805D02*
X0165153Y0119805D01*
X0165153Y0120404D02*
X0280921Y0120404D01*
X0280921Y0121002D02*
X0165153Y0121002D01*
X0165153Y0121601D02*
X0280921Y0121601D01*
X0280921Y0122199D02*
X0165153Y0122199D01*
X0165153Y0122798D02*
X0280921Y0122798D01*
X0280921Y0123396D02*
X0165153Y0123396D01*
X0165153Y0123995D02*
X0280921Y0123995D01*
X0280921Y0124593D02*
X0165153Y0124593D01*
X0165081Y0125192D02*
X0280921Y0125192D01*
X0280921Y0125790D02*
X0164833Y0125790D01*
X0164585Y0126389D02*
X0280921Y0126389D01*
X0280921Y0126987D02*
X0164014Y0126987D01*
X0163321Y0127586D02*
X0280921Y0127586D01*
X0280921Y0128184D02*
X0132951Y0128184D01*
X0133948Y0127586D02*
X0139279Y0127586D01*
X0138586Y0126987D02*
X0134570Y0126987D01*
X0134985Y0126389D02*
X0138015Y0126389D01*
X0137767Y0125790D02*
X0135272Y0125790D01*
X0135457Y0125192D02*
X0137519Y0125192D01*
X0137447Y0124593D02*
X0135552Y0124593D01*
X0135553Y0123995D02*
X0137447Y0123995D01*
X0137447Y0123396D02*
X0135553Y0123396D01*
X0135553Y0122798D02*
X0137447Y0122798D01*
X0137447Y0122199D02*
X0135553Y0122199D01*
X0135553Y0121601D02*
X0137447Y0121601D01*
X0131600Y0122199D02*
X0131000Y0122199D01*
X0131000Y0122798D02*
X0131600Y0122798D01*
X0131600Y0123396D02*
X0131000Y0123396D01*
X0131000Y0123995D02*
X0131600Y0123995D01*
X0131600Y0124593D02*
X0131000Y0124593D01*
X0131000Y0125192D02*
X0131600Y0125192D01*
X0131600Y0125790D02*
X0131000Y0125790D01*
X0131000Y0126389D02*
X0131600Y0126389D01*
X0131600Y0126987D02*
X0131000Y0126987D01*
X0131000Y0127586D02*
X0131600Y0127586D01*
X0131600Y0128184D02*
X0131000Y0128184D01*
X0119279Y0127586D02*
X0113321Y0127586D01*
X0113482Y0127519D02*
X0112066Y0128105D01*
X0110534Y0128105D01*
X0109118Y0127519D01*
X0108034Y0126435D01*
X0107447Y0125019D01*
X0107447Y0117581D01*
X0108034Y0116165D01*
X0109118Y0115081D01*
X0110534Y0114494D01*
X0112066Y0114494D01*
X0113482Y0115081D01*
X0114566Y0116165D01*
X0115153Y0117581D01*
X0115153Y0125019D01*
X0114566Y0126435D01*
X0113482Y0127519D01*
X0114014Y0126987D02*
X0118586Y0126987D01*
X0118015Y0126389D02*
X0114585Y0126389D01*
X0114833Y0125790D02*
X0117767Y0125790D01*
X0117519Y0125192D02*
X0115081Y0125192D01*
X0115153Y0124593D02*
X0117447Y0124593D01*
X0117447Y0123995D02*
X0115153Y0123995D01*
X0115153Y0123396D02*
X0117447Y0123396D01*
X0117447Y0122798D02*
X0115153Y0122798D01*
X0115153Y0122199D02*
X0117447Y0122199D01*
X0117447Y0121601D02*
X0115153Y0121601D01*
X0115153Y0121002D02*
X0117447Y0121002D01*
X0117447Y0120404D02*
X0115153Y0120404D01*
X0115153Y0119805D02*
X0117447Y0119805D01*
X0117447Y0119207D02*
X0115153Y0119207D01*
X0115153Y0118608D02*
X0117447Y0118608D01*
X0117447Y0118010D02*
X0115153Y0118010D01*
X0115082Y0117411D02*
X0117518Y0117411D01*
X0117765Y0116813D02*
X0114835Y0116813D01*
X0114587Y0116214D02*
X0118013Y0116214D01*
X0118583Y0115616D02*
X0114017Y0115616D01*
X0113328Y0115017D02*
X0119272Y0115017D01*
X0119323Y0114419D02*
X0070489Y0114419D01*
X0070489Y0113820D02*
X0119111Y0113820D01*
X0119111Y0113222D02*
X0070489Y0113222D01*
X0070219Y0112623D02*
X0119111Y0112623D01*
X0119480Y0112025D02*
X0069620Y0112025D01*
X0068300Y0113800D02*
X0011800Y0113800D01*
X0011300Y0114300D01*
X0011300Y0121300D01*
X0015153Y0121002D02*
X0017447Y0121002D01*
X0017447Y0120404D02*
X0015153Y0120404D01*
X0015153Y0119805D02*
X0017447Y0119805D01*
X0017447Y0119207D02*
X0015153Y0119207D01*
X0015153Y0118608D02*
X0017447Y0118608D01*
X0017447Y0118010D02*
X0015153Y0118010D01*
X0015082Y0117411D02*
X0017518Y0117411D01*
X0017765Y0116813D02*
X0014835Y0116813D01*
X0014587Y0116214D02*
X0018013Y0116214D01*
X0018583Y0115616D02*
X0014017Y0115616D01*
X0013328Y0115017D02*
X0019272Y0115017D01*
X0023328Y0115017D02*
X0029272Y0115017D01*
X0028583Y0115616D02*
X0024017Y0115616D01*
X0024587Y0116214D02*
X0028013Y0116214D01*
X0027765Y0116813D02*
X0024835Y0116813D01*
X0025082Y0117411D02*
X0027518Y0117411D01*
X0027447Y0118010D02*
X0025153Y0118010D01*
X0025153Y0118608D02*
X0027447Y0118608D01*
X0027447Y0119207D02*
X0025153Y0119207D01*
X0025153Y0119805D02*
X0027447Y0119805D01*
X0027447Y0120404D02*
X0025153Y0120404D01*
X0025153Y0121002D02*
X0027447Y0121002D01*
X0027447Y0121601D02*
X0025153Y0121601D01*
X0025153Y0122199D02*
X0027447Y0122199D01*
X0027447Y0122798D02*
X0025153Y0122798D01*
X0025153Y0123396D02*
X0027447Y0123396D01*
X0027447Y0123995D02*
X0025153Y0123995D01*
X0025153Y0124593D02*
X0027447Y0124593D01*
X0027519Y0125192D02*
X0025081Y0125192D01*
X0024833Y0125790D02*
X0027767Y0125790D01*
X0028015Y0126389D02*
X0024585Y0126389D01*
X0024014Y0126987D02*
X0028586Y0126987D01*
X0029279Y0127586D02*
X0023321Y0127586D01*
X0019279Y0127586D02*
X0013321Y0127586D01*
X0014014Y0126987D02*
X0018586Y0126987D01*
X0018015Y0126389D02*
X0014585Y0126389D01*
X0014833Y0125790D02*
X0017767Y0125790D01*
X0017519Y0125192D02*
X0015081Y0125192D01*
X0015153Y0124593D02*
X0017447Y0124593D01*
X0017447Y0123995D02*
X0015153Y0123995D01*
X0015153Y0123396D02*
X0017447Y0123396D01*
X0017447Y0122798D02*
X0015153Y0122798D01*
X0015153Y0122199D02*
X0017447Y0122199D01*
X0017447Y0121601D02*
X0015153Y0121601D01*
X0003600Y0128783D02*
X0280921Y0128783D01*
X0280921Y0129000D02*
X0280921Y0003600D01*
X0003600Y0003600D01*
X0003600Y0129000D01*
X0280921Y0129000D01*
X0280921Y0113820D02*
X0148428Y0113820D01*
X0148428Y0113222D02*
X0280921Y0113222D01*
X0280921Y0112623D02*
X0148428Y0112623D01*
X0148120Y0112025D02*
X0280921Y0112025D01*
X0280921Y0111426D02*
X0147522Y0111426D01*
X0146239Y0113239D02*
X0121361Y0113239D01*
X0121300Y0113300D01*
X0123120Y0112025D02*
X0144358Y0112025D01*
X0144957Y0111426D02*
X0122522Y0111426D01*
X0120078Y0111426D02*
X0066770Y0111426D01*
X0066980Y0112025D02*
X0032671Y0112025D01*
X0033270Y0111426D02*
X0064830Y0111426D01*
X0064232Y0110828D02*
X0033489Y0110828D01*
X0032300Y0109300D02*
X0031300Y0110300D01*
X0032300Y0109300D02*
X0065800Y0109300D01*
X0067368Y0110828D02*
X0280921Y0110828D01*
X0176300Y0107800D02*
X0161800Y0107800D01*
X0163065Y0109631D02*
X0175035Y0109631D01*
X0174436Y0109032D02*
X0163664Y0109032D01*
X0163135Y0106039D02*
X0165444Y0106039D01*
X0166800Y0104300D02*
X0071300Y0104300D01*
X0069111Y0104244D02*
X0060989Y0104244D01*
X0060989Y0104842D02*
X0069111Y0104842D01*
X0069345Y0105441D02*
X0060755Y0105441D01*
X0060156Y0106039D02*
X0069944Y0106039D01*
X0069111Y0103645D02*
X0060989Y0103645D01*
X0060643Y0103047D02*
X0069457Y0103047D01*
X0070056Y0102448D02*
X0060044Y0102448D01*
X0058800Y0104300D02*
X0041800Y0104300D01*
X0041300Y0104800D01*
X0039111Y0104842D02*
X0018438Y0104842D01*
X0019037Y0105441D02*
X0039111Y0105441D01*
X0039111Y0104244D02*
X0014579Y0104244D01*
X0015177Y0103645D02*
X0039359Y0103645D01*
X0039957Y0103047D02*
X0015700Y0103047D01*
X0016162Y0104842D02*
X0013980Y0104842D01*
X0013382Y0105441D02*
X0015563Y0105441D01*
X0015111Y0106039D02*
X0003600Y0106039D01*
X0003600Y0105441D02*
X0009218Y0105441D01*
X0008620Y0104842D02*
X0003600Y0104842D01*
X0003600Y0104244D02*
X0008021Y0104244D01*
X0007423Y0103645D02*
X0003600Y0103645D01*
X0003600Y0103047D02*
X0006900Y0103047D01*
X0006900Y0102448D02*
X0003600Y0102448D01*
X0003600Y0101850D02*
X0006900Y0101850D01*
X0006900Y0101251D02*
X0003600Y0101251D01*
X0003600Y0100653D02*
X0006900Y0100653D01*
X0006900Y0100054D02*
X0003600Y0100054D01*
X0003600Y0099456D02*
X0006922Y0099456D01*
X0007520Y0098857D02*
X0003600Y0098857D01*
X0003600Y0098259D02*
X0008119Y0098259D01*
X0008717Y0097660D02*
X0003600Y0097660D01*
X0003600Y0097062D02*
X0009316Y0097062D01*
X0009044Y0095266D02*
X0003600Y0095266D01*
X0003600Y0094668D02*
X0008445Y0094668D01*
X0007847Y0094069D02*
X0003600Y0094069D01*
X0003600Y0093471D02*
X0007248Y0093471D01*
X0006900Y0092872D02*
X0003600Y0092872D01*
X0003600Y0092274D02*
X0006900Y0092274D01*
X0006900Y0091675D02*
X0003600Y0091675D01*
X0003600Y0091077D02*
X0006900Y0091077D01*
X0006900Y0090478D02*
X0003600Y0090478D01*
X0003600Y0089880D02*
X0006900Y0089880D01*
X0007096Y0089281D02*
X0003600Y0089281D01*
X0003600Y0088683D02*
X0007695Y0088683D01*
X0008293Y0088084D02*
X0003600Y0088084D01*
X0003600Y0087486D02*
X0008892Y0087486D01*
X0013708Y0087486D02*
X0044019Y0087486D01*
X0043611Y0088084D02*
X0014307Y0088084D01*
X0014905Y0088683D02*
X0043611Y0088683D01*
X0043611Y0089281D02*
X0015504Y0089281D01*
X0015700Y0089880D02*
X0043784Y0089880D01*
X0044383Y0090478D02*
X0015700Y0090478D01*
X0015700Y0091077D02*
X0045673Y0091077D01*
X0047989Y0088084D02*
X0110920Y0088084D01*
X0113693Y0086289D02*
X0100489Y0086289D01*
X0100309Y0086887D02*
X0114291Y0086887D01*
X0117189Y0080800D02*
X0058300Y0080800D01*
X0057300Y0081800D01*
X0055701Y0080303D02*
X0035892Y0080303D01*
X0036491Y0079705D02*
X0056299Y0079705D01*
X0044617Y0086887D02*
X0003600Y0086887D01*
X0003600Y0106638D02*
X0015111Y0106638D01*
X0015111Y0107237D02*
X0003600Y0107237D01*
X0003600Y0107835D02*
X0015239Y0107835D01*
X0018762Y0108434D02*
X0030071Y0108434D01*
X0033328Y0115017D02*
X0039272Y0115017D01*
X0038583Y0115616D02*
X0034017Y0115616D01*
X0034587Y0116214D02*
X0038013Y0116214D01*
X0037765Y0116813D02*
X0034835Y0116813D01*
X0035082Y0117411D02*
X0037518Y0117411D01*
X0037447Y0118010D02*
X0035153Y0118010D01*
X0035153Y0118608D02*
X0037447Y0118608D01*
X0037447Y0119207D02*
X0035153Y0119207D01*
X0035153Y0119805D02*
X0037447Y0119805D01*
X0037447Y0120404D02*
X0035153Y0120404D01*
X0035153Y0121002D02*
X0037447Y0121002D01*
X0037447Y0121601D02*
X0035153Y0121601D01*
X0035153Y0122199D02*
X0037447Y0122199D01*
X0037447Y0122798D02*
X0035153Y0122798D01*
X0035153Y0123396D02*
X0037447Y0123396D01*
X0037447Y0123995D02*
X0035153Y0123995D01*
X0035153Y0124593D02*
X0037447Y0124593D01*
X0037519Y0125192D02*
X0035081Y0125192D01*
X0034833Y0125790D02*
X0037767Y0125790D01*
X0038015Y0126389D02*
X0034585Y0126389D01*
X0034014Y0126987D02*
X0038586Y0126987D01*
X0039279Y0127586D02*
X0033321Y0127586D01*
X0043321Y0127586D02*
X0049279Y0127586D01*
X0048586Y0126987D02*
X0044014Y0126987D01*
X0044585Y0126389D02*
X0048015Y0126389D01*
X0047767Y0125790D02*
X0044833Y0125790D01*
X0045081Y0125192D02*
X0047519Y0125192D01*
X0047447Y0124593D02*
X0045153Y0124593D01*
X0045153Y0123995D02*
X0047447Y0123995D01*
X0047447Y0123396D02*
X0045153Y0123396D01*
X0045153Y0122798D02*
X0047447Y0122798D01*
X0047447Y0122199D02*
X0045153Y0122199D01*
X0045153Y0121601D02*
X0047447Y0121601D01*
X0047447Y0121002D02*
X0045153Y0121002D01*
X0045153Y0120404D02*
X0047447Y0120404D01*
X0047447Y0119805D02*
X0045153Y0119805D01*
X0045153Y0119207D02*
X0047447Y0119207D01*
X0047447Y0118608D02*
X0045153Y0118608D01*
X0045153Y0118010D02*
X0047447Y0118010D01*
X0047518Y0117411D02*
X0045082Y0117411D01*
X0044835Y0116813D02*
X0047765Y0116813D01*
X0048013Y0116214D02*
X0044587Y0116214D01*
X0044017Y0115616D02*
X0048583Y0115616D01*
X0049272Y0115017D02*
X0043328Y0115017D01*
X0053328Y0115017D02*
X0059272Y0115017D01*
X0058583Y0115616D02*
X0054017Y0115616D01*
X0054587Y0116214D02*
X0058013Y0116214D01*
X0057765Y0116813D02*
X0054835Y0116813D01*
X0055082Y0117411D02*
X0057518Y0117411D01*
X0057447Y0118010D02*
X0055153Y0118010D01*
X0055153Y0118608D02*
X0057447Y0118608D01*
X0057447Y0119207D02*
X0055153Y0119207D01*
X0055153Y0119805D02*
X0057447Y0119805D01*
X0057447Y0120404D02*
X0055153Y0120404D01*
X0055153Y0121002D02*
X0057447Y0121002D01*
X0057447Y0121601D02*
X0055153Y0121601D01*
X0055153Y0122199D02*
X0057447Y0122199D01*
X0057447Y0122798D02*
X0055153Y0122798D01*
X0055153Y0123396D02*
X0057447Y0123396D01*
X0057447Y0123995D02*
X0055153Y0123995D01*
X0055153Y0124593D02*
X0057447Y0124593D01*
X0057519Y0125192D02*
X0055081Y0125192D01*
X0054833Y0125790D02*
X0057767Y0125790D01*
X0058015Y0126389D02*
X0054585Y0126389D01*
X0054014Y0126987D02*
X0058586Y0126987D01*
X0059279Y0127586D02*
X0053321Y0127586D01*
X0063321Y0127586D02*
X0069279Y0127586D01*
X0068586Y0126987D02*
X0064014Y0126987D01*
X0064585Y0126389D02*
X0068015Y0126389D01*
X0067767Y0125790D02*
X0064833Y0125790D01*
X0065081Y0125192D02*
X0067519Y0125192D01*
X0067447Y0124593D02*
X0065153Y0124593D01*
X0065153Y0123995D02*
X0067447Y0123995D01*
X0067447Y0123396D02*
X0065153Y0123396D01*
X0065153Y0122798D02*
X0067447Y0122798D01*
X0067447Y0122199D02*
X0065153Y0122199D01*
X0065153Y0121601D02*
X0067447Y0121601D01*
X0067447Y0121002D02*
X0065153Y0121002D01*
X0065153Y0120404D02*
X0067447Y0120404D01*
X0067447Y0119805D02*
X0065153Y0119805D01*
X0065153Y0119207D02*
X0067447Y0119207D01*
X0067447Y0118608D02*
X0065153Y0118608D01*
X0065153Y0118010D02*
X0067447Y0118010D01*
X0067518Y0117411D02*
X0065082Y0117411D01*
X0064835Y0116813D02*
X0067765Y0116813D01*
X0068013Y0116214D02*
X0064587Y0116214D01*
X0064017Y0115616D02*
X0067020Y0115616D01*
X0066421Y0115017D02*
X0063328Y0115017D01*
X0073328Y0115017D02*
X0079272Y0115017D01*
X0079118Y0115081D02*
X0080534Y0114494D01*
X0082066Y0114494D01*
X0083482Y0115081D01*
X0084566Y0116165D01*
X0085153Y0117581D01*
X0085153Y0125019D01*
X0084566Y0126435D01*
X0083482Y0127519D01*
X0082066Y0128105D01*
X0080534Y0128105D01*
X0079118Y0127519D01*
X0078034Y0126435D01*
X0077447Y0125019D01*
X0077447Y0117581D01*
X0078034Y0116165D01*
X0079118Y0115081D01*
X0078583Y0115616D02*
X0074017Y0115616D01*
X0074587Y0116214D02*
X0078013Y0116214D01*
X0077765Y0116813D02*
X0074835Y0116813D01*
X0075082Y0117411D02*
X0077518Y0117411D01*
X0077447Y0118010D02*
X0075153Y0118010D01*
X0075153Y0118608D02*
X0077447Y0118608D01*
X0077447Y0119207D02*
X0075153Y0119207D01*
X0075153Y0119805D02*
X0077447Y0119805D01*
X0077447Y0120404D02*
X0075153Y0120404D01*
X0075153Y0121002D02*
X0077447Y0121002D01*
X0077447Y0121601D02*
X0075153Y0121601D01*
X0075153Y0122199D02*
X0077447Y0122199D01*
X0077447Y0122798D02*
X0075153Y0122798D01*
X0075153Y0123396D02*
X0077447Y0123396D01*
X0077447Y0123995D02*
X0075153Y0123995D01*
X0075153Y0124593D02*
X0077447Y0124593D01*
X0077519Y0125192D02*
X0075081Y0125192D01*
X0074833Y0125790D02*
X0077767Y0125790D01*
X0078015Y0126389D02*
X0074585Y0126389D01*
X0074014Y0126987D02*
X0078586Y0126987D01*
X0079279Y0127586D02*
X0073321Y0127586D01*
X0083321Y0127586D02*
X0089279Y0127586D01*
X0089118Y0127519D02*
X0088034Y0126435D01*
X0087447Y0125019D01*
X0087447Y0117581D01*
X0088034Y0116165D01*
X0089118Y0115081D01*
X0090534Y0114494D01*
X0092066Y0114494D01*
X0093482Y0115081D01*
X0094566Y0116165D01*
X0095153Y0117581D01*
X0095153Y0125019D01*
X0094566Y0126435D01*
X0093482Y0127519D01*
X0092066Y0128105D01*
X0090534Y0128105D01*
X0089118Y0127519D01*
X0088586Y0126987D02*
X0084014Y0126987D01*
X0084585Y0126389D02*
X0088015Y0126389D01*
X0087767Y0125790D02*
X0084833Y0125790D01*
X0085081Y0125192D02*
X0087519Y0125192D01*
X0087447Y0124593D02*
X0085153Y0124593D01*
X0085153Y0123995D02*
X0087447Y0123995D01*
X0087447Y0123396D02*
X0085153Y0123396D01*
X0085153Y0122798D02*
X0087447Y0122798D01*
X0087447Y0122199D02*
X0085153Y0122199D01*
X0085153Y0121601D02*
X0087447Y0121601D01*
X0087447Y0121002D02*
X0085153Y0121002D01*
X0085153Y0120404D02*
X0087447Y0120404D01*
X0087447Y0119805D02*
X0085153Y0119805D01*
X0085153Y0119207D02*
X0087447Y0119207D01*
X0087447Y0118608D02*
X0085153Y0118608D01*
X0085153Y0118010D02*
X0087447Y0118010D01*
X0087518Y0117411D02*
X0085082Y0117411D01*
X0084835Y0116813D02*
X0087765Y0116813D01*
X0088013Y0116214D02*
X0084587Y0116214D01*
X0084017Y0115616D02*
X0088583Y0115616D01*
X0089272Y0115017D02*
X0083328Y0115017D01*
X0093328Y0115017D02*
X0099272Y0115017D01*
X0099118Y0115081D02*
X0100534Y0114494D01*
X0102066Y0114494D01*
X0103482Y0115081D01*
X0104566Y0116165D01*
X0105153Y0117581D01*
X0105153Y0125019D01*
X0104566Y0126435D01*
X0103482Y0127519D01*
X0102066Y0128105D01*
X0100534Y0128105D01*
X0099118Y0127519D01*
X0098034Y0126435D01*
X0097447Y0125019D01*
X0097447Y0117581D01*
X0098034Y0116165D01*
X0099118Y0115081D01*
X0098583Y0115616D02*
X0094017Y0115616D01*
X0094587Y0116214D02*
X0098013Y0116214D01*
X0097765Y0116813D02*
X0094835Y0116813D01*
X0095082Y0117411D02*
X0097518Y0117411D01*
X0097447Y0118010D02*
X0095153Y0118010D01*
X0095153Y0118608D02*
X0097447Y0118608D01*
X0097447Y0119207D02*
X0095153Y0119207D01*
X0095153Y0119805D02*
X0097447Y0119805D01*
X0097447Y0120404D02*
X0095153Y0120404D01*
X0095153Y0121002D02*
X0097447Y0121002D01*
X0097447Y0121601D02*
X0095153Y0121601D01*
X0095153Y0122199D02*
X0097447Y0122199D01*
X0097447Y0122798D02*
X0095153Y0122798D01*
X0095153Y0123396D02*
X0097447Y0123396D01*
X0097447Y0123995D02*
X0095153Y0123995D01*
X0095153Y0124593D02*
X0097447Y0124593D01*
X0097519Y0125192D02*
X0095081Y0125192D01*
X0094833Y0125790D02*
X0097767Y0125790D01*
X0098015Y0126389D02*
X0094585Y0126389D01*
X0094014Y0126987D02*
X0098586Y0126987D01*
X0099279Y0127586D02*
X0093321Y0127586D01*
X0103321Y0127586D02*
X0109279Y0127586D01*
X0108586Y0126987D02*
X0104014Y0126987D01*
X0104585Y0126389D02*
X0108015Y0126389D01*
X0107767Y0125790D02*
X0104833Y0125790D01*
X0105081Y0125192D02*
X0107519Y0125192D01*
X0107447Y0124593D02*
X0105153Y0124593D01*
X0105153Y0123995D02*
X0107447Y0123995D01*
X0107447Y0123396D02*
X0105153Y0123396D01*
X0105153Y0122798D02*
X0107447Y0122798D01*
X0107447Y0122199D02*
X0105153Y0122199D01*
X0105153Y0121601D02*
X0107447Y0121601D01*
X0107447Y0121002D02*
X0105153Y0121002D01*
X0105153Y0120404D02*
X0107447Y0120404D01*
X0107447Y0119805D02*
X0105153Y0119805D01*
X0105153Y0119207D02*
X0107447Y0119207D01*
X0107447Y0118608D02*
X0105153Y0118608D01*
X0105153Y0118010D02*
X0107447Y0118010D01*
X0107518Y0117411D02*
X0105082Y0117411D01*
X0104835Y0116813D02*
X0107765Y0116813D01*
X0108013Y0116214D02*
X0104587Y0116214D01*
X0104017Y0115616D02*
X0108583Y0115616D01*
X0109272Y0115017D02*
X0103328Y0115017D01*
X0123328Y0115017D02*
X0128648Y0115017D01*
X0128028Y0115616D02*
X0124017Y0115616D01*
X0124587Y0116214D02*
X0127614Y0116214D01*
X0127327Y0116813D02*
X0124835Y0116813D01*
X0125082Y0117411D02*
X0127142Y0117411D01*
X0127048Y0118010D02*
X0125153Y0118010D01*
X0125153Y0118608D02*
X0127047Y0118608D01*
X0127047Y0119207D02*
X0125153Y0119207D01*
X0125153Y0119805D02*
X0127047Y0119805D01*
X0127047Y0120404D02*
X0125153Y0120404D01*
X0143321Y0127586D02*
X0149279Y0127586D01*
X0148586Y0126987D02*
X0144014Y0126987D01*
X0144585Y0126389D02*
X0148015Y0126389D01*
X0147767Y0125790D02*
X0144833Y0125790D01*
X0145081Y0125192D02*
X0147519Y0125192D01*
X0147447Y0124593D02*
X0145153Y0124593D01*
X0145153Y0123995D02*
X0147447Y0123995D01*
X0147447Y0123396D02*
X0145153Y0123396D01*
X0145153Y0122798D02*
X0147447Y0122798D01*
X0147447Y0122199D02*
X0145153Y0122199D01*
X0145153Y0121601D02*
X0147447Y0121601D01*
X0147447Y0121002D02*
X0145153Y0121002D01*
X0145153Y0120404D02*
X0147447Y0120404D01*
X0147447Y0119805D02*
X0145153Y0119805D01*
X0145153Y0119207D02*
X0147447Y0119207D01*
X0147447Y0118608D02*
X0145153Y0118608D01*
X0145153Y0118010D02*
X0147447Y0118010D01*
X0147518Y0117411D02*
X0145082Y0117411D01*
X0144835Y0116813D02*
X0147765Y0116813D01*
X0148013Y0116214D02*
X0144587Y0116214D01*
X0153328Y0115017D02*
X0159272Y0115017D01*
X0158583Y0115616D02*
X0154017Y0115616D01*
X0154587Y0116214D02*
X0158013Y0116214D01*
X0157765Y0116813D02*
X0154835Y0116813D01*
X0155082Y0117411D02*
X0157518Y0117411D01*
X0157447Y0118010D02*
X0155153Y0118010D01*
X0155153Y0118608D02*
X0157447Y0118608D01*
X0157447Y0119207D02*
X0155153Y0119207D01*
X0155153Y0119805D02*
X0157447Y0119805D01*
X0157447Y0120404D02*
X0155153Y0120404D01*
X0155153Y0121002D02*
X0157447Y0121002D01*
X0157447Y0121601D02*
X0155153Y0121601D01*
X0155153Y0122199D02*
X0157447Y0122199D01*
X0157447Y0122798D02*
X0155153Y0122798D01*
X0155153Y0123396D02*
X0157447Y0123396D01*
X0157447Y0123995D02*
X0155153Y0123995D01*
X0155153Y0124593D02*
X0157447Y0124593D01*
X0157519Y0125192D02*
X0155081Y0125192D01*
X0154833Y0125790D02*
X0157767Y0125790D01*
X0158015Y0126389D02*
X0154585Y0126389D01*
X0154014Y0126987D02*
X0158586Y0126987D01*
X0159279Y0127586D02*
X0153321Y0127586D01*
X0160465Y0106039D02*
X0072656Y0106039D01*
X0073143Y0103047D02*
X0110951Y0103047D01*
X0110353Y0102448D02*
X0072544Y0102448D01*
X0057444Y0106039D02*
X0056489Y0106039D01*
X0108828Y0053969D02*
X0117813Y0053969D01*
X0117215Y0053370D02*
X0109427Y0053370D01*
X0107800Y0050300D02*
X0094800Y0050300D01*
X0094800Y0046300D01*
X0092300Y0043800D01*
X0098300Y0046800D02*
X0110300Y0046800D01*
X0112378Y0044722D01*
X0117800Y0044722D01*
X0120523Y0043144D02*
X0116290Y0038911D01*
X0114310Y0038911D01*
X0113421Y0039800D01*
X0119680Y0037211D02*
X0148111Y0037211D01*
X0148111Y0037809D02*
X0120279Y0037809D01*
X0120877Y0038408D02*
X0147946Y0038408D01*
X0147348Y0039006D02*
X0121476Y0039006D01*
X0119082Y0036612D02*
X0148343Y0036612D01*
X0148942Y0036014D02*
X0118483Y0036014D01*
X0117989Y0034218D02*
X0119875Y0034218D01*
X0119276Y0033620D02*
X0117989Y0033620D01*
X0117989Y0033021D02*
X0118678Y0033021D01*
X0118079Y0032423D02*
X0117796Y0032423D01*
X0117481Y0031824D02*
X0117198Y0031824D01*
X0109430Y0030627D02*
X0097112Y0030627D01*
X0096514Y0030029D02*
X0108831Y0030029D01*
X0133300Y0023300D02*
X0137800Y0027800D01*
X0144219Y0027800D01*
X0144719Y0027300D01*
X0183211Y0027300D01*
X0184300Y0026211D01*
X0184352Y0023445D02*
X0192849Y0023445D01*
X0192251Y0022846D02*
X0184951Y0022846D01*
X0184800Y0021300D02*
X0180000Y0026100D01*
X0142100Y0026100D01*
X0140800Y0024800D01*
X0136497Y0024800D01*
X0141942Y0022846D02*
X0143442Y0022846D01*
X0144041Y0023445D02*
X0142541Y0023445D01*
X0142989Y0024043D02*
X0178448Y0024043D01*
X0179761Y0024642D02*
X0142989Y0024642D01*
X0145857Y0020452D02*
X0178552Y0020452D01*
X0181048Y0020452D02*
X0183951Y0020452D01*
X0183352Y0021051D02*
X0181647Y0021051D01*
X0181989Y0021649D02*
X0182754Y0021649D01*
X0182155Y0022248D02*
X0181989Y0022248D01*
X0184800Y0021300D02*
X0193800Y0021300D01*
X0192749Y0019255D02*
X0192489Y0019255D01*
X0190300Y0018800D02*
X0155800Y0018800D01*
X0151300Y0014300D01*
X0151300Y0011300D01*
X0147447Y0011475D02*
X0145153Y0011475D01*
X0145153Y0012073D02*
X0147447Y0012073D01*
X0147447Y0012672D02*
X0145153Y0012672D01*
X0145153Y0013270D02*
X0147447Y0013270D01*
X0147447Y0013869D02*
X0145153Y0013869D01*
X0145153Y0014467D02*
X0147447Y0014467D01*
X0147467Y0015066D02*
X0145133Y0015066D01*
X0144886Y0015664D02*
X0147714Y0015664D01*
X0147962Y0016263D02*
X0144638Y0016263D01*
X0144140Y0016861D02*
X0148460Y0016861D01*
X0149058Y0017460D02*
X0143542Y0017460D01*
X0143462Y0018058D02*
X0150420Y0018058D01*
X0152180Y0018058D02*
X0153361Y0018058D01*
X0153960Y0018657D02*
X0144061Y0018657D01*
X0144659Y0019255D02*
X0154558Y0019255D01*
X0155157Y0019854D02*
X0145258Y0019854D01*
X0139058Y0017460D02*
X0133542Y0017460D01*
X0134140Y0016861D02*
X0138460Y0016861D01*
X0137962Y0016263D02*
X0134638Y0016263D01*
X0134886Y0015664D02*
X0137714Y0015664D01*
X0137467Y0015066D02*
X0135133Y0015066D01*
X0135153Y0014467D02*
X0137447Y0014467D01*
X0137447Y0013869D02*
X0135153Y0013869D01*
X0135153Y0013270D02*
X0137447Y0013270D01*
X0137447Y0012672D02*
X0135153Y0012672D01*
X0135153Y0012073D02*
X0137447Y0012073D01*
X0137447Y0011475D02*
X0135153Y0011475D01*
X0135153Y0010876D02*
X0137447Y0010876D01*
X0137447Y0010278D02*
X0135153Y0010278D01*
X0135153Y0009679D02*
X0137447Y0009679D01*
X0137447Y0009081D02*
X0135153Y0009081D01*
X0135153Y0008482D02*
X0137447Y0008482D01*
X0137447Y0007884D02*
X0135153Y0007884D01*
X0135030Y0007285D02*
X0137570Y0007285D01*
X0137818Y0006687D02*
X0134782Y0006687D01*
X0134489Y0006088D02*
X0138111Y0006088D01*
X0138709Y0005490D02*
X0133891Y0005490D01*
X0133024Y0004891D02*
X0139576Y0004891D01*
X0143024Y0004891D02*
X0149576Y0004891D01*
X0148709Y0005490D02*
X0143891Y0005490D01*
X0144489Y0006088D02*
X0148111Y0006088D01*
X0147818Y0006687D02*
X0144782Y0006687D01*
X0145030Y0007285D02*
X0147570Y0007285D01*
X0147447Y0007884D02*
X0145153Y0007884D01*
X0145153Y0008482D02*
X0147447Y0008482D01*
X0147447Y0009081D02*
X0145153Y0009081D01*
X0145153Y0009679D02*
X0147447Y0009679D01*
X0147447Y0010278D02*
X0145153Y0010278D01*
X0145153Y0010876D02*
X0147447Y0010876D01*
X0155153Y0010876D02*
X0157447Y0010876D01*
X0157447Y0010278D02*
X0155153Y0010278D01*
X0155153Y0009679D02*
X0157447Y0009679D01*
X0157447Y0009081D02*
X0155153Y0009081D01*
X0155153Y0008482D02*
X0157447Y0008482D01*
X0157447Y0007884D02*
X0155153Y0007884D01*
X0155030Y0007285D02*
X0157570Y0007285D01*
X0157818Y0006687D02*
X0154782Y0006687D01*
X0154489Y0006088D02*
X0158111Y0006088D01*
X0158709Y0005490D02*
X0153891Y0005490D01*
X0153024Y0004891D02*
X0159576Y0004891D01*
X0157447Y0011475D02*
X0155153Y0011475D01*
X0155153Y0012073D02*
X0157447Y0012073D01*
X0157447Y0012672D02*
X0155153Y0012672D01*
X0155153Y0013270D02*
X0157447Y0013270D01*
X0157447Y0013869D02*
X0155153Y0013869D01*
X0155153Y0014467D02*
X0157447Y0014467D01*
X0157467Y0015066D02*
X0155133Y0015066D01*
X0154886Y0015664D02*
X0157714Y0015664D01*
X0157962Y0016263D02*
X0154960Y0016263D01*
X0155558Y0016861D02*
X0158460Y0016861D01*
X0159058Y0017460D02*
X0156157Y0017460D01*
X0163542Y0017460D02*
X0188545Y0017460D01*
X0189143Y0016861D02*
X0164140Y0016861D01*
X0147494Y0029800D02*
X0143994Y0033300D01*
X0150300Y0037751D02*
X0147307Y0040744D01*
X0153033Y0041944D02*
X0154911Y0040066D01*
X0157100Y0040203D02*
X0225648Y0040203D01*
X0225050Y0039605D02*
X0157100Y0039605D01*
X0157100Y0040802D02*
X0226247Y0040802D01*
X0226845Y0041400D02*
X0156673Y0041400D01*
X0158689Y0039006D02*
X0205411Y0039006D01*
X0208189Y0039006D02*
X0224451Y0039006D01*
X0223853Y0038408D02*
X0208788Y0038408D01*
X0208989Y0037809D02*
X0223254Y0037809D01*
X0222656Y0037211D02*
X0208989Y0037211D01*
X0208989Y0036612D02*
X0222057Y0036612D01*
X0221459Y0036014D02*
X0208609Y0036014D01*
X0208011Y0035415D02*
X0220860Y0035415D01*
X0205589Y0035415D02*
X0158511Y0035415D01*
X0152725Y0049779D02*
X0119815Y0049779D01*
X0120414Y0050378D02*
X0152611Y0050378D01*
X0152611Y0050976D02*
X0120993Y0050976D01*
X0120993Y0051575D02*
X0152611Y0051575D01*
X0153078Y0052173D02*
X0120993Y0052173D01*
X0120991Y0052772D02*
X0153676Y0052772D01*
X0159434Y0053969D02*
X0119794Y0053969D01*
X0117800Y0048300D02*
X0109800Y0048300D01*
X0107800Y0050300D01*
X0107821Y0048582D02*
X0099613Y0048582D01*
X0045145Y0025240D02*
X0043489Y0025240D01*
X0043027Y0024642D02*
X0044546Y0024642D01*
X0044111Y0024043D02*
X0042428Y0024043D01*
X0033892Y0036612D02*
X0022208Y0036612D01*
X0019794Y0037211D02*
X0013433Y0037211D01*
X0014032Y0037809D02*
X0019195Y0037809D01*
X0019111Y0038408D02*
X0014630Y0038408D01*
X0015229Y0039006D02*
X0019111Y0039006D01*
X0019111Y0039605D02*
X0015700Y0039605D01*
X0015700Y0040203D02*
X0019608Y0040203D01*
X0020206Y0040802D02*
X0015700Y0040802D01*
X0022394Y0040802D02*
X0033706Y0040802D01*
X0003600Y0003694D02*
X0280921Y0003694D01*
X0129576Y0004891D02*
X0123024Y0004891D01*
X0123891Y0005490D02*
X0128709Y0005490D01*
X0128111Y0006088D02*
X0124489Y0006088D01*
X0124782Y0006687D02*
X0127818Y0006687D01*
X0127570Y0007285D02*
X0125030Y0007285D01*
X0125153Y0007884D02*
X0127447Y0007884D01*
X0127447Y0008482D02*
X0125153Y0008482D01*
X0125153Y0009081D02*
X0127447Y0009081D01*
X0127447Y0009679D02*
X0125153Y0009679D01*
X0125153Y0010278D02*
X0127447Y0010278D01*
X0127447Y0010876D02*
X0125153Y0010876D01*
X0125153Y0011475D02*
X0127447Y0011475D01*
X0127447Y0012073D02*
X0125153Y0012073D01*
X0125153Y0012672D02*
X0127447Y0012672D01*
X0127447Y0013270D02*
X0125153Y0013270D01*
X0125153Y0013869D02*
X0127447Y0013869D01*
X0127447Y0014467D02*
X0125153Y0014467D01*
X0125133Y0015066D02*
X0127467Y0015066D01*
X0127714Y0015664D02*
X0124886Y0015664D01*
X0117447Y0010876D02*
X0115153Y0010876D01*
X0115153Y0010278D02*
X0117447Y0010278D01*
X0117447Y0009679D02*
X0115153Y0009679D01*
X0115153Y0009081D02*
X0117447Y0009081D01*
X0117447Y0008482D02*
X0115153Y0008482D01*
X0115153Y0007884D02*
X0117447Y0007884D01*
X0117570Y0007285D02*
X0115030Y0007285D01*
X0114782Y0006687D02*
X0117818Y0006687D01*
X0118111Y0006088D02*
X0114489Y0006088D01*
X0113891Y0005490D02*
X0118709Y0005490D01*
X0119576Y0004891D02*
X0113024Y0004891D01*
D18*
X0141300Y0011300D02*
X0141300Y0018300D01*
X0145300Y0022300D01*
X0179800Y0022300D01*
X0161300Y0011300D02*
X0223800Y0011300D01*
X0206800Y0037300D02*
X0157300Y0037300D01*
X0183300Y0055300D02*
X0183800Y0055800D01*
X0219800Y0055800D01*
X0236752Y0055800D01*
X0244752Y0063800D01*
X0207800Y0101300D02*
X0151300Y0101300D01*
X0136800Y0101300D01*
X0112300Y0101300D01*
X0112300Y0089800D02*
X0046800Y0089800D01*
X0045800Y0088800D01*
X0034800Y0078300D02*
X0027800Y0071300D01*
X0011300Y0071300D01*
X0011300Y0061300D02*
X0025800Y0061300D01*
X0034800Y0070300D01*
X0041886Y0056300D02*
X0050300Y0056300D01*
X0054300Y0055300D02*
X0049800Y0050800D01*
X0028800Y0050800D01*
X0028300Y0051300D01*
X0011300Y0051300D01*
X0024800Y0046800D02*
X0034800Y0046800D01*
X0043800Y0042800D02*
X0047800Y0046800D01*
X0051300Y0046800D01*
X0056300Y0051800D01*
X0081300Y0051800D01*
X0077800Y0055300D02*
X0054300Y0055300D01*
X0041886Y0056300D02*
X0040997Y0055411D01*
X0035911Y0055411D01*
X0034800Y0054300D01*
X0043800Y0042800D02*
X0012800Y0042800D01*
X0011300Y0041300D01*
X0021300Y0038800D02*
X0034800Y0038800D01*
X0041300Y0031300D02*
X0011300Y0031300D01*
X0041300Y0031300D02*
X0058300Y0048300D01*
X0084800Y0048300D01*
X0050300Y0101300D02*
X0011300Y0101300D01*
M02*
