%
M48
M72
T01C0.01378
T02C0.02756
T03C0.03150
T04C0.03543
T05C0.03937
T06C0.04000
%
T01
X7800Y22300
X21300Y27300
X25300Y22800
X31300Y27211
X36300Y22300
X41300Y26011
X46300Y23300
X66300Y20800
X81300Y28422
X71300Y29622
X69300Y36800
X60800Y39800
X54800Y38800
X63189Y43800
X81300Y51800
X77800Y55300
X88300Y54300
X94800Y50300
X98300Y46800
X97800Y54300
X84800Y48300
X115300Y41300
X117800Y44722
X117800Y48300
X118804Y51864
X129800Y47300
X142800Y46800
X154800Y47222
X154800Y50800
X162800Y47800
X154911Y43644
X154911Y40066
X157300Y37300
X150300Y37751
X143994Y33300
X140417Y33300
X134439Y33300
X132800Y29300
X137800Y27800
X140800Y24800
X129800Y25800
X121300Y28800
X115800Y33522
X101300Y25800
X106300Y18800
X125800Y18800
X85800Y18800
X34800Y38800
X21300Y38800
X24800Y46800
X34800Y46800
X34800Y54300
X34800Y58300
X28300Y56300
X50300Y56300
X54300Y58800
X50300Y66300
X57300Y73800
X57300Y81800
X65578Y83300
X72800Y73800
X91300Y68689
X97800Y73300
X98300Y78300
X98300Y85800
X112300Y89800
X115300Y84800
X117189Y80800
X119800Y77800
X125300Y73300
X125008Y68800
X120230Y64800
X129800Y58300
X142800Y58300
X154300Y58300
X158050Y56550
X164800Y56800
X183300Y55300
X196300Y61300
X201800Y66300
X190300Y71800
X188300Y84300
X201800Y84800
X221800Y71800
X230800Y78300
X230800Y84800
X254300Y95300
X233800Y113800
X254300Y122800
X207800Y101300
X176300Y107800
X166800Y104300
X161800Y107800
X151300Y101300
X136800Y101300
X112300Y101300
X121300Y113300
X146239Y113239
X188800Y117800
X256300Y66809
X256300Y63231
X244752Y63800
X232300Y64800
X221800Y63800
X219800Y55800
X228300Y45300
X215300Y38800
X206800Y37300
X184300Y26211
X179800Y22300
X190300Y18800
X193800Y21300
X165800Y33300
X175800Y40300
X176300Y44300
X157800Y65300
X150800Y65300
X77300Y97800
X71300Y104300
X65800Y109300
X68300Y113800
X77300Y109300
X58800Y104300
X54300Y106800
X50300Y101300
X41300Y104800
X31300Y110300
X17300Y106800
X8300Y111300
X45800Y88800
X28300Y84800
X34800Y78300
X34800Y70300
X223800Y11300
X230800Y20800
X258800Y21300
X274300Y66300
T02
X266300Y73977
X266300Y58623
T03
X262757Y53308
X262757Y79292
T04
X273780Y80473
X273780Y52127
T05
X11300Y11300
X21300Y11300
X31300Y11300
X41300Y11300
X51300Y11300
X61300Y11300
X71300Y11300
X81300Y11300
X91300Y11300
X101300Y11300
X111300Y11300
X121300Y11300
X131300Y11300
X141300Y11300
X151300Y11300
X161300Y11300
X171300Y51300
X171300Y61300
X171300Y71300
X161300Y121300
X151300Y121300
X141300Y121300
X131300Y121300
X121300Y121300
X111300Y121300
X101300Y121300
X91300Y121300
X81300Y121300
X71300Y121300
X61300Y121300
X51300Y121300
X41300Y121300
X31300Y121300
X21300Y121300
X11300Y121300
T06
X11300Y101300
X11300Y91300
X11300Y81300
X11300Y71300
X11300Y61300
X11300Y51300
X11300Y41300
X11300Y31300
M30
