M48
;GenerationSoftware,Autodesk,EAGLE,9.6.2*%
;CreationDate,2021-06-28T16:23:57Z*%
FMAT,2
ICI,OFF
METRIC,TZ,000.000
T6C0.350
T5C0.700
T4C0.800
T3C0.900
T2C1.000
T1C1.016
%
G90
M71
T1
X2540Y25400
X2540Y22860
X2540Y20320
X2540Y17780
X2540Y15240
X2540Y12700
X2540Y10160
X2540Y7620
T2
X27940Y2540
X25400Y2540
X22860Y2540
X20320Y2540
X17780Y2540
X15240Y2540
X12700Y2540
X10160Y2540
X7620Y2540
X5080Y2540
X2540Y2540
X2540Y30480
X5080Y30480
X7620Y30480
X10160Y30480
X12700Y30480
X15240Y30480
X17780Y30480
X22860Y30480
X25400Y30480
X27940Y30480
X30480Y30480
X33020Y30480
X35560Y30480
X38100Y30480
X40640Y30480
X20320Y30480
X40640Y2540
X38100Y2540
X35560Y2540
X33020Y2540
X30480Y2540
X43180Y12700
X43180Y15240
X43180Y17780
T3
X69210Y12910
X69210Y20110
T4
X66410Y13210
X66410Y19810
T5
X67310Y14560
X67310Y18460
T6
X36815Y28433
X30480Y28448
X24511Y18288
X31496Y18288
X21209Y11938
X31422Y17145
X58293Y21209
X50927Y21209
X50927Y16510
X22860Y17117
X24638Y19558
X30099Y19431
X20320Y12827
X30208Y16129
X12446Y25400
X12446Y16510
X8509Y13462
X12446Y13970
X29436Y20193
X14224Y20447
X13462Y26797
X4064Y26797
X28956Y21209
X16327Y20828
X16383Y27432
X7620Y27686
X29591Y11029
X24638Y11557
X15113Y9779
X14605Y26162
X10160Y26289
X29083Y8184
X17780Y7194
X31623Y4445
X32639Y6223
X25400Y6223
X33401Y7112
X30480Y6985
X33817Y8128
X20320Y6889
X46482Y6327
X34671Y6731
X11430Y5588
X48895Y5080
X39751Y16256
X16510Y4953
X35336Y8128
X64770Y15731
X36244Y8128
X64770Y16639
X39017Y10755
X5080Y6604
X39815Y14033
X38862Y14478
X42037Y26162
X17780Y26162
X37973Y16256
X8509Y14478
X6096Y5461
X29846Y12843
X24511Y13462
X13462Y14605
X29591Y11938
X23749Y12446
X15720Y10795
X37846Y9259
X10160Y6277
X39017Y9847
X7620Y6581
X61837Y15875
X55499Y13843
X46228Y13716
X45339Y5334
X56515Y2540
X28956Y10160
X17272Y9017
X17018Y28575
X56007Y17907
X48006Y17907
X48006Y4445
X24638Y21463
X19431Y13716
X8509Y9525
X5080Y9525
X8509Y11557
X5969Y11557
X8509Y17526
X8509Y19558
X58674Y16129
X44323Y9906
X32639Y14478
X35941Y14478
X35941Y11557
X32639Y11684
X1651Y5334
X6858Y13970
X8890Y5334
X13589Y9525
X6858Y21209
X1778Y27940
X19304Y27432
X18161Y18415
X22098Y13462
X26670Y4445
X21463Y4445
X41529Y14097
X47625Y29591
X47498Y21082
X54356Y9525
X41783Y8128
X14224Y18415
X59055Y28575
X56007Y15875
X35433Y5969
X58293Y19558
X64262Y23876
X64262Y30861
X69342Y16510
X65405Y5080
X19304Y24511
X49530Y15240
X58293Y4953
X38989Y11664
X57658Y11176
X40767Y27051
X44450Y27051
X44450Y10922
X52451Y25400
X38100Y25400
X11303Y22225
X52197Y9144
X39624Y9144
X34417Y25400
X28194Y25400
X28194Y22479
X38989Y12573
X41021Y11811
M30